<svg width="12" height="12" viewBox="0 0 12 12" fill="none" xmlns="http://www.w3.org/2000/svg">
<path d="M10.4162 2.39935C10.3458 2.27747 10.2445 2.17634 10.1225 2.10621C10.0005 2.03609 9.86208 1.99945 9.72134 2.00001L1.95007 2.00001C1.81062 2.00154 1.674 2.03956 1.5538 2.11028C1.43361 2.18101 1.33402 2.28198 1.26496 2.40314C1.1959 2.5243 1.15977 2.66143 1.16016 2.80089C1.16055 2.94035 1.19745 3.07727 1.26719 3.19804L5.15282 9.61553C5.22402 9.7329 5.32425 9.82993 5.44387 9.89728C5.56348 9.96462 5.69844 10 5.83571 10C5.97297 10 6.10793 9.96462 6.22754 9.89728C6.34716 9.82993 6.4474 9.7329 6.51859 9.61553L10.4042 3.19804C10.4762 3.07768 10.5151 2.9405 10.5172 2.8003C10.5193 2.6601 10.4845 2.52182 10.4162 2.39935Z" fill="white"/>
</svg>
