<svg width="24" height="24" viewBox="0 0 24 24" fill="none" xmlns="http://www.w3.org/2000/svg">
<rect width="24" height="24" rx="4" fill="#13B5EC"/>
<path fill-rule="evenodd" clip-rule="evenodd" d="M12.76 14.4522L15.64 16.1406V12.7637L12.76 14.4522ZM15.64 7.21609L11.8 4.96484L7.96002 7.21609V11.1558L11.8 8.90453L15.64 11.1558V7.21609ZM7.96002 16.1406L10.84 14.4522L7.96002 12.7637V16.1406ZM12.28 13.6482L15.16 11.9598L12.28 10.2713V13.6482ZM11.3199 10.2713L8.43991 11.9598L11.3199 13.6482V10.2713ZM15.1599 16.9447L11.7999 15.015L8.43991 16.9447L11.7999 18.9547L15.1599 16.9447ZM7 17.2663V6.73367L11.8 4L16.6 6.73367V17.2663L11.8 20L7 17.2663Z" fill="white"/>
</svg>
