<svg xmlns="http://www.w3.org/2000/svg" width="16" height="16" viewBox="0 0 16 16" fill="none">
<path d="M8 0C6.41775 0 4.87104 0.469192 3.55544 1.34824C2.23985 2.22729 1.21447 3.47672 0.608967 4.93853C0.00346629 6.40034 -0.15496 8.00887 0.153721 9.56072C0.462403 11.1126 1.22433 12.538 2.34315 13.6569C3.46197 14.7757 4.88743 15.5376 6.43928 15.8463C7.99113 16.155 9.59966 15.9965 11.0615 15.391C12.5233 14.7855 13.7727 13.7602 14.6518 12.4446C15.5308 11.129 16 9.58225 16 8C16 5.87827 15.1571 3.84344 13.6569 2.34315C12.1566 0.842855 10.1217 0 8 0V0ZM8 12.6667C7.80222 12.6667 7.60888 12.608 7.44443 12.4981C7.27998 12.3883 7.15181 12.2321 7.07612 12.0493C7.00044 11.8666 6.98063 11.6656 7.01922 11.4716C7.0578 11.2776 7.15304 11.0994 7.2929 10.9596C7.43275 10.8197 7.61093 10.7245 7.80491 10.6859C7.99889 10.6473 8.19996 10.6671 8.38269 10.7428C8.56541 10.8185 8.72159 10.9466 8.83147 11.1111C8.94136 11.2755 9 11.4689 9 11.6667C9 11.9319 8.89465 12.1862 8.70711 12.3738C8.51957 12.5613 8.26522 12.6667 8 12.6667ZM9.06667 8.61333C8.94742 8.66538 8.846 8.75118 8.77493 8.86017C8.70385 8.96915 8.66622 9.09655 8.66667 9.22667C8.66667 9.40348 8.59643 9.57305 8.47141 9.69807C8.34638 9.82309 8.17682 9.89333 8 9.89333C7.82319 9.89333 7.65362 9.82309 7.5286 9.69807C7.40358 9.57305 7.33334 9.40348 7.33334 9.22667C7.33328 8.83746 7.44678 8.45669 7.65993 8.13104C7.87309 7.8054 8.17662 7.54902 8.53334 7.39333C8.75347 7.29726 8.94357 7.1435 9.08354 6.94831C9.22351 6.75312 9.30815 6.52374 9.32852 6.28442C9.3489 6.04509 9.30425 5.80471 9.19929 5.58867C9.09433 5.37263 8.93296 5.18895 8.73223 5.05704C8.53151 4.92514 8.29887 4.8499 8.05892 4.83929C7.81897 4.82867 7.5806 4.88307 7.36901 4.99674C7.15742 5.1104 6.98046 5.27912 6.85684 5.48505C6.73321 5.69098 6.66751 5.92648 6.66667 6.16667C6.66667 6.34348 6.59643 6.51305 6.47141 6.63807C6.34638 6.76309 6.17682 6.83333 6 6.83333C5.82319 6.83333 5.65362 6.76309 5.5286 6.63807C5.40358 6.51305 5.33334 6.34348 5.33334 6.16667C5.33381 5.68601 5.46419 5.21441 5.71069 4.80176C5.95718 4.38912 6.31062 4.05077 6.73363 3.82251C7.15663 3.59425 7.63347 3.48456 8.11369 3.50505C8.59392 3.52554 9.05967 3.67545 9.46169 3.93892C9.86372 4.20239 10.1871 4.56962 10.3975 5.00176C10.6079 5.4339 10.6977 5.91489 10.6572 6.39385C10.6167 6.8728 10.4475 7.33191 10.1676 7.72261C9.88758 8.11331 9.5072 8.42107 9.06667 8.61333Z" fill="#9C9C9C"/>
</svg>