<svg xmlns="http://www.w3.org/2000/svg" width="24" height="24" viewBox="0 0 24 24" fill="none">
<path d="M11.709 7.875C13.0552 7.875 14.1465 6.78369 14.1465 5.4375C14.1465 4.09131 13.0552 3 11.709 3C10.3628 3 9.27148 4.09131 9.27148 5.4375C9.27148 6.78369 10.3628 7.875 11.709 7.875Z" fill="#F2F4F5"/>
<path d="M11.709 14.4373C13.0552 14.4373 14.1465 13.346 14.1465 11.9998C14.1465 10.6536 13.0552 9.56226 11.709 9.56226C10.3628 9.56226 9.27148 10.6536 9.27148 11.9998C9.27148 13.346 10.3628 14.4373 11.709 14.4373Z" fill="#F2F4F5"/>
<path d="M11.709 21.0002C13.0552 21.0002 14.1465 19.9089 14.1465 18.5627C14.1465 17.2166 13.0552 16.1252 11.709 16.1252C10.3628 16.1252 9.27148 17.2166 9.27148 18.5627C9.27148 19.9089 10.3628 21.0002 11.709 21.0002Z" fill="#F2F4F5"/>
</svg>