<svg width="80" height="80" viewBox="0 0 80 80" fill="none" xmlns="http://www.w3.org/2000/svg">
<path fill-rule="evenodd" clip-rule="evenodd" d="M40 80C18 80 0 62.0004 0 39.8008C0.2 17.8013 18 -0.198345 40.2 0.00165068C62.2 0.201647 80 18.0013 80 40.4008C79.8 62.2004 62 80 40 80" fill="#404040"/>
<g clip-path="url(#clip0_9170_58147)">
<path d="M43.3342 55.2666C43.3355 55.3504 43.3104 55.4324 43.2626 55.5012C43.2147 55.57 43.1465 55.622 43.0675 55.6499C42.9885 55.6808 42.9021 55.6877 42.8192 55.67C42.7362 55.6522 42.6603 55.6104 42.6008 55.5499L40.0008 52.5666C39.5694 52.0872 38.9695 51.7931 38.3263 51.7457C37.6831 51.6983 37.0465 51.9013 36.5495 52.3123C36.0525 52.7232 35.7335 53.3104 35.6592 53.951C35.5849 54.5916 35.7611 55.2361 36.1508 55.7499L39.8842 59.8666C39.9212 59.9096 39.9673 59.9439 40.0192 59.967C40.0711 59.99 40.1274 60.0013 40.1842 59.9999H59.5842C59.6947 59.9999 59.8007 59.956 59.8788 59.8779C59.9569 59.7997 60.0008 59.6938 60.0008 59.5833V57.4999C60.0008 55.7318 59.2985 54.0361 58.0482 52.7859C56.798 51.5356 55.1023 50.8333 53.3342 50.8333H48.7508C48.6403 50.8333 48.5343 50.7894 48.4562 50.7112C48.3781 50.6331 48.3342 50.5271 48.3342 50.4166V43.3333C48.3342 42.6702 48.0708 42.0343 47.6019 41.5655C47.1331 41.0966 46.4972 40.8333 45.8342 40.8333C45.1711 40.8333 44.5352 41.0966 44.0664 41.5655C43.5976 42.0343 43.3342 42.6702 43.3342 43.3333V55.2666Z" fill="white"/>
<path fill-rule="evenodd" clip-rule="evenodd" d="M40.6 46.7833C38.6082 47.8012 36.4035 48.3324 34.1667 48.3333C31.3648 48.3333 28.6258 47.5025 26.2961 45.9458C23.9664 44.3892 22.1506 42.1766 21.0784 39.588C20.0061 36.9994 19.7256 34.151 20.2722 31.4029C20.8188 28.6548 22.1681 26.1306 24.1493 24.1493C26.1306 22.1681 28.6548 20.8188 31.4029 20.2722C34.151 19.7256 36.9994 20.0061 39.588 21.0784C42.1766 22.1506 44.3892 23.9664 45.9458 26.2961C47.5025 28.6258 48.3333 31.3648 48.3333 34.1667C48.3343 35.551 48.1264 36.9276 47.7167 38.25C47.7034 38.3038 47.6792 38.3543 47.6454 38.3982C47.6117 38.4421 47.5692 38.4785 47.5206 38.5052C47.472 38.5318 47.4184 38.5481 47.3633 38.5529C47.3081 38.5578 47.2525 38.5511 47.2 38.5333C46.7571 38.3983 46.2964 38.3308 45.8333 38.3333C44.5073 38.3333 43.2355 38.8601 42.2978 39.7978C41.3601 40.7355 40.8333 42.0073 40.8333 43.3333V46.4167C40.8339 46.4938 40.8122 46.5694 40.7708 46.6345C40.7294 46.6995 40.6701 46.7512 40.6 46.7833ZM38.8208 28.4206L40.577 30.1322C40.6345 30.1893 40.6667 30.2661 40.6667 30.3461C40.6667 30.4261 40.6345 30.5029 40.577 30.5601L30.9803 39.9125C30.9217 39.9686 30.8429 39.9999 30.7608 39.9999C30.6787 39.9999 30.5999 39.9686 30.5412 39.9125L26.5897 36.0615C26.5322 36.0044 26.5 35.9276 26.5 35.8476C26.5 35.7676 26.5322 35.6908 26.5897 35.6336L28.3459 33.9221C28.4045 33.8661 28.4834 33.8347 28.5654 33.8347C28.6475 33.8347 28.7264 33.8661 28.785 33.9221L30.5412 35.6336C30.5999 35.6896 30.6787 35.721 30.7608 35.721C30.8429 35.721 30.9217 35.6896 30.9803 35.6336L38.3817 28.4206C38.4403 28.3646 38.5191 28.3333 38.6012 28.3333C38.6833 28.3333 38.7621 28.3646 38.8208 28.4206Z" fill="white"/>
</g>
<defs>
<clipPath id="clip0_9170_58147">
<rect width="40" height="40" fill="white" transform="translate(20 20)"/>
</clipPath>
</defs>
</svg>
