<svg width="40" height="40" viewBox="0 0 40 40" fill="none" xmlns="http://www.w3.org/2000/svg">
<g clip-path="url(#clip0_8766_92949)">
<path d="M14.1674 15.0002H25.8341C25.9633 14.9989 26.0904 14.9682 26.2059 14.9105C26.3214 14.8527 26.4223 14.7694 26.5008 14.6668C26.5841 14.5662 26.6426 14.4474 26.6715 14.32C26.7005 14.1926 26.6991 14.0602 26.6674 13.9335C26.372 12.855 25.8231 11.8627 25.0664 11.0394C24.3097 10.216 23.3672 9.58542 22.3174 9.20016C22.2471 9.17381 22.1851 9.12892 22.1382 9.07024C22.0912 9.01156 22.061 8.94127 22.0508 8.86683C22.0372 8.79119 22.0457 8.71324 22.0753 8.64231C22.1048 8.57137 22.1542 8.51045 22.2174 8.46683C22.8631 8.00448 23.3453 7.34909 23.5946 6.59511C23.8438 5.84113 23.8473 5.02748 23.6045 4.27139C23.3617 3.5153 22.8852 2.85581 22.2435 2.38794C21.6019 1.92007 20.8282 1.66797 20.0341 1.66797C19.24 1.66797 18.4664 1.92007 17.8247 2.38794C17.1831 2.85581 16.7065 3.5153 16.4637 4.27139C16.2209 5.02748 16.2244 5.84113 16.4737 6.59511C16.7229 7.34909 17.2051 8.00448 17.8508 8.46683C17.9175 8.50714 17.9696 8.56765 17.9995 8.63958C18.0295 8.7115 18.0358 8.7911 18.0174 8.86683C18.0072 8.94127 17.977 9.01156 17.93 9.07024C17.8831 9.12892 17.8212 9.17381 17.7508 9.20016C16.6886 9.5765 15.7327 10.2031 14.9639 11.027C14.1952 11.8509 13.6361 12.8479 13.3341 13.9335C13.2979 14.0577 13.2911 14.1886 13.3142 14.3159C13.3374 14.4432 13.3898 14.5633 13.4674 14.6668C13.5493 14.7739 13.6555 14.86 13.7772 14.918C13.8989 14.9759 14.0327 15.0041 14.1674 15.0002Z" fill="#1A73E8"/>
<path d="M39.9996 29.7666C39.7056 28.6784 39.1537 27.6771 38.3907 26.8474C37.6277 26.0177 36.676 25.384 35.6162 25C35.5459 24.9736 35.4839 24.9287 35.437 24.87C35.39 24.8114 35.3598 24.7411 35.3496 24.6666C35.336 24.591 35.3445 24.513 35.3741 24.4421C35.4036 24.3712 35.453 24.3103 35.5162 24.2666C36.1619 23.8043 36.6441 23.1489 36.8934 22.3949C37.1426 21.6409 37.1461 20.8273 36.9033 20.0712C36.6605 19.3151 36.184 18.6556 35.5423 18.1877C34.9006 17.7199 34.127 17.4678 33.3329 17.4678C32.5388 17.4678 31.7652 17.7199 31.1235 18.1877C30.4819 18.6556 30.0053 19.3151 29.7625 20.0712C29.5197 20.8273 29.5232 21.6409 29.7725 22.3949C30.0217 23.1489 30.5039 23.8043 31.1496 24.2666C31.2163 24.307 31.2684 24.3675 31.2983 24.4394C31.3283 24.5113 31.3346 24.5909 31.3162 24.6666C31.306 24.7411 31.2758 24.8114 31.2288 24.87C31.1819 24.9287 31.12 24.9736 31.0496 25C30.4511 25.2052 29.8887 25.5033 29.3829 25.8833C29.3166 25.9281 29.2653 25.9918 29.2356 26.0661C29.2059 26.1403 29.1992 26.2218 29.2162 26.3L29.9996 30.5C30.0219 30.5941 30.075 30.678 30.1505 30.7384C30.226 30.7988 30.3196 30.8322 30.4162 30.8333H39.1662C39.2954 30.832 39.4225 30.8014 39.5381 30.7436C39.6536 30.6858 39.7544 30.6025 39.8329 30.5C39.9162 30.3994 39.9747 30.2806 40.0037 30.1532C40.0326 30.0258 40.0312 29.8934 39.9996 29.7666Z" fill="#1A73E8"/>
<path d="M10.8001 26.3337C10.8172 26.2555 10.8104 26.174 10.7807 26.0998C10.751 26.0255 10.6997 25.9618 10.6335 25.917C10.1277 25.537 9.56523 25.2389 8.9668 25.0337C8.89642 25.0073 8.83448 24.9624 8.78753 24.9037C8.74059 24.8451 8.71039 24.7748 8.70013 24.7003C8.68655 24.6247 8.69505 24.5467 8.72461 24.4758C8.75416 24.4049 8.80353 24.3439 8.8668 24.3003C9.51244 23.838 9.99464 23.1826 10.2439 22.4286C10.4932 21.6746 10.4967 20.861 10.2539 20.1049C10.0111 19.3488 9.53451 18.6893 8.89286 18.2214C8.2512 17.7536 7.47758 17.5015 6.68346 17.5015C5.88934 17.5015 5.11572 17.7536 4.47407 18.2214C3.83241 18.6893 3.35585 19.3488 3.11305 20.1049C2.87024 20.861 2.87373 21.6746 3.12301 22.4286C3.37229 23.1826 3.85449 23.838 4.50013 24.3003C4.56681 24.3406 4.61891 24.4011 4.64888 24.4731C4.67884 24.545 4.68512 24.6246 4.6668 24.7003C4.65654 24.7748 4.62634 24.8451 4.57939 24.9037C4.53245 24.9624 4.47051 25.0073 4.40013 25.0337C3.34106 25.4122 2.38851 26.0399 1.62276 26.8636C0.857006 27.6874 0.300497 28.6831 0.000130255 29.767C-0.0360936 29.8912 -0.0429039 30.0221 -0.0197613 30.1494C0.00338123 30.2767 0.055841 30.3968 0.133464 30.5003C0.211961 30.6029 0.312796 30.6862 0.428312 30.744C0.543827 30.8017 0.670986 30.8324 0.80013 30.8337H9.5168C9.62449 30.8489 9.73398 30.8231 9.82352 30.7613C9.91306 30.6996 9.9761 30.6064 10.0001 30.5003L10.8001 26.3337Z" fill="#1A73E8"/>
<path d="M26.1177 19.6667C26.0398 19.2846 25.8303 18.9419 25.5258 18.6982C25.2213 18.4546 24.8409 18.3255 24.451 18.3333H15.5177C15.1278 18.3255 14.7475 18.4546 14.4429 18.6982C14.1384 18.9419 13.929 19.2846 13.851 19.6667L10.3844 36.3333C10.3344 36.5742 10.3384 36.8232 10.396 37.0624C10.4536 37.3015 10.5635 37.525 10.7177 37.7167C10.8746 37.91 11.0728 38.0658 11.2977 38.1725C11.5227 38.2792 11.7687 38.3342 12.0177 38.3333H27.9177C28.1667 38.3342 28.4127 38.2792 28.6377 38.1725C28.8626 38.0658 29.0608 37.91 29.2177 37.7167C29.3719 37.525 29.4818 37.3015 29.5394 37.0624C29.597 36.8232 29.601 36.5742 29.551 36.3333L26.1177 19.6667ZM23.8344 34.6667C23.7561 34.7575 23.6587 34.83 23.5493 34.8789C23.4398 34.9279 23.3209 34.9522 23.201 34.95H16.801C16.6811 34.9522 16.5622 34.9279 16.4528 34.8789C16.3433 34.83 16.246 34.7575 16.1677 34.6667C16.0873 34.5772 16.0277 34.471 15.9931 34.3557C15.9585 34.2405 15.9499 34.119 15.9677 34L16.5677 29.8333C16.5922 29.6345 16.689 29.4516 16.8396 29.3195C16.9901 29.1874 17.184 29.1152 17.3844 29.1167H22.6177C22.818 29.1152 23.0119 29.1874 23.1625 29.3195C23.3131 29.4516 23.4098 29.6345 23.4344 29.8333L24.0344 34C24.0602 34.1268 24.0555 34.2578 24.0207 34.3824C23.986 34.507 23.9221 34.6216 23.8344 34.7167V34.6667Z" fill="#1A73E8"/>
</g>
<defs>
<clipPath id="clip0_8766_92949">
<rect width="40" height="40" fill="white"/>
</clipPath>
</defs>
</svg>
