<svg width="40" height="40" viewBox="0 0 40 40" fill="none" xmlns="http://www.w3.org/2000/svg">
<g clip-path="url(#clip0_8766_92943)">
<path d="M5 23.3833H1.66667C0.746192 23.3833 0 24.1295 0 25.05V36.7166C0 37.6371 0.746192 38.3833 1.66667 38.3833H5C5.92047 38.3833 6.66667 37.6371 6.66667 36.7166V25.05C6.66667 24.1295 5.92047 23.3833 5 23.3833Z" fill="#1A73E8"/>
<path d="M33.934 28.5167L30.6007 29.5833C30.4307 29.6421 30.2833 29.7523 30.1787 29.8986C30.0742 30.045 30.0178 30.2202 30.0173 30.4C30.0262 30.898 29.9357 31.3929 29.7512 31.8555C29.5667 32.3182 29.2919 32.7395 28.9428 33.0949C28.5937 33.4502 28.1773 33.7324 27.7179 33.925C27.2586 34.1176 26.7654 34.2167 26.2673 34.2167H17.5007C17.3869 34.2169 17.2743 34.1938 17.1698 34.1488C17.0653 34.1038 16.9711 34.0379 16.893 33.9552C16.8149 33.8724 16.7546 33.7746 16.7158 33.6676C16.677 33.5607 16.6605 33.4469 16.6673 33.3333C16.6673 33.1123 16.7551 32.9004 16.9114 32.7441C17.0677 32.5878 17.2796 32.5 17.5007 32.5H26.2507C26.8032 32.5 27.3331 32.2805 27.7238 31.8898C28.1145 31.4991 28.334 30.9692 28.334 30.4167C28.334 29.8641 28.1145 29.3342 27.7238 28.9435C27.3331 28.5528 26.8032 28.3333 26.2507 28.3333H20.2007C20.1362 28.3576 20.0651 28.3576 20.0007 28.3333C19.8007 28.2167 19.4507 27.9667 19.1507 27.75C17.2859 26.1445 14.9547 25.1805 12.5007 25H9.16732C8.9463 25 8.73434 25.0878 8.57806 25.2441C8.42178 25.4004 8.33398 25.6123 8.33398 25.8333V35.6667C8.33767 35.8393 8.39387 36.0068 8.4951 36.1467C8.59633 36.2867 8.7378 36.3925 8.90065 36.45L12.1007 37.55C16.4673 39.0667 18.9007 39.9 21.1173 39.9C23.834 39.9 26.2006 38.6667 31.3506 35.9333C33.484 34.7833 36.1507 33.3833 39.534 31.6833C39.6554 31.6275 39.7604 31.5415 39.8392 31.4335C39.918 31.3256 39.9678 31.1993 39.984 31.0667C40.0101 30.9372 40.0023 30.8032 39.9615 30.6777C39.9206 30.5521 39.848 30.4392 39.7507 30.35C39.0803 29.492 38.1654 28.8575 37.127 28.5302C36.0885 28.2029 34.9752 28.1982 33.934 28.5167Z" fill="#1A73E8"/>
<path d="M24.1667 23.3333C30.61 23.3333 35.8333 18.11 35.8333 11.6667C35.8333 5.22335 30.61 0 24.1667 0C17.7233 0 12.5 5.22335 12.5 11.6667C12.5 18.11 17.7233 23.3333 24.1667 23.3333Z" fill="#1A73E8"/>
</g>
<defs>
<clipPath id="clip0_8766_92943">
<rect width="40" height="40" fill="white"/>
</clipPath>
</defs>
</svg>
