<svg width="40" height="40" viewBox="0 0 40 40" fill="none" xmlns="http://www.w3.org/2000/svg">
<path d="M37.2838 14.1669H36.5171C36.4255 14.1632 36.3374 14.1306 36.2656 14.0737C36.1937 14.0168 36.1417 13.9385 36.1171 13.8502C35.2462 10.4568 33.1274 7.51667 30.1838 5.6169C30.1116 5.56548 30.0569 5.49318 30.0271 5.40974C29.9973 5.3263 29.9938 5.23573 30.0171 5.15023C30.2808 4.34581 30.7388 3.61881 31.3504 3.03356C31.5647 2.82837 31.7203 2.56972 31.8011 2.28431C31.882 1.99889 31.8853 1.69706 31.8105 1.40998C31.7358 1.1229 31.5858 0.860974 31.376 0.651238C31.1662 0.441503 30.9042 0.291562 30.6171 0.216898C29.3388 -0.113806 27.9912 -0.0575014 26.745 0.378673C25.4988 0.814847 24.4101 1.61125 23.6171 2.6669C23.5714 2.72715 23.5096 2.77322 23.4388 2.79977C23.368 2.82632 23.2911 2.83226 23.2171 2.8169C20.6276 2.31702 17.9614 2.37354 15.3954 2.98272C12.8294 3.59189 10.4223 4.73978 8.33377 6.35023C5.90529 8.23376 4.18446 10.8825 3.45043 13.8669C3.43675 13.9342 3.43865 14.0037 3.45598 14.0702C3.47331 14.1366 3.50562 14.1982 3.55043 14.2502C3.59508 14.3019 3.65222 14.3413 3.71641 14.3646C3.78059 14.388 3.84968 14.3945 3.9171 14.3836C5.45579 14.2184 7.00304 14.1461 8.55043 14.1669C11.5171 14.1669 19.3838 14.1669 19.3838 18.3336V30.4002C19.3838 30.5107 19.4277 30.6167 19.5058 30.6949C19.5839 30.773 19.6899 30.8169 19.8004 30.8169C21.6373 30.8255 23.4644 30.5501 25.2171 30.0002C25.3185 29.9586 25.4323 29.9586 25.5338 30.0002C25.5832 30.025 25.6266 30.0602 25.6611 30.1034C25.6956 30.1465 25.7204 30.1966 25.7338 30.2502L26.5504 33.0502C26.671 33.5988 26.974 34.0902 27.4099 34.4444C27.8458 34.7985 28.3888 34.9945 28.9504 35.0002C29.1811 35.0064 29.4114 34.9783 29.6338 34.9169C30.2616 34.7205 30.7876 34.2861 31.0991 33.7067C31.4107 33.1273 31.4829 32.4489 31.3004 31.8169L30.2171 28.0836C30.1938 27.9981 30.1973 27.9075 30.2271 27.8241C30.2569 27.7406 30.3116 27.6683 30.3838 27.6169C32.1991 26.3635 33.7087 24.7172 34.8004 22.8002C34.8364 22.7345 34.8895 22.6796 34.954 22.6415C35.0185 22.6034 35.0921 22.5834 35.1671 22.5836H37.2338C37.8968 22.5836 38.5327 22.3202 39.0015 21.8513C39.4704 21.3825 39.7338 20.7466 39.7338 20.0836V16.6669C39.7339 16.0124 39.4774 15.384 39.0193 14.9166C38.5612 14.4491 37.9381 14.18 37.2838 14.1669ZM28.1171 14.1669C28.1171 13.8373 28.2148 13.515 28.398 13.2409C28.5811 12.9669 28.8414 12.7532 29.146 12.6271C29.4505 12.501 29.7856 12.4679 30.1089 12.5323C30.4322 12.5966 30.7292 12.7553 30.9623 12.9884C31.1954 13.2215 31.3541 13.5184 31.4184 13.8417C31.4827 14.165 31.4497 14.5002 31.3236 14.8047C31.1974 15.1092 30.9838 15.3695 30.7097 15.5527C30.4356 15.7358 30.1134 15.8336 29.7838 15.8336C29.3417 15.8336 28.9178 15.658 28.6053 15.3454C28.2927 15.0328 28.1171 14.6089 28.1171 14.1669ZM13.1171 11.0002C12.8991 11.1594 12.637 11.2468 12.3671 11.2502C12.1728 11.2515 11.981 11.2069 11.8072 11.1201C11.6334 11.0332 11.4826 10.9064 11.3671 10.7502C11.1934 10.4913 11.1227 10.1768 11.169 9.86843C11.2152 9.56008 11.3751 9.28014 11.6171 9.08356C14.2459 7.1039 17.5008 6.13928 20.7838 6.3669C21.1139 6.39253 21.4209 6.54644 21.639 6.79566C21.8571 7.04488 21.9689 7.36959 21.9504 7.70023C21.9207 8.0288 21.7657 8.33331 21.5174 8.55056C21.2691 8.7678 20.9467 8.88109 20.6171 8.8669C17.9145 8.63777 15.2205 9.39566 13.0338 11.0002H13.1171Z" fill="#1A73E8"/>
<path d="M16.6668 26.1501C16.7338 26.1156 16.7897 26.0629 16.828 25.998C16.8664 25.9331 16.8856 25.8587 16.8835 25.7834V21.8334C16.8835 21.7687 16.8685 21.7049 16.8395 21.6471C16.8106 21.5892 16.7686 21.5389 16.7168 21.5001C16.6581 21.468 16.5922 21.4512 16.5252 21.4512C16.4582 21.4512 16.3923 21.468 16.3335 21.5001C13.8059 22.2362 11.1825 22.5901 8.55018 22.5501C5.92331 22.5912 3.30517 22.2373 0.783515 21.5001C0.725241 21.4664 0.659137 21.4487 0.591848 21.4487C0.524559 21.4487 0.458456 21.4664 0.400182 21.5001C0.343257 21.5349 0.296401 21.5839 0.264247 21.6424C0.232094 21.7009 0.215756 21.7667 0.216848 21.8334V25.8001C0.218235 25.8768 0.240752 25.9516 0.281921 26.0163C0.32309 26.0809 0.381314 26.133 0.450182 26.1668C3.02566 27.1785 5.78631 27.6329 8.55018 27.5001C11.3213 27.6382 14.0896 27.1778 16.6668 26.1501Z" fill="#1A73E8"/>
<path d="M8.55018 35.8338C5.92331 35.8749 3.30517 35.521 0.783515 34.7838C0.725241 34.7501 0.659137 34.7324 0.591848 34.7324C0.524559 34.7324 0.458456 34.7501 0.400182 34.7838C0.343257 34.8186 0.296401 34.8676 0.264247 34.9261C0.232094 34.9846 0.215756 35.0504 0.216848 35.1171V38.3338C0.216848 39.2504 3.95018 40.0004 8.55018 40.0004C13.1502 40.0004 16.8835 39.2504 16.8835 38.3338V35.1671C16.8835 35.1024 16.8685 35.0386 16.8395 34.9808C16.8106 34.9229 16.7686 34.8726 16.7168 34.8338C16.6581 34.8017 16.5922 34.7849 16.5252 34.7849C16.4582 34.7849 16.3923 34.8017 16.3335 34.8338C13.8034 35.553 11.18 35.8901 8.55018 35.8338Z" fill="#1A73E8"/>
<path d="M0.216797 18.3337V19.1337C0.218183 19.2103 0.240701 19.2851 0.28187 19.3498C0.323039 19.4145 0.381263 19.4666 0.45013 19.5003C3.02561 20.512 5.78625 20.9665 8.55013 20.8337C11.3212 20.9718 14.0896 20.5114 16.6668 19.4837C16.7338 19.4492 16.7897 19.3964 16.828 19.3316C16.8663 19.2667 16.8855 19.1923 16.8835 19.117V18.3337C16.8835 17.417 13.1501 16.667 8.55013 16.667C3.95013 16.667 0.216797 17.417 0.216797 18.3337Z" fill="#1A73E8"/>
<path d="M16.8835 28.5004C16.8835 28.4357 16.8685 28.3719 16.8395 28.3141C16.8106 28.2562 16.7686 28.2059 16.7168 28.1671C16.6581 28.135 16.5922 28.1182 16.5252 28.1182C16.4582 28.1182 16.3923 28.135 16.3335 28.1671C13.8059 28.9032 11.1825 29.2571 8.55018 29.2171C5.92331 29.2582 3.30517 28.9043 0.783515 28.1671C0.725241 28.1334 0.659137 28.1157 0.591848 28.1157C0.524559 28.1157 0.458456 28.1334 0.400182 28.1671C0.343257 28.2019 0.296401 28.2509 0.264247 28.3094C0.232094 28.3679 0.215756 28.4337 0.216848 28.5004V32.4671C0.218235 32.5437 0.240752 32.6185 0.281921 32.6832C0.32309 32.7479 0.381314 32.8 0.450182 32.8337C3.02566 33.8455 5.78631 34.2999 8.55018 34.1671C11.3213 34.3052 14.0896 33.8448 16.6668 32.8171C16.7338 32.7826 16.7897 32.7298 16.828 32.665C16.8664 32.6001 16.8856 32.5257 16.8835 32.4504V28.5004Z" fill="#1A73E8"/>
</svg>
