<svg width="24" height="24" viewBox="0 0 24 24" fill="none" xmlns="http://www.w3.org/2000/svg">
<circle cx="12" cy="12" r="12" fill="#303030"/>
<path d="M16.0875 9.04583L14.2875 7.24583C14.21 7.16785 14.1178 7.10597 14.0162 7.06378C13.9147 7.02159 13.8058 6.99991 13.6958 7H8.83333C8.61232 7 8.40036 7.0878 8.24408 7.24408C8.0878 7.40036 8 7.61232 8 7.83333V16.1667C8 16.3877 8.0878 16.5996 8.24408 16.7559C8.40036 16.9122 8.61232 17 8.83333 17H15.5C15.721 17 15.933 16.9122 16.0893 16.7559C16.2455 16.5996 16.3333 16.3877 16.3333 16.1667V9.6375C16.3334 9.52754 16.3117 9.41864 16.2696 9.3171C16.2274 9.21555 16.1655 9.12336 16.0875 9.04583ZM11.75 15.125H9.875C9.76449 15.125 9.65851 15.0811 9.58037 15.003C9.50223 14.9248 9.45833 14.8188 9.45833 14.7083C9.45833 14.5978 9.50223 14.4918 9.58037 14.4137C9.65851 14.3356 9.76449 14.2917 9.875 14.2917H11.75C11.8605 14.2917 11.9665 14.3356 12.0446 14.4137C12.1228 14.4918 12.1667 14.5978 12.1667 14.7083C12.1667 14.8188 12.1228 14.9248 12.0446 15.003C11.9665 15.0811 11.8605 15.125 11.75 15.125ZM13.625 13.4583H9.875C9.76449 13.4583 9.65851 13.4144 9.58037 13.3363C9.50223 13.2582 9.45833 13.1522 9.45833 13.0417C9.45833 12.9312 9.50223 12.8252 9.58037 12.747C9.65851 12.6689 9.76449 12.625 9.875 12.625H13.625C13.7355 12.625 13.8415 12.6689 13.9196 12.747C13.9978 12.8252 14.0417 12.9312 14.0417 13.0417C14.0417 13.1522 13.9978 13.2582 13.9196 13.3363C13.8415 13.4144 13.7355 13.4583 13.625 13.4583ZM13.625 11.7917H9.875C9.76449 11.7917 9.65851 11.7478 9.58037 11.6696C9.50223 11.5915 9.45833 11.4855 9.45833 11.375C9.45833 11.2645 9.50223 11.1585 9.58037 11.0804C9.65851 11.0022 9.76449 10.9583 9.875 10.9583H13.625C13.7355 10.9583 13.8415 11.0022 13.9196 11.0804C13.9978 11.1585 14.0417 11.2645 14.0417 11.375C14.0417 11.4855 13.9978 11.5915 13.9196 11.6696C13.8415 11.7478 13.7355 11.7917 13.625 11.7917Z" fill="white"/>
</svg>
