<svg width="24" height="24" viewBox="0 0 24 24" fill="none" xmlns="http://www.w3.org/2000/svg">
<circle cx="12" cy="12" r="12" fill="#323232"/>
<g clip-path="url(#clip0_8796_42257)">
<path d="M16.1652 7.76168C15.3767 7.40072 14.5444 7.14465 13.6895 7C13.5725 7.20914 13.4666 7.42433 13.3723 7.64464C12.4616 7.50741 11.5355 7.50741 10.6248 7.64464C10.5305 7.42435 10.4246 7.20917 10.3077 7C9.45217 7.14587 8.61931 7.40255 7.8301 7.76357C6.26332 10.0816 5.83859 12.3421 6.05096 14.5706C6.9685 15.2485 7.9955 15.764 9.0873 16.0949C9.33314 15.7642 9.55068 15.4134 9.7376 15.0462C9.38256 14.9136 9.03988 14.75 8.71354 14.5573C8.79942 14.495 8.88343 14.4309 8.9646 14.3686C9.91419 14.8151 10.9506 15.0467 12 15.0467C13.0494 15.0467 14.0858 14.8151 15.0354 14.3686C15.1175 14.4356 15.2015 14.4998 15.2864 14.5573C14.9595 14.7504 14.6162 14.9143 14.2605 15.0472C14.4472 15.4142 14.6647 15.7647 14.9108 16.0949C16.0035 15.7654 17.0313 15.25 17.949 14.5715C18.1982 11.9873 17.5234 9.74752 16.1652 7.76168ZM10.0066 13.2001C9.41481 13.2001 8.9259 12.663 8.9259 12.0024C8.9259 11.3417 9.39782 10.7999 10.0047 10.7999C10.6116 10.7999 11.0967 11.3417 11.0864 12.0024C11.076 12.663 10.6097 13.2001 10.0066 13.2001ZM13.9934 13.2001C13.4007 13.2001 12.9136 12.663 12.9136 12.0024C12.9136 11.3417 13.3856 10.7999 13.9934 10.7999C14.6012 10.7999 15.0826 11.3417 15.0722 12.0024C15.0618 12.663 14.5965 13.2001 13.9934 13.2001Z" fill="white"/>
</g>
<defs>
<clipPath id="clip0_8796_42257">
<rect width="12" height="12" fill="white" transform="translate(6 6)"/>
</clipPath>
</defs>
</svg>
