<svg width="24" height="24" viewBox="0 0 24 24" fill="none" xmlns="http://www.w3.org/2000/svg">
<circle cx="12" cy="12" r="12" fill="#303030"/>
<path d="M11.8926 7C8.91867 7 6.5 8.99046 6.5 11.4421C6.50912 12.0303 6.64697 12.6094 6.90386 13.1386C7.16075 13.6678 7.53045 14.1344 7.98696 14.5054L6.91409 16.6558C6.89197 16.699 6.88371 16.7479 6.89045 16.7959C6.89719 16.8439 6.91859 16.8887 6.95174 16.9241C6.99662 16.9691 7.05755 16.9945 7.12114 16.9946C7.15369 17.0018 7.1874 17.0018 7.21995 16.9946L10.1045 15.6347C10.686 15.8008 11.2878 15.8848 11.8926 15.8841C14.8665 15.8841 17.2852 13.889 17.2852 11.4421C17.2852 8.99516 14.8665 7 11.8926 7ZM9.5398 12.1761C9.4002 12.1761 9.26373 12.1347 9.14766 12.0572C9.03159 11.9796 8.94112 11.8694 8.88769 11.7404C8.83427 11.6114 8.82029 11.4695 8.84753 11.3326C8.87476 11.1957 8.94199 11.0699 9.0407 10.9712C9.13941 10.8725 9.26518 10.8053 9.4021 10.778C9.53902 10.7508 9.68094 10.7648 9.80991 10.8182C9.93889 10.8716 10.0491 10.9621 10.1267 11.0782C10.2042 11.1942 10.2456 11.3307 10.2456 11.4703C10.2456 11.563 10.2274 11.6548 10.1919 11.7404C10.1564 11.826 10.1044 11.9039 10.0389 11.9694C9.97336 12.0349 9.89555 12.0869 9.80991 12.1224C9.72428 12.1579 9.63249 12.1761 9.5398 12.1761ZM11.8926 10.7645C12.0322 10.7645 12.1687 10.8059 12.2847 10.8834C12.4008 10.961 12.4913 11.0712 12.5447 11.2002C12.5981 11.3292 12.6121 11.4711 12.5849 11.608C12.5576 11.7449 12.4904 11.8707 12.3917 11.9694C12.293 12.0681 12.1672 12.1353 12.0303 12.1626C11.8934 12.1898 11.7515 12.1758 11.6225 12.1224C11.4935 12.069 11.3833 11.9785 11.3057 11.8624C11.2282 11.7464 11.1868 11.6099 11.1868 11.4703C11.1868 11.2831 11.2611 11.1036 11.3935 10.9712C11.5259 10.8388 11.7054 10.7645 11.8926 10.7645ZM14.2454 12.1761C14.1058 12.1761 13.9693 12.1347 13.8532 12.0572C13.7372 11.9796 13.6467 11.8694 13.5933 11.7404C13.5398 11.6114 13.5259 11.4695 13.5531 11.3326C13.5803 11.1957 13.6476 11.0699 13.7463 10.9712C13.845 10.8725 13.9708 10.8053 14.1077 10.778C14.2446 10.7508 14.3865 10.7648 14.5155 10.8182C14.6445 10.8716 14.7547 10.9621 14.8323 11.0782C14.9098 11.1942 14.9512 11.3307 14.9512 11.4703C14.9512 11.563 14.933 11.6548 14.8975 11.7404C14.862 11.826 14.81 11.9039 14.7445 11.9694C14.6789 12.0349 14.6011 12.0869 14.5155 12.1224C14.4299 12.1579 14.3381 12.1761 14.2454 12.1761Z" fill="white"/>
</svg>
