<svg xmlns="http://www.w3.org/2000/svg" viewBox="0 0 59 59" style="enable-background:new 0 0 59 59" xml:space="preserve">
  <path style="fill:#2280CE" d="m1 58 4.988-14.963A28.359 28.359 0 0 1 2 28.5C2 12.76 14.76 0 30.5 0S59 12.76 59 28.5 46.24 57 30.5 57a28.373 28.373 0 0 1-13.26-3.273L1 58z"/>
	<path style="fill:#2280CE" d="M28.5 31c3.987 0 7.74.994 11.028 2.747 5.212 2.779 11.588-.748 12.31-6.611.208-1.688.219-3.438.009-5.227-1.156-9.825-9.097-17.706-18.932-18.777C19.959 1.72 9 11.83 9 24.5v.138c.037 5.802 5.949 9.804 11.394 7.799A23.444 23.444 0 0 1 28.5 31z"/>
	<circle style="fill:#fff" cx="17" cy="29" r="3"/>
	<circle style="fill:#fff" cx="30" cy="29" r="3"/>
	<circle style="fill:#fff" cx="43" cy="29" r="3"/>
	<path style="fill:#2280CE" d="M25.976 51.783a1 1 0 0 0-1.193-.76l-7.76 1.727c-.007.002-.012.007-.02.009l-.017.001-14.453 3.803 4.403-13.209a1 1 0 1 0-1.897-.633L.051 57.684a1 1 0 0 0 1.203 1.283l16.203-4.264 7.76-1.727a1 1 0 0 0 .759-1.193z"/>
</svg>
