<svg width="24" height="24" viewBox="0 0 24 24" fill="none" xmlns="http://www.w3.org/2000/svg">
<g clip-path="url(#clip0_9489_52619)">
<path d="M12 24C18.6274 24 24 18.6274 24 12C24 5.37258 18.6274 0 12 0C5.37258 0 0 5.37258 0 12C0 18.6274 5.37258 24 12 24Z" fill="#303030"/>
<path d="M18.5038 12.0898C18.5058 12.2287 18.4886 12.3673 18.4521 12.5014C18.4156 12.6355 18.3603 12.764 18.2878 12.8826C18.2156 13.0012 18.1269 13.1091 18.0245 13.2032C17.9221 13.2972 17.8071 13.3763 17.6826 13.4381C17.6854 13.4751 17.6877 13.5124 17.689 13.5496C17.692 13.6239 17.692 13.6983 17.689 13.7726C17.6877 13.8099 17.6854 13.8472 17.6826 13.8842C17.6826 16.155 15.0367 18 11.7724 18C8.50814 18 5.86224 16.155 5.86224 13.8842C5.85945 13.8472 5.85717 13.8099 5.8559 13.7726C5.85285 13.6983 5.85285 13.6239 5.8559 13.5496C5.85717 13.5124 5.85945 13.4751 5.86224 13.4381C5.66728 13.3485 5.49413 13.2176 5.35475 13.0544C5.21538 12.8913 5.11311 12.6998 5.05504 12.4933C4.99706 12.2866 4.98471 12.0698 5.01884 11.858C5.05298 11.6461 5.13278 11.4441 5.25272 11.2661C5.37255 11.0882 5.52967 10.9384 5.71318 10.8273C5.89668 10.7161 6.10217 10.6462 6.31539 10.6224C6.52864 10.5985 6.74453 10.6212 6.94811 10.6891C7.15169 10.7569 7.33809 10.8682 7.49439 11.0152C7.78453 10.8186 8.08852 10.6432 8.40398 10.4904C8.71951 10.3378 9.04568 10.208 9.37997 10.1026C9.71426 9.99716 10.0559 9.91632 10.4018 9.86031C10.7478 9.8043 11.0975 9.77363 11.448 9.76831L12.1982 6.25058C12.2066 6.20977 12.223 6.17125 12.2466 6.13678C12.2699 6.10257 12.3001 6.07317 12.3348 6.05061C12.3698 6.02806 12.4088 6.0126 12.4499 6.005C12.4907 5.99765 12.5327 5.99841 12.5733 6.00728L15.057 6.50402C15.3076 6.07342 15.8338 5.88892 16.2983 6.06836C16.7629 6.24779 17.0285 6.73819 16.9246 7.2253C16.8209 7.71241 16.3784 8.05202 15.8812 8.02642C15.3837 8.00083 14.9784 7.61763 14.9252 7.12241L12.7558 6.66622L12.0968 9.82913C12.443 9.83648 12.7885 9.86892 13.1301 9.92595C13.8142 10.04 14.4783 10.2522 15.1019 10.556C15.4133 10.7076 15.7134 10.8814 15.9998 11.0761C16.2057 10.8783 16.4645 10.7444 16.7449 10.6906C17.0253 10.6365 17.3153 10.6648 17.58 10.7719C17.8447 10.879 18.0727 11.0604 18.2366 11.2943C18.4006 11.5281 18.4934 11.8044 18.5038 12.0898ZM8.44326 13.4916C8.49445 13.6145 8.56897 13.7263 8.66324 13.8203C8.75727 13.9146 8.86904 13.9891 8.99195 14.0403C9.11499 14.0912 9.24683 14.1173 9.37997 14.1173C9.79003 14.1173 10.1595 13.8702 10.3167 13.4916C10.4736 13.1127 10.3866 12.6768 10.0967 12.3868C9.80676 12.0969 9.37085 12.01 8.99195 12.1669C8.61332 12.324 8.36621 12.6935 8.36621 13.1036C8.36621 13.2366 8.39232 13.3684 8.44326 13.4916ZM14.2495 15.9251C14.3015 15.8744 14.3312 15.8052 14.3322 15.7327C14.3332 15.66 14.305 15.59 14.2544 15.5381C14.2037 15.4861 14.1345 15.4565 14.062 15.4555C13.9893 15.4545 13.9193 15.4826 13.8608 15.5264C13.7083 15.6358 13.5469 15.732 13.3782 15.8141C13.2095 15.8962 13.0342 15.964 12.8541 16.0166C12.6742 16.069 12.4899 16.1063 12.3036 16.1278C12.1171 16.1494 11.9293 16.155 11.742 16.1448C11.555 16.1532 11.3674 16.1456 11.1817 16.1223C10.9959 16.0992 10.8124 16.0602 10.6332 16.0057C10.4538 15.9515 10.2797 15.882 10.1122 15.7984C9.94463 15.7147 9.78446 15.6169 9.63341 15.5062C9.58095 15.4631 9.51429 15.441 9.44637 15.4443C9.37845 15.4476 9.31433 15.4763 9.26618 15.5242C9.21828 15.5723 9.18964 15.6364 9.18634 15.7044C9.18305 15.7723 9.2051 15.8389 9.24818 15.8914C9.42635 16.0257 9.61567 16.1443 9.81411 16.2462C10.0126 16.3481 10.2196 16.4325 10.4325 16.4989C10.6454 16.5653 10.8636 16.6132 11.0849 16.6423C11.3061 16.6712 11.5294 16.6811 11.7522 16.672C11.9749 16.6811 12.1982 16.6712 12.4195 16.6423C12.8626 16.584 13.2924 16.4501 13.6902 16.2462C13.8886 16.1443 14.078 16.0257 14.2561 15.8914L14.2495 15.9251ZM14.0635 14.1984C14.2009 14.1999 14.3372 14.1733 14.4642 14.1206C14.5912 14.0676 14.706 13.9896 14.8018 13.891C14.8976 13.7924 14.9721 13.6753 15.0213 13.5468C15.0705 13.4185 15.093 13.2815 15.0874 13.1441C15.0874 12.734 14.8403 12.3645 14.4617 12.2074C14.0828 12.0505 13.6469 12.1375 13.3569 12.4274C13.067 12.7173 12.9801 13.1532 13.1369 13.5321C13.2941 13.9108 13.6636 14.1579 14.0737 14.1579L14.0635 14.1984Z" fill="white"/>
</g>
<defs>
<clipPath id="clip0_9489_52619">
<rect width="24" height="24" fill="white"/>
</clipPath>
</defs>
</svg>
