<svg width="24" height="24" viewBox="0 0 24 24" fill="none" xmlns="http://www.w3.org/2000/svg">
<path d="M12 24C18.6274 24 24 18.6274 24 12C24 5.37259 18.6274 0 12 0C5.37259 0 0 5.37259 0 12C0 18.6274 5.37259 24 12 24Z" fill="#303030"/>
<path d="M6.7357 11.3212C6.7357 11.3212 12.043 9.14305 13.8837 8.37608C14.5893 8.06931 16.9822 7.08759 16.9822 7.08759C16.9822 7.08759 18.0866 6.65812 17.9945 7.70116C17.9639 8.13067 17.7184 9.63387 17.473 11.2598C17.1049 13.5607 16.7061 16.0763 16.7061 16.0763C16.7061 16.0763 16.6447 16.7819 16.1232 16.9046C15.6017 17.0273 14.7427 16.4751 14.5893 16.3524C14.4665 16.2604 12.2884 14.8798 11.4908 14.2049C11.276 14.0209 11.0306 13.6527 11.5215 13.2232C12.6259 12.2108 13.945 10.9531 14.7427 10.1554C15.1108 9.78727 15.4789 8.92829 13.945 9.97133C11.7669 11.4746 9.61944 12.8858 9.61944 12.8858C9.61944 12.8858 9.12858 13.1925 8.20825 12.9164C7.28787 12.6404 6.21414 12.2722 6.21414 12.2722C6.21414 12.2722 5.47791 11.812 6.7357 11.3212Z" fill="white"/>
</svg>
