<svg width="24" height="24" viewBox="0 0 24 24" fill="none" xmlns="http://www.w3.org/2000/svg">
<circle cx="12" cy="12" r="12" fill="#323232"/>
<path d="M16.7789 9.3513C17.2485 9.00888 17.6712 8.59797 18 8.11858C17.5773 8.3012 17.0841 8.43817 16.591 8.48383C17.1076 8.18706 17.4834 7.7305 17.6712 7.1598C17.2016 7.43373 16.6614 7.63919 16.1213 7.75333C15.6517 7.27394 15.0176 7 14.3131 7C12.9511 7 11.8474 8.07292 11.8474 9.39696C11.8474 9.57958 11.8708 9.76221 11.9178 9.94483C9.87476 9.83069 8.04305 8.87191 6.82192 7.43373C6.61057 7.77616 6.49315 8.18706 6.49315 8.64363C6.49315 9.46544 6.91585 10.1959 7.59687 10.6297C7.19765 10.6068 6.79843 10.5155 6.46967 10.3329V10.3557C6.46967 11.52 7.31507 12.4788 8.44227 12.707C8.2544 12.7527 8.01957 12.7984 7.80822 12.7984C7.64384 12.7984 7.50294 12.7755 7.33855 12.7527C7.64384 13.7115 8.55969 14.3963 9.63992 14.4192C8.79452 15.0583 7.73777 15.4464 6.58708 15.4464C6.37573 15.4464 6.18787 15.4236 6 15.4008C7.08023 16.0856 8.37182 16.4737 9.78082 16.4737C14.3131 16.4737 16.7789 12.844 16.7789 9.67089C16.7789 9.55675 16.7789 9.46544 16.7789 9.3513Z" fill="white"/>
</svg>
