<svg width="24" height="24" viewBox="0 0 24 24" fill="none" xmlns="http://www.w3.org/2000/svg">
<rect width="24" height="24" rx="4" fill="#EDF0F4"/>
<path fill-rule="evenodd" clip-rule="evenodd" d="M6.84055 6.5C6.59138 5.2 7.58807 4 8.88376 4C10.0299 4 10.9768 4.95 10.9768 6.1V8.7C11.2758 8.7 11.5748 8.65 11.8738 8.65C12.1728 8.65 12.422 8.65 12.721 8.7V6.1C12.721 4.95 13.6679 4 14.814 4C16.1097 4 17.1064 5.2 16.9071 6.5L16.3589 9.55C18.3024 10.4 19.7975 11.9 19.7975 13.75V14.9C19.7975 16.45 18.8008 17.75 17.3556 18.6C15.9104 19.5 14.0167 20 11.8738 20C9.73094 20 7.83724 19.5 6.39205 18.6C4.99669 17.75 4 16.45 4 14.9V13.75C4 11.9 5.44519 10.4 7.38873 9.55L6.84055 6.5ZM15.6114 9.95L16.2592 6.35C16.4087 5.45 15.7609 4.6 14.814 4.6C14.0167 4.6 13.3689 5.25 13.3689 6.05V9.35C13.1695 9.3 12.9203 9.3 12.721 9.3C12.422 9.3 12.1728 9.25 11.8738 9.25C11.5748 9.25 11.2758 9.25 10.9768 9.3C10.7775 9.3 10.5283 9.35 10.329 9.35V6.1C10.329 5.3 9.68111 4.65 8.88377 4.65C7.98675 4.65 7.28907 5.5 7.48841 6.4L8.13625 10C6.04321 10.8 4.64785 12.2 4.64785 13.8V14.95C4.64785 17.4 7.88708 19.4 11.8738 19.4C15.8606 19.4 19.0998 17.4 19.0998 14.95V13.8C19.1496 12.15 17.7543 10.75 15.6114 9.95Z" fill="#633001"/>
<path d="M19.1397 14.8861C19.1397 17.3671 15.8825 19.3924 11.8736 19.3924C7.86475 19.3924 4.60754 17.3671 4.60754 14.8861V13.7215H19.1898V14.8861H19.1397Z" fill="#FEDC90"/>
<path fill-rule="evenodd" clip-rule="evenodd" d="M7.42343 6.3537C7.2223 5.45571 7.92627 4.6076 8.83138 4.6076C9.63592 4.6076 10.2896 5.25615 10.2896 6.05437V9.34699C10.7924 9.29711 11.2953 9.24722 11.8484 9.24722C12.3512 9.24722 12.8541 9.29711 13.3569 9.34699V6.05437C13.3569 5.25615 14.0106 4.6076 14.8151 4.6076C15.7202 4.6076 16.4242 5.45571 16.2734 6.3537L15.6197 9.94565C17.7316 10.7439 19.1898 12.1407 19.1898 13.7372C19.1898 16.1817 15.9214 18.1772 11.8987 18.1772C7.87599 18.1772 4.60754 16.1817 4.60754 13.7372C4.60754 12.1407 6.01549 10.7439 8.1274 9.94565L7.42343 6.3537Z" fill="#D1884F"/>
<path d="M9.87343 13.519C9.87343 14.1772 9.519 14.7342 9.0633 14.7342C8.6076 14.7342 8.25317 14.1772 8.25317 13.519C8.25317 12.8607 8.6076 12.3038 9.0633 12.3038C9.519 12.3038 9.87343 12.8607 9.87343 13.519Z" fill="#633001"/>
<path d="M15.5443 13.519C15.5443 14.1772 15.1899 14.7342 14.7342 14.7342C14.2785 14.7342 13.9241 14.1772 13.9241 13.519C13.9241 12.8607 14.2785 12.3038 14.7342 12.3038C15.1899 12.3038 15.5443 12.8607 15.5443 13.519Z" fill="#633001"/>
</svg>
