<svg width="24" height="24" viewBox="0 0 24 24" fill="none" xmlns="http://www.w3.org/2000/svg">
<rect width="24" height="24" rx="4" fill="black"/>
<path fill-rule="evenodd" clip-rule="evenodd" d="M5.04941 9.74458C4.92838 10.5714 5.07087 11.4223 5.21886 12.2399C5.27588 12.3705 5.40084 12.4584 5.55485 12.5147C5.23897 13.2226 5.06533 13.9944 5.06533 14.8023C5.06533 18.2238 8.18573 21 12.0345 21C15.8833 21 19.0059 18.2302 19.0059 14.8023C19.0059 13.9859 18.8288 13.2065 18.5068 12.4929C18.6356 12.4366 18.7384 12.3547 18.7887 12.2399C18.9367 11.4223 19.0786 10.5714 18.9576 9.74458C18.8443 8.63503 18.4855 8.29632 17.4084 8.5807C16.8604 8.71577 16.1381 9.05911 15.5827 9.46294C14.5431 8.91536 13.33 8.60113 12.0345 8.60113C10.7242 8.60113 9.49836 8.92292 8.45123 9.48252C7.89253 9.07021 7.15554 8.71794 6.59916 8.5807C5.52144 8.29632 5.16329 8.63503 5.04941 9.74458ZM9.10721 14.6365C8.29025 14.254 6.894 14.3509 6.894 14.3509C6.894 14.3509 6.95947 15.746 7.76103 16.2196C8.71166 16.7808 10.4793 16.5029 10.4793 16.5029C10.4793 16.5029 10.3291 15.2053 9.10721 14.6336V14.6365ZM13.6464 16.5052C13.6464 16.5052 15.414 16.7832 16.3647 16.2219C17.1662 15.7483 17.2317 14.3533 17.2317 14.3533C17.2317 14.3533 15.8354 14.2563 15.0185 14.6389C13.7966 15.2053 13.6464 16.4999 13.6464 16.4999V16.5052ZM11.6857 17.4886C11.6857 17.5914 11.8656 17.6749 12.0873 17.6749C12.309 17.6749 12.4889 17.5914 12.4889 17.4886C12.4889 17.3858 12.309 17.3029 12.0873 17.3029C11.8656 17.3029 11.6857 17.3829 11.6857 17.4886Z" fill="#F2F4F8"/>
<path fill-rule="evenodd" clip-rule="evenodd" d="M19.9769 16.6295C19.3246 16.3621 18.6318 16.2236 17.9326 16.2207H17.9337C17.7565 16.2207 17.7565 15.9287 17.9337 15.9287C18.6577 15.9312 19.3754 16.0739 20.0512 16.3498C20.0854 16.3609 20.1143 16.3855 20.132 16.4185C20.1497 16.4515 20.1548 16.4904 20.1463 16.5273C20.1364 16.5646 20.1131 16.5962 20.0814 16.6153C20.0497 16.6344 20.0121 16.6395 19.9769 16.6295ZM4.06354 16.3562C4.73959 16.0804 5.45734 15.9377 6.18159 15.9351V15.9369C6.35874 15.9369 6.35818 16.2289 6.18159 16.2289C5.48217 16.2315 4.78911 16.3701 4.13671 16.6376C4.10156 16.6475 4.06416 16.6424 4.03257 16.6233C4.00097 16.6041 3.97772 16.5726 3.96782 16.5354C3.95907 16.4982 3.96412 16.4589 3.98193 16.4255C3.99975 16.3921 4.02897 16.3673 4.06354 16.3562ZM5.46587 17.193C5.80419 17.0787 6.15609 17.016 6.51102 17.0067C6.68718 17.0078 6.68686 17.2987 6.51004 17.2987C6.18631 17.3077 5.86538 17.3649 5.55665 17.4686C5.26947 17.558 4.94104 17.6841 4.73144 17.8903C4.6016 18.0181 4.40685 17.812 4.53724 17.6841C4.79195 17.4342 5.14239 17.2964 5.46587 17.193ZM6.51102 17.0067H6.51114H6.51004H6.51102ZM6.82469 17.7361C6.54882 17.8614 6.28359 18.0117 6.03195 18.1852C5.77775 18.3515 5.55407 18.5654 5.37177 18.8164C5.35348 18.8498 5.34836 18.8896 5.35753 18.927C5.3667 18.9644 5.38942 18.9964 5.42074 19.0161C5.45246 19.0348 5.48975 19.0399 5.52487 19.0302C5.56 19.0205 5.59027 18.9969 5.60944 18.9642C5.76403 18.7376 5.98573 18.5618 6.20524 18.4117C6.44618 18.2494 6.69894 18.1079 6.96113 17.9884C6.99243 17.9687 7.01517 17.9367 7.02443 17.8993C7.0337 17.8619 7.02874 17.8222 7.01064 17.7886C6.99158 17.756 6.96144 17.7323 6.92644 17.7226C6.89144 17.7128 6.85423 17.7176 6.8225 17.7361H6.82469ZM17.6031 17.2928C17.9269 17.3014 18.2478 17.3584 18.5565 17.4622C18.716 17.5104 18.8718 17.5715 19.0225 17.645C19.1525 17.7053 19.2732 17.786 19.3806 17.8844C19.5105 18.0118 19.7052 17.8062 19.5754 17.6777C19.3223 17.4284 18.9741 17.2899 18.6484 17.1866C18.31 17.0722 17.9581 17.0097 17.6031 17.0009C17.426 17.0009 17.4254 17.2928 17.6031 17.2928ZM17.9068 18.403C17.6688 18.2468 17.42 18.1102 17.1624 17.9942V17.9913C17.1313 17.9715 17.1086 17.9395 17.0994 17.9022C17.0901 17.8649 17.095 17.8251 17.1129 17.7916C17.1323 17.7591 17.1626 17.7356 17.1976 17.726C17.2326 17.7163 17.2698 17.7212 17.3016 17.7396C17.8375 17.9878 18.4014 18.3067 18.7518 18.82C18.7699 18.8534 18.775 18.8931 18.7659 18.9305C18.7567 18.9678 18.734 18.9998 18.7028 19.0197C18.6712 19.0383 18.6339 19.0432 18.5989 19.0334C18.5638 19.0236 18.5336 18.9999 18.5147 18.9671C18.3563 18.7353 18.1323 18.5554 17.9068 18.403Z" fill="#F2F4F8"/>
<path d="M3.01823 12.9836C3.14531 12.7734 4.2621 12.141 5.64405 11.7655C5.94233 10.8664 6.31035 9.99497 6.74434 9.16042C6.73883 9.16042 7.84957 7.04411 7.84462 7.04294C7.5261 6.88908 7.22026 6.70722 6.93028 6.49927C6.88119 6.45917 6.83669 6.41312 6.7977 6.36203C6.76827 6.31048 6.75303 6.2512 6.75369 6.19093C6.75369 6.14188 6.81916 6.05428 6.84831 6.01574C6.92271 5.92285 7.00483 5.83724 7.09367 5.75996C7.30545 5.57589 7.52797 5.4062 7.7599 5.25191C7.86993 5.17482 7.98435 5.09949 8.09713 5.02357C8.88934 4.48807 9.32338 4.08513 10.0491 3.64248C10.7422 3.22086 11.0789 2.96099 11.8826 3.00479C12.8927 3.00479 15.4035 6.39999 16.5358 8.14957C17.2146 9.20069 18.1256 11.0933 18.4613 11.8052C18.5415 11.8269 18.6142 11.8473 18.6813 11.8683C19.7112 12.1965 20.7212 12.6777 20.9682 12.9836C21.1883 13.2558 20.2266 13.3773 19.2787 13.5524C18.3309 13.7277 15.1153 13.8146 12.0252 13.8368C8.93502 13.859 5.32827 13.7493 4.54322 13.6179C3.75817 13.4865 2.86034 13.2459 3.01823 12.9836Z" fill="#6665DD"/>
<path d="M17.5997 10.0511C17.5997 10.0511 15.5642 9.50977 11.9778 9.50977C8.12683 9.50977 6.2723 10.1405 6.2723 10.1405C6.2723 10.1405 6.05224 10.5842 5.95652 10.8412C5.8608 11.0981 5.64404 11.7656 5.64404 11.7656C5.64404 11.7656 8.44592 11.2331 12.0318 11.2331C14.1909 11.2425 16.346 11.4359 18.4761 11.8112C18.4761 11.8112 18.151 11.0035 17.9562 10.659C17.7614 10.3144 17.5997 10.0511 17.5997 10.0511Z" fill="#FF99A5"/>
<path d="M5.4851 5.48374C5.71836 5.44753 6.03524 6.20553 6.03524 6.20553C6.03524 6.20553 6.76913 5.99588 6.88355 6.20553C6.99798 6.41517 6.36752 6.91855 6.36752 6.91855C6.36752 6.91855 6.74822 7.62925 6.62774 7.77699C6.50726 7.92474 5.82839 7.47625 5.82839 7.47625C5.82839 7.47625 5.3107 8.09525 5.14181 8.00182C4.97291 7.90839 5.16437 7.10192 5.16437 7.10192C5.16437 7.10192 4.43213 6.77139 4.48219 6.57518C4.53225 6.37897 5.2953 6.3194 5.2953 6.3194C5.2953 6.3194 5.25239 5.51995 5.4851 5.48374Z" fill="#FFE600"/>
</svg>
