<svg width="24" height="24" viewBox="0 0 24 24" fill="none" xmlns="http://www.w3.org/2000/svg">
<rect width="24" height="24" rx="4" fill="#FFD9EC"/>
<path d="M9.23063 5.85938C9.03239 5.83107 9.02295 5.82163 9.11735 5.81219C9.29671 5.78387 9.71205 5.82163 10.0047 5.8877C10.6843 6.04818 11.2979 6.46352 11.9493 7.19038L12.1192 7.38861L12.3646 7.35086C13.4124 7.18094 14.4885 7.3131 15.3853 7.72844C15.6307 7.84172 16.0178 8.06827 16.065 8.12491C16.0838 8.14379 16.1122 8.2665 16.131 8.38922C16.1971 8.83289 16.1688 9.16327 16.0272 9.41815C15.9517 9.55974 15.9517 9.5975 15.9989 9.72022C16.0366 9.81461 16.1499 9.88069 16.2538 9.88069C16.4803 9.88069 16.7163 9.52198 16.8296 9.02168L16.8768 8.82345L16.9617 8.91784C17.4432 9.4559 17.8207 10.2016 17.8774 10.7303L17.8963 10.8719L17.8113 10.7491C17.6697 10.532 17.5376 10.3904 17.3582 10.2677C17.0372 10.0506 16.6974 9.98453 15.8006 9.93733C14.9888 9.89013 14.5263 9.82405 14.0732 9.67302C13.2991 9.41815 12.9027 9.08776 11.987 7.87004C11.5811 7.33198 11.3262 7.03935 11.0714 6.79391C10.5144 6.25585 9.95748 5.97266 9.23063 5.85938Z" fill="#FF007A"/>
<path d="M16.2632 7.05823C16.2821 6.69952 16.3293 6.46352 16.4331 6.24641C16.4709 6.16145 16.5086 6.08594 16.5181 6.08594C16.5275 6.08594 16.5086 6.15202 16.4803 6.22753C16.4048 6.43521 16.3953 6.72784 16.4425 7.05823C16.5086 7.48301 16.5369 7.53965 16.99 8.00219C17.1977 8.21931 17.4431 8.49306 17.5375 8.60633L17.698 8.81401L17.5375 8.66297C17.3393 8.47418 16.8862 8.11547 16.7824 8.06827C16.7163 8.03051 16.7069 8.03051 16.6597 8.07771C16.6219 8.11547 16.6125 8.17211 16.6125 8.44586C16.603 8.87064 16.5464 9.13496 16.4048 9.40871C16.3293 9.5503 16.3198 9.52198 16.3859 9.36151C16.4331 9.23879 16.4425 9.18215 16.4425 8.77625C16.4425 7.955 16.3481 7.75676 15.7723 7.42637C15.6307 7.34142 15.3853 7.2187 15.2437 7.15262C15.0927 7.08654 14.9794 7.02991 14.9888 7.02991C15.0077 7.01103 15.5647 7.1715 15.7818 7.2659C16.1122 7.39805 16.1688 7.40749 16.2066 7.39805C16.2349 7.36973 16.2537 7.29422 16.2632 7.05823Z" fill="#FF007A"/>
<path d="M9.61757 8.4647C9.2211 7.9172 8.96623 7.06763 9.02287 6.43517L9.04175 6.23694L9.13615 6.25582C9.30606 6.28414 9.59869 6.39741 9.74029 6.48237C10.1179 6.70892 10.2878 7.02043 10.4483 7.79449C10.4955 8.02104 10.5615 8.28535 10.5899 8.37031C10.6371 8.5119 10.8164 8.84229 10.9674 9.04996C11.0713 9.201 11.0052 9.27652 10.7692 9.25764C10.4105 9.21988 9.92908 8.88949 9.61757 8.4647Z" fill="#FF007A"/>
<path d="M15.7818 12.571C13.9127 11.8158 13.252 11.1645 13.252 10.06C13.252 9.89955 13.2614 9.7674 13.2614 9.7674C13.2708 9.7674 13.3369 9.82403 13.4219 9.89011C13.7995 10.1922 14.2242 10.3243 15.4042 10.4943C16.0933 10.5981 16.4898 10.6736 16.8485 10.7963C17.9907 11.1739 18.6987 11.948 18.8686 12.9958C18.9158 13.2978 18.8874 13.8737 18.8119 14.1757C18.7459 14.4117 18.5571 14.8459 18.5099 14.8554C18.5004 14.8554 18.4815 14.8082 18.4815 14.7327C18.4627 14.3362 18.2644 13.9586 17.934 13.666C17.5376 13.3262 17.0278 13.0713 15.7818 12.571Z" fill="#FF007A"/>
<path d="M14.4601 12.8825C14.4412 12.7409 14.394 12.5615 14.3657 12.486L14.3185 12.3444L14.4035 12.4483C14.5262 12.5899 14.6206 12.7598 14.7056 12.9958C14.7716 13.1751 14.7716 13.2318 14.7716 13.5244C14.7716 13.8076 14.7622 13.8737 14.7056 14.0341C14.6112 14.289 14.4979 14.4684 14.3091 14.6666C13.9693 15.0159 13.5256 15.2046 12.8931 15.2896C12.7799 15.299 12.4589 15.3274 12.1757 15.3462C11.4677 15.384 10.9958 15.4595 10.571 15.6106C10.5143 15.6294 10.4577 15.6483 10.4483 15.6389C10.4294 15.62 10.722 15.4501 10.958 15.3368C11.2884 15.1763 11.6282 15.0914 12.374 14.9592C12.7421 14.9026 13.1197 14.8271 13.2141 14.7893C14.1486 14.4967 14.6112 13.7698 14.4601 12.8825Z" fill="#FF007A"/>
<path d="M15.3193 14.4023C15.0738 13.8643 15.0172 13.3545 15.1493 12.8731C15.1682 12.8259 15.1871 12.7787 15.206 12.7787C15.2249 12.7787 15.2815 12.807 15.3381 12.8448C15.4514 12.9203 15.6874 13.0524 16.2915 13.3828C17.0562 13.7982 17.4904 14.1191 17.7924 14.4873C18.0568 14.8082 18.2172 15.1764 18.2928 15.6295C18.34 15.8843 18.3116 16.4979 18.2456 16.7528C18.0379 17.5552 17.5659 18.1971 16.8768 18.5652C16.773 18.6219 16.688 18.6596 16.6786 18.6596C16.6691 18.6596 16.7069 18.5652 16.7635 18.4519C16.9901 17.9705 17.0184 17.508 16.8485 16.9888C16.7446 16.6678 16.5275 16.2808 16.0933 15.6295C15.5741 14.8743 15.4514 14.6761 15.3193 14.4023Z" fill="#FF007A"/>
<path d="M8.28661 17.2909C8.98515 16.7056 9.84416 16.2903 10.6371 16.1581C10.9769 16.1015 11.5433 16.1203 11.8548 16.2053C12.3551 16.3375 12.8082 16.6207 13.0442 16.9699C13.2708 17.3097 13.3746 17.6024 13.4784 18.2537C13.5162 18.5086 13.5634 18.7729 13.5728 18.8295C13.6484 19.1694 13.7994 19.4337 13.9882 19.5753C14.2808 19.7924 14.7906 19.8018 15.2909 19.613C15.3758 19.5847 15.4513 19.5564 15.4513 19.5658C15.4702 19.5847 15.2153 19.7546 15.0454 19.8396C14.8094 19.9623 14.6206 20.0001 14.3658 20.0001C13.9127 20.0001 13.5256 19.7641 13.2141 19.2921C13.148 19.1977 13.0159 18.9239 12.9026 18.6691C12.5722 17.9044 12.4023 17.6779 12.0153 17.423C11.6755 17.2059 11.2412 17.1587 10.9108 17.3192C10.4766 17.5269 10.3633 18.0838 10.6654 18.4236C10.7881 18.5652 11.0147 18.6785 11.2035 18.7068C11.5527 18.754 11.8548 18.4803 11.8548 18.131C11.8548 17.9044 11.7699 17.7723 11.5433 17.6685C11.2412 17.5363 10.9108 17.6873 10.9203 17.98C10.9203 18.1027 10.9769 18.1782 11.0996 18.2348C11.1752 18.2726 11.1752 18.2726 11.1185 18.2632C10.8448 18.2065 10.7787 17.8667 10.9958 17.6496C11.2601 17.3853 11.8171 17.4985 12.0058 17.8667C12.0814 18.0177 12.0908 18.3198 12.0247 18.5086C11.8643 18.9239 11.4111 19.141 10.9486 19.0183C10.6371 18.9334 10.5049 18.8484 10.1274 18.4614C9.46657 17.7817 9.2117 17.6496 8.26773 17.508L8.08838 17.4797L8.28661 17.2909Z" fill="#FF007A"/>
<path fill-rule="evenodd" clip-rule="evenodd" d="M3.32137 2.10238C5.52082 4.77381 8.90966 8.92727 9.07958 9.15382C9.22117 9.34262 9.16453 9.52197 8.92854 9.65413C8.79639 9.72964 8.52264 9.80516 8.39048 9.80516C8.23945 9.80516 8.06009 9.72964 7.93738 9.60693C7.85242 9.52197 7.48427 8.98391 6.65358 7.69067C6.02112 6.69951 5.48306 5.87825 5.47362 5.86881C5.43586 5.84993 5.43586 5.84993 6.5875 7.90778C7.31436 9.20102 7.55035 9.66357 7.55035 9.72021C7.55035 9.84292 7.51259 9.909 7.36155 10.0789C7.10668 10.3621 6.99341 10.6831 6.90845 11.3533C6.81405 12.099 6.55918 12.6276 5.83233 13.5244C5.40754 14.053 5.34146 14.1474 5.23763 14.3645C5.10547 14.6288 5.06771 14.7799 5.04883 15.1197C5.02995 15.4784 5.06771 15.705 5.17155 16.0448C5.26594 16.3469 5.36978 16.5451 5.62465 16.9321C5.84177 17.272 5.97392 17.5268 5.97392 17.6212C5.97392 17.6967 5.9928 17.6967 6.33263 17.6212C7.14444 17.4324 7.81466 17.1115 8.18281 16.715C8.40936 16.4696 8.466 16.3374 8.466 15.9976C8.466 15.7805 8.45656 15.7333 8.39992 15.6011C8.30552 15.3935 8.12617 15.2235 7.73914 14.9592C7.2294 14.61 7.01229 14.3268 6.95565 13.9492C6.90845 13.6282 6.96509 13.4111 7.24828 12.8164C7.54091 12.2028 7.61643 11.948 7.66362 11.325C7.69194 10.9285 7.73914 10.768 7.85242 10.6453C7.97513 10.5131 8.07897 10.4659 8.3716 10.4282C8.85302 10.3621 9.16453 10.2394 9.40997 10.0034C9.62708 9.80516 9.72148 9.60693 9.73092 9.3143L9.74036 9.09719L9.61764 8.96503C9.17397 8.45529 3.02874 1.69647 3.00042 1.69647C2.99098 1.69647 3.14202 1.87583 3.32137 2.10238ZM6.2193 15.5256C6.32314 15.3462 6.2665 15.1197 6.09659 15.0064C5.93611 14.9026 5.69068 14.9498 5.69068 15.0914C5.69068 15.1291 5.70956 15.1669 5.7662 15.1857C5.85115 15.2329 5.86059 15.2801 5.79452 15.384C5.72844 15.4878 5.72844 15.5822 5.8134 15.6483C5.94555 15.7521 6.12491 15.6955 6.2193 15.5256Z" fill="#FF007A"/>
<path fill-rule="evenodd" clip-rule="evenodd" d="M10.0424 10.5603C9.81586 10.6264 9.59875 10.8718 9.53267 11.1172C9.49491 11.2683 9.51379 11.542 9.57987 11.627C9.68371 11.7591 9.7781 11.7969 10.0424 11.7969C10.5616 11.7969 11.0053 11.5704 11.0525 11.2966C11.0997 11.07 10.9014 10.7585 10.6277 10.6169C10.4861 10.5414 10.1935 10.5131 10.0424 10.5603ZM10.6466 11.0323C10.7221 10.919 10.6938 10.7963 10.5522 10.7113C10.2974 10.5509 9.91033 10.683 9.91033 10.9284C9.91033 11.0512 10.1086 11.1833 10.2974 11.1833C10.4201 11.1833 10.59 11.1078 10.6466 11.0323Z" fill="#FF007A"/>
</svg>
