<svg width="24" height="24" viewBox="0 0 24 24" fill="none" xmlns="http://www.w3.org/2000/svg">
<rect width="24" height="24" rx="4" fill="#1A73E8"/>
<path d="M18.9114 7.82419L17.1758 6.0886C17.1179 6.03181 17.04 6 16.9589 6C16.8777 6 16.7998 6.03181 16.7419 6.0886L9.42759 13.4029C9.36966 13.4597 9.29177 13.4915 9.21064 13.4915C9.12952 13.4915 9.05163 13.4597 8.99369 13.4029L7.25809 11.6673C7.20016 11.6105 7.12227 11.5787 7.04114 11.5787C6.96002 11.5787 6.88213 11.6105 6.82419 11.6673L5.0886 13.4029C5.03181 13.4608 5 13.5387 5 13.6199C5 13.701 5.03181 13.7789 5.0886 13.8368L8.99369 17.7419C9.05163 17.7987 9.12952 17.8305 9.21064 17.8305C9.29177 17.8305 9.36966 17.7987 9.42759 17.7419L18.9114 8.25809C18.9682 8.20016 19 8.12227 19 8.04114C19 7.96002 18.9682 7.88213 18.9114 7.82419Z" fill="white"/>
</svg>
