<svg width="17" height="16" viewBox="0 0 17 16" fill="none" xmlns="http://www.w3.org/2000/svg">
<path d="M3.32643 7.61791C3.32641 7.52855 3.34405 7.44008 3.37833 7.35756C3.41261 7.27505 3.46286 7.20012 3.52618 7.13708C3.5895 7.07404 3.66466 7.02413 3.74733 6.99022C3.82999 6.95631 3.91855 6.93907 4.0079 6.93949L5.13771 6.94319C5.31785 6.94319 5.49062 7.01475 5.618 7.14213C5.74538 7.26952 5.81694 7.44228 5.81694 7.62243V11.8946C5.94422 11.8569 6.10745 11.8167 6.28626 11.7748C6.41042 11.7456 6.52106 11.6753 6.60027 11.5753C6.67947 11.4753 6.72258 11.3515 6.72261 11.224V5.92464C6.7226 5.83542 6.74017 5.74708 6.7743 5.66466C6.80844 5.58223 6.85847 5.50734 6.92155 5.44425C6.98463 5.38116 7.05951 5.33112 7.14193 5.29697C7.22435 5.26282 7.31269 5.24524 7.4019 5.24524H8.53395C8.71408 5.24526 8.88683 5.31684 9.01421 5.44421C9.14158 5.57159 9.21315 5.74434 9.21318 5.92447V10.8431C9.21318 10.8431 9.49649 10.7284 9.77267 10.6118C9.87522 10.5685 9.96273 10.4958 10.0243 10.4031C10.0858 10.3103 10.1187 10.2014 10.1188 10.0901V4.22624C10.1188 4.13705 10.1364 4.04872 10.1705 3.96632C10.2046 3.88391 10.2546 3.80903 10.3177 3.74596C10.3808 3.68288 10.4556 3.63285 10.5381 3.59871C10.6205 3.56458 10.7088 3.54701 10.798 3.54701H11.93C12.1102 3.54701 12.2829 3.61857 12.4103 3.74595C12.5377 3.87333 12.6093 4.04609 12.6093 4.22624V9.05478C13.5908 8.34351 14.5855 7.48796 15.3748 6.45927C15.4893 6.30995 15.5651 6.13461 15.5954 5.94888C15.6257 5.76315 15.6095 5.57281 15.5483 5.39485C15.0142 3.83834 14.0124 2.48479 12.6799 1.51927C11.3473 0.553754 9.74902 0.0233994 8.10359 0.000725266C3.66656 -0.0588789 -0.000397469 3.56308 3.83928e-05 8.00065C-0.00431822 9.40484 0.362172 10.7853 1.06245 12.0024C1.15903 12.1689 1.3011 12.3043 1.47199 12.3929C1.64288 12.4814 1.83548 12.5193 2.02718 12.5022C2.24135 12.4833 2.50799 12.4567 2.82497 12.4195C2.96294 12.4038 3.09031 12.3379 3.18283 12.2343C3.27536 12.1308 3.32656 11.9968 3.3267 11.858V7.61791" fill="white"/>
<path d="M3.30084 14.4695C4.49411 15.3375 5.90427 15.8586 7.3753 15.975C8.84633 16.0914 10.3209 15.7986 11.6358 15.1289C12.9508 14.4593 14.0548 13.439 14.8259 12.1808C15.597 10.9227 16.0049 9.47576 16.0047 8.00013C16.0047 7.81593 15.9961 7.63379 15.9838 7.45264C13.0613 11.8113 7.66507 13.8489 3.30078 14.4696" fill="white"/>
</svg>
