<svg width="16" height="16" viewBox="0 0 16 16" fill="none" xmlns="http://www.w3.org/2000/svg">
<g clip-path="url(#clip0_9493_53012)">
<path d="M15 7.0003H4.66663C4.62242 7.0003 4.58003 6.98274 4.54877 6.95148C4.51752 6.92023 4.49996 6.87783 4.49996 6.83363V4.83363C4.50073 4.70121 4.46205 4.57157 4.38885 4.46122C4.31565 4.35087 4.21124 4.26483 4.08895 4.21405C3.96665 4.16327 3.832 4.15006 3.70217 4.17611C3.57234 4.20216 3.45321 4.26628 3.35996 4.3603L0.193293 7.52696C0.130807 7.58894 0.0812108 7.66267 0.047365 7.74391C0.0135192 7.82515 -0.00390625 7.91229 -0.00390625 8.0003C-0.00390625 8.0883 0.0135192 8.17544 0.047365 8.25668C0.0812108 8.33792 0.130807 8.41165 0.193293 8.47363L3.37996 11.6536C3.4417 11.7166 3.51533 11.7667 3.59658 11.8011C3.67783 11.8354 3.76509 11.8533 3.85329 11.8536C4.0301 11.8536 4.19967 11.7834 4.3247 11.6584C4.44972 11.5333 4.51996 11.3638 4.51996 11.187V9.18696C4.51717 9.16505 4.51876 9.1428 4.52465 9.12151C4.53053 9.10022 4.54059 9.08031 4.55424 9.06294C4.56789 9.04558 4.58485 9.03109 4.60414 9.02034C4.62344 9.00958 4.64468 9.00277 4.66663 9.0003H15C15.2652 9.0003 15.5195 8.89494 15.7071 8.7074C15.8946 8.51987 16 8.26551 16 8.0003C16 7.73508 15.8946 7.48073 15.7071 7.29319C15.5195 7.10565 15.2652 7.0003 15 7.0003Z" fill="white"/>
</g>
<defs>
<clipPath id="clip0_9493_53012">
<rect width="16" height="16" fill="white"/>
</clipPath>
</defs>
</svg>
