<svg width="16" height="16" viewBox="0 0 16 16" fill="none" xmlns="http://www.w3.org/2000/svg">
<path d="M9.15465 8.09004C9.14269 8.07881 9.13316 8.06525 9.12664 8.0502C9.12012 8.03514 9.11676 8.01891 9.11676 8.0025C9.11676 7.98609 9.12012 7.96986 9.12664 7.95481C9.13316 7.93975 9.14269 7.92619 9.15465 7.91496L13.7867 3.27787C13.8569 3.20855 13.9126 3.12598 13.9507 3.03496C13.9887 2.94394 14.0083 2.84628 14.0083 2.74763C14.0083 2.64899 13.9887 2.55133 13.9507 2.46031C13.9126 2.36929 13.8569 2.28672 13.7867 2.21739C13.6454 2.07809 13.4549 2 13.2565 2C13.0581 2 12.8676 2.07809 12.7263 2.21739L8.09418 6.84948C8.08251 6.86158 8.06853 6.87121 8.05305 6.87779C8.03758 6.88436 8.02095 6.88775 8.00414 6.88775C7.98733 6.88775 7.97069 6.88436 7.95522 6.87779C7.93975 6.87121 7.92576 6.86158 7.9141 6.84948L3.28201 2.21739C3.14068 2.07809 2.95021 2 2.75177 2C2.55333 2 2.36286 2.07809 2.22153 2.21739C2.15135 2.28672 2.09564 2.36929 2.05761 2.46031C2.01958 2.55133 2 2.64899 2 2.74763C2 2.84628 2.01958 2.94394 2.05761 3.03496C2.09564 3.12598 2.15135 3.20855 2.22153 3.27787L6.85362 7.91496C6.86558 7.92619 6.87512 7.93975 6.88163 7.95481C6.88815 7.96986 6.89151 7.98609 6.89151 8.0025C6.89151 8.01891 6.88815 8.03514 6.88163 8.0502C6.87512 8.06525 6.86558 8.07881 6.85362 8.09004L2.22153 12.7221C2.15135 12.7915 2.09564 12.874 2.05761 12.965C2.01958 13.0561 2 13.1537 2 13.2524C2 13.351 2.01958 13.4487 2.05761 13.5397C2.09564 13.6307 2.15135 13.7133 2.22153 13.7826C2.36286 13.9219 2.55333 14 2.75177 14C2.95021 14 3.14068 13.9219 3.28201 13.7826L7.9141 9.15052C7.92576 9.13842 7.93975 9.12879 7.95522 9.12221C7.97069 9.11564 7.98733 9.11225 8.00414 9.11225C8.02095 9.11225 8.03758 9.11564 8.05305 9.12221C8.06853 9.12879 8.08251 9.13842 8.09418 9.15052L12.7263 13.7826C12.8676 13.9219 13.0581 14 13.2565 14C13.4549 14 13.6454 13.9219 13.7867 13.7826C13.8569 13.7133 13.9126 13.6307 13.9507 13.5397C13.9887 13.4487 14.0083 13.351 14.0083 13.2524C14.0083 13.1537 13.9887 13.0561 13.9507 12.965C13.9126 12.874 13.8569 12.7915 13.7867 12.7221L9.15465 8.09004Z" fill="white"/>
</svg>
