<svg width="17" height="16" viewBox="0 0 17 16" fill="none" xmlns="http://www.w3.org/2000/svg">
<g clip-path="url(#clip0_9501_53252)">
<path d="M16.0003 15.4869C16.0863 15.4866 16.1707 15.464 16.2454 15.4215C16.3201 15.379 16.3826 15.3179 16.4268 15.2442C16.4711 15.1705 16.4955 15.0866 16.4979 15.0007C16.5003 14.9147 16.4804 14.8296 16.4403 14.7536L8.94031 0.753614C8.89347 0.679246 8.82854 0.617964 8.7516 0.575491C8.67465 0.533019 8.5882 0.510742 8.50031 0.510742C8.41242 0.510742 8.32596 0.533019 8.24902 0.575491C8.17207 0.617964 8.10715 0.679246 8.06031 0.753614L0.560307 14.7536C0.516345 14.8284 0.493164 14.9135 0.493164 15.0003C0.493164 15.087 0.516345 15.1722 0.560307 15.2469C0.603882 15.3211 0.666321 15.3823 0.741267 15.4245C0.816214 15.4667 0.900993 15.4882 0.986974 15.4869H16.0003ZM8.50031 13.6536C8.30196 13.6536 8.1081 13.5946 7.94338 13.4841C7.77865 13.3736 7.6505 13.2167 7.57522 13.0332C7.49994 12.8497 7.48093 12.6479 7.52061 12.4536C7.56029 12.2592 7.65686 12.0811 7.79805 11.9418C7.93924 11.8025 8.11867 11.7083 8.31352 11.6712C8.50837 11.6342 8.70984 11.6559 8.89232 11.7336C9.0748 11.8114 9.23004 11.9416 9.3383 12.1078C9.44656 12.274 9.50295 12.4686 9.50031 12.6669C9.4968 12.9298 9.3899 13.1808 9.20274 13.3655C9.01558 13.5501 8.76323 13.6536 8.50031 13.6536ZM8.50031 5.48695C8.67712 5.48695 8.84669 5.55719 8.97171 5.68221C9.09674 5.80723 9.16697 5.9768 9.16697 6.15361V9.80028C9.16697 9.97709 9.09674 10.1467 8.97171 10.2717C8.84669 10.3967 8.67712 10.4669 8.50031 10.4669C8.3235 10.4669 8.15393 10.3967 8.0289 10.2717C7.90388 10.1467 7.83364 9.97709 7.83364 9.80028V6.15361C7.83364 5.9768 7.90388 5.80723 8.0289 5.68221C8.15393 5.55719 8.3235 5.48695 8.50031 5.48695Z" fill="#CF304A"/>
</g>
<defs>
<clipPath id="clip0_9501_53252">
<rect width="16" height="16" fill="white" transform="translate(0.5)"/>
</clipPath>
</defs>
</svg>
