<svg width="17" height="16" viewBox="0 0 17 16" fill="none" xmlns="http://www.w3.org/2000/svg">
<g clip-path="url(#clip0_9501_53127)">
<path d="M15.9336 3.59965L14.067 1.73298C14.0047 1.67191 13.9209 1.6377 13.8336 1.6377C13.7464 1.6377 13.6626 1.67191 13.6003 1.73298L5.73363 9.59965C5.67132 9.66072 5.58755 9.69493 5.5003 9.69493C5.41305 9.69493 5.32928 9.66072 5.26697 9.59965L3.4003 7.73298C3.33799 7.67191 3.25422 7.63769 3.16697 7.63769C3.07971 7.63769 2.99594 7.67191 2.93363 7.73298L1.06697 9.59965C1.00589 9.66196 0.97168 9.74573 0.97168 9.83298C0.97168 9.92023 1.00589 10.004 1.06697 10.0663L5.26697 14.2663C5.32928 14.3274 5.41305 14.3616 5.5003 14.3616C5.58755 14.3616 5.67132 14.3274 5.73363 14.2663L15.9336 4.06631C15.9947 4.004 16.0289 3.92023 16.0289 3.83298C16.0289 3.74573 15.9947 3.66196 15.9336 3.59965Z" fill="#03A66D"/>
</g>
<defs>
<clipPath id="clip0_9501_53127">
<rect width="16" height="16" fill="white" transform="translate(0.5)"/>
</clipPath>
</defs>
</svg>
