<svg width="16" height="16" viewBox="0 0 16 16" fill="none" xmlns="http://www.w3.org/2000/svg">
<path d="M15.4336 3.59965L13.567 1.73298C13.5047 1.67191 13.4209 1.6377 13.3336 1.6377C13.2464 1.6377 13.1626 1.67191 13.1003 1.73298L5.23363 9.59965C5.17132 9.66072 5.08755 9.69493 5.0003 9.69493C4.91305 9.69493 4.82928 9.66072 4.76697 9.59965L2.9003 7.73298C2.83799 7.67191 2.75422 7.63769 2.66697 7.63769C2.57971 7.63769 2.49594 7.67191 2.43363 7.73298L0.566965 9.59965C0.50589 9.66196 0.47168 9.74573 0.47168 9.83298C0.47168 9.92023 0.50589 10.004 0.566965 10.0663L4.76697 14.2663C4.82928 14.3274 4.91305 14.3616 5.0003 14.3616C5.08755 14.3616 5.17132 14.3274 5.23363 14.2663L15.4336 4.06631C15.4947 4.004 15.5289 3.92023 15.5289 3.83298C15.5289 3.74573 15.4947 3.66196 15.4336 3.59965Z" fill="#1A73E8"/>
</svg>
