<svg width="16" height="16" viewBox="0 0 16 16" fill="none" xmlns="http://www.w3.org/2000/svg">
<g clip-path="url(#clip0_9501_52874)">
<path d="M7.99967 0.893555C3.77301 0.893555 0.333008 3.72689 0.333008 7.20689C0.345185 8.04392 0.540723 8.86811 0.905852 9.6214C1.27098 10.3747 1.79682 11.0388 2.44634 11.5669L0.919674 14.6269C0.88818 14.6884 0.877021 14.7584 0.887803 14.8267C0.898585 14.8949 0.930751 14.958 0.979674 15.0069C1.02828 15.056 1.09097 15.0888 1.15905 15.1008C1.22713 15.1127 1.29724 15.1032 1.35967 15.0736L5.45301 13.1669C6.2804 13.4077 7.13797 13.5289 7.99967 13.5269C12.2263 13.5269 15.6663 10.6936 15.6663 7.20689C15.6663 3.72022 12.2263 0.893555 7.99967 0.893555ZM7.99967 10.8936C7.80189 10.8936 7.60855 10.8349 7.4441 10.725C7.27965 10.6151 7.15148 10.459 7.07579 10.2762C7.00011 10.0935 6.9803 9.89245 7.01889 9.69846C7.05747 9.50448 7.15271 9.3263 7.29257 9.18645C7.43242 9.0466 7.6106 8.95135 7.80458 8.91277C7.99856 8.87418 8.19963 8.89399 8.38236 8.96968C8.56508 9.04536 8.72126 9.17354 8.83114 9.33798C8.94102 9.50243 8.99967 9.69577 8.99967 9.89355C9.00233 10.0266 8.97843 10.1587 8.92937 10.2824C8.88031 10.406 8.80707 10.5186 8.71395 10.6136C8.62082 10.7086 8.50968 10.7841 8.38703 10.8356C8.26439 10.8871 8.1327 10.9136 7.99967 10.9136V10.8936ZM7.99967 3.22689C8.17649 3.22689 8.34605 3.29713 8.47108 3.42215C8.5961 3.54717 8.66634 3.71674 8.66634 3.89355V7.56022C8.66634 7.73703 8.5961 7.9066 8.47108 8.03163C8.34605 8.15665 8.17649 8.22689 7.99967 8.22689C7.82286 8.22689 7.65329 8.15665 7.52827 8.03163C7.40325 7.9066 7.33301 7.73703 7.33301 7.56022V3.89355C7.33301 3.71674 7.40325 3.54717 7.52827 3.42215C7.65329 3.29713 7.82286 3.22689 7.99967 3.22689Z" fill="#FFC043"/>
</g>
<defs>
<clipPath id="clip0_9501_52874">
<rect width="16" height="16" fill="white"/>
</clipPath>
</defs>
</svg>
