<svg width="400" height="249" viewBox="0 0 400 249" fill="none" xmlns="http://www.w3.org/2000/svg">
<path d="M0 115.495L200.067 0L400 115.495L200 230.894L0 115.495Z" fill="#303030"/>
<path opacity="0.2" d="M0 113.511L0.0885355 133.23L200.011 248.651L200 230.894L0 113.511Z" fill="#303030"/>
<path opacity="0.2" d="M200.011 248.651L200 230.894L400 115.495L399.925 133.23L200.011 248.651Z" fill="#303030"/>
<path d="M61.5541 97.6905L76.9149 88.7976L138.463 88.8112L153.823 97.6786L123.06 115.439L138.443 124.333L123.082 133.214L107.701 124.333L92.3193 133.214L76.9359 124.321L92.2956 115.453L61.5541 97.6905Z" fill="#C0C0C0"/>
<path d="M92.318 97.6785L123.082 97.6914L107.678 106.559L92.318 97.6785Z" fill="#757575"/>
<path d="M61.554 97.6904L61.5562 115.453L76.9357 124.321L92.2955 115.453L61.554 97.6904Z" fill="#9C9C9C"/>
<path d="M76.9358 124.321L76.9374 142.094L92.3181 150.963L92.3192 133.214L76.9358 124.321Z" fill="#757575"/>
<path d="M107.701 124.333L107.703 142.107L123.083 150.976L123.084 133.226L107.701 124.333Z" fill="#757575"/>
<path d="M107.701 124.333V142.094L92.318 150.963L92.3192 133.214L107.701 124.333Z" fill="#9C9C9C"/>
<path d="M138.453 124.34V142.1L123.07 150.97L123.071 133.22L138.453 124.34Z" fill="#9C9C9C"/>
<path d="M153.823 97.6785V115.44L138.453 124.339L123.06 115.439L153.823 97.6785Z" fill="#9C9C9C"/>
<path d="M208.475 193.95C229.725 193.95 246.95 176.725 246.95 155.475C246.95 134.226 229.725 117 208.475 117C187.226 117 170 134.226 170 155.475C170 176.725 187.226 193.95 208.475 193.95Z" fill="#C0C0C0"/>
<path d="M208.475 178.557C221.223 178.557 231.557 168.223 231.557 155.475C231.557 142.728 221.223 132.394 208.475 132.394C195.728 132.394 185.394 142.728 185.394 155.475C185.394 168.223 195.728 178.557 208.475 178.557Z" fill="#757575"/>
<path d="M248.063 99.1641L263.467 108.058V125.806L248.085 116.938L248.063 99.1641Z" fill="#757575"/>
<path d="M278.762 45.9161L248 99.196L263.403 108.089L294.165 54.8095L278.762 45.9161Z" fill="#9C9C9C"/>
<path d="M278.826 45.8804L294.233 37L309.589 45.8804L294.23 54.7743L278.826 45.8804Z" fill="#D7D7D7"/>
<path d="M278.826 99.1856L294.23 72.5359L294.207 90.3001L278.826 99.1856Z" fill="#757575"/>
<path d="M278.849 116.927L294.207 125.805V108.061L278.849 116.927Z" fill="#757575"/>
<path d="M309.6 63.644L325.004 72.5284L309.592 81.4269L309.6 63.644Z" fill="#9C9C9C"/>
<path d="M309.589 81.4196V45.8804L294.23 54.7743L263.467 108.058V125.806L294.213 108.058L294.207 125.805L309.589 116.925V99.2075L324.993 90.2999V72.5256L309.589 81.4196ZM278.826 99.186L294.224 72.5453L294.219 90.2938L278.826 99.186Z" fill="#C0C0C0"/>
</svg>
