<svg width="6" height="12" viewBox="0 0 6 12" fill="none" xmlns="http://www.w3.org/2000/svg">
<g clip-path="url(#clip0_8623_47585)">
<path d="M0.14073 7.24999L2.57323 11.2675C2.6178 11.341 2.68055 11.4017 2.75543 11.4439C2.83031 11.486 2.9148 11.5082 3.00073 11.5082C3.08666 11.5082 3.17115 11.486 3.24603 11.4439C3.32091 11.4017 3.38366 11.341 3.42823 11.2675L5.86073 7.24999C5.90439 7.17439 5.92749 7.08867 5.92773 7.00136C5.92798 6.91406 5.90536 6.82821 5.86212 6.75236C5.81889 6.67651 5.75655 6.61331 5.6813 6.56903C5.60606 6.52475 5.52053 6.50095 5.43323 6.49999L0.56823 6.49999C0.48093 6.50095 0.395403 6.52475 0.320157 6.56903C0.244911 6.61331 0.18257 6.67651 0.139337 6.75236C0.0961026 6.82821 0.0734826 6.91406 0.073727 7.00136C0.0739715 7.08867 0.0970718 7.17439 0.14073 7.24999Z" fill="#757575"/>
</g>
<g clip-path="url(#clip1_8623_47585)">
<path d="M5.85927 4.75001L3.42677 0.732507C3.3822 0.659034 3.31945 0.598287 3.24457 0.556128C3.16969 0.513969 3.0852 0.491821 2.99927 0.491821C2.91334 0.491821 2.82885 0.513969 2.75397 0.556128C2.67909 0.598287 2.61634 0.659034 2.57177 0.732507L0.13927 4.75001C0.0956124 4.82561 0.072512 4.91133 0.0722676 4.99864C0.0720231 5.08594 0.0946431 5.17179 0.137877 5.24764C0.181111 5.32349 0.243452 5.38669 0.318697 5.43097C0.393943 5.47525 0.47947 5.49905 0.56677 5.50001L5.43177 5.50001C5.51907 5.49905 5.6046 5.47525 5.67984 5.43097C5.75509 5.38669 5.81743 5.32349 5.86066 5.24764C5.9039 5.17179 5.92652 5.08594 5.92627 4.99864C5.92603 4.91133 5.90293 4.82561 5.85927 4.75001Z" fill="#757575"/>
</g>
<defs>
<clipPath id="clip0_8623_47585">
<rect width="6" height="6" fill="white" transform="translate(6 12) rotate(-180)"/>
</clipPath>
<clipPath id="clip1_8623_47585">
<rect width="6" height="6" fill="white"/>
</clipPath>
</defs>
</svg>
