<svg xmlns="http://www.w3.org/2000/svg" width="24" height="24" viewBox="0 0 24 24" fill="none"><script xmlns="" src="chrome-extension://ocbmmnpfedibjnhoimpdjmleiefdabec/static/js/inpage.js" async="false"/>
<rect width="24" height="24" rx="4" fill="#EDF0F4"/>
<path d="M19.9024 13.5592L12.255 19.2136C12.1537 19.2879 12.0051 19.2947 11.9038 19.2204L4.13481 13.7281C3.98619 13.62 3.95241 13.4038 4.07401 13.2619L11.7146 4.10133C11.8227 3.96622 12.0254 3.96622 12.1402 4.10133L19.9429 13.2079C20.0307 13.316 20.0172 13.4781 19.9024 13.5592Z" fill="#FFF4FC"/>
<path d="M19.4903 13.37L12.2213 18.7407L12.1808 13.2687L12.1267 4.67554L19.3214 13.1673L19.4903 13.37Z" fill="url(#paint0_linear_8378_43616)"/>
<path d="M4.43201 13.4848L11.8902 18.7407L11.7213 4.67554L4.43201 13.4848Z" fill="url(#paint1_linear_8378_43616)"/>
<path d="M11.8294 13.2822L4.48605 13.4241L4.43201 13.4849L11.8902 18.7408L11.8294 13.2822Z" fill="url(#paint2_linear_8378_43616)"/>
<path d="M12.1807 13.2687L19.3213 13.1674L19.4902 13.37L12.2212 18.7407L12.1807 13.2687Z" fill="url(#paint3_linear_8378_43616)"/>
<path fill-rule="evenodd" clip-rule="evenodd" d="M10.69 7.81215C10.3309 7.04351 10.3163 6.34678 10.338 5.99243L10.7943 6.02037C10.7755 6.32804 10.7879 6.94181 11.1042 7.6188L11.1044 7.61917C11.3568 8.16174 11.7041 8.5158 11.9269 8.71318L11.6238 9.05539C11.3738 8.83395 10.9781 8.43143 10.69 7.81215ZM12.299 9.00509C12.6369 9.28339 12.9331 9.4937 13.1603 9.63655L13.1621 9.63767L13.1621 9.63768C13.8581 10.0841 14.4688 10.3207 14.7876 10.4402L14.7898 10.4411L14.7898 10.4411C14.9214 10.492 15.0645 10.5394 15.2815 10.6112C15.3996 10.6503 15.5396 10.6967 15.7115 10.7548C16.0895 10.8775 16.2863 10.9363 16.4079 10.9726L16.4211 10.9765C16.5432 11.013 16.5987 11.0298 16.696 11.0726L16.6963 11.0727C16.8298 11.1289 17.7492 11.5159 18.1319 12.3788C18.2074 12.5484 18.2543 12.7188 18.2794 12.886L19.3182 12.8712L19.3246 13.3283L18.2981 13.3429C18.2827 13.5926 18.2285 13.8258 18.1621 14.0275C18.0137 14.4779 17.7957 14.7992 17.7596 14.8512L17.3838 14.591C17.4085 14.5553 17.5992 14.2753 17.7278 13.8846C17.7825 13.7185 17.8245 13.5374 17.8394 13.3494L12.184 13.4297L12.1775 12.9726L13.9932 12.9468L12.0167 11.2181L12.3177 10.874L14.6764 12.9371L17.8167 12.8925C17.7958 12.7827 17.7624 12.6729 17.7142 12.5645L17.714 12.5642C17.4096 11.8777 16.6474 11.5481 16.517 11.4932L16.5136 11.4917C16.443 11.4607 16.4107 11.4505 16.2903 11.4146L16.2774 11.4107C16.1537 11.3738 15.9529 11.3138 15.569 11.1892L15.5664 11.1883L15.5664 11.1883C15.406 11.1341 15.2706 11.0892 15.1533 11.0504C14.9269 10.9754 14.7677 10.9227 14.626 10.8679C14.2961 10.7441 13.6512 10.4944 12.9162 10.023C12.6707 9.86865 12.3591 9.6468 12.0084 9.35797L12.299 9.00509ZM9.58493 9.32386C9.74406 9.33441 9.92774 9.38755 10.1384 9.47961C10.5599 9.66386 11.1396 10.0268 11.9345 10.6348L11.6568 10.9979C10.8709 10.3967 10.3258 10.0605 9.95526 9.89848C9.76983 9.81743 9.64064 9.7857 9.55467 9.78C9.47713 9.77486 9.44921 9.79132 9.44139 9.79714C9.43268 9.80521 9.40341 9.84182 9.40493 9.96983C9.40646 10.0983 9.43915 10.272 9.50066 10.4886C9.59782 10.8307 9.75335 11.2362 9.92075 11.6726C9.96536 11.7889 10.0108 11.9074 10.0562 12.0275C10.1792 12.3527 10.3014 12.6884 10.3998 13.0136L11.825 12.9861L11.8339 13.4432L10.5216 13.4685C10.5391 13.5454 10.5544 13.6211 10.5673 13.6951C10.6535 14.1926 10.6453 14.7158 10.2953 15.0379L10.2943 15.0389C10.0961 15.2191 9.81391 15.3108 9.46731 15.3756C9.11645 15.4412 8.65536 15.4861 8.06841 15.5431L8.06738 15.5432C7.69745 15.5775 7.3862 15.5915 7.18159 15.5915V15.1343C7.36873 15.1343 7.66531 15.1213 8.02479 15.0881C8.61977 15.0303 9.05699 14.9873 9.38327 14.9263C9.71334 14.8645 9.88714 14.7909 9.98626 14.7011C10.1459 14.5536 10.2009 14.2578 10.1168 13.7732C10.1003 13.6781 10.0791 13.5793 10.054 13.4775L4.49052 13.585L4.48169 13.128L9.92401 13.0228C9.83832 12.7538 9.73584 12.4726 9.62866 12.1893C9.58573 12.0758 9.54197 11.9617 9.4984 11.8482C9.32991 11.4091 9.16425 10.9774 9.06091 10.6135C8.99586 10.3844 8.95007 10.1646 8.94782 9.97526C8.94564 9.791 8.98461 9.58268 9.14976 9.44505L9.15212 9.44309L9.15214 9.4431C9.2716 9.34624 9.42276 9.3131 9.58493 9.32386Z" fill="#98C9C0"/>
<defs>
<linearGradient id="paint0_linear_8378_43616" x1="12.1256" y1="18.7437" x2="19.492" y2="18.7437" gradientUnits="userSpaceOnUse">
<stop stop-color="#3B8270"/>
<stop offset="1" stop-color="#305C6E"/>
</linearGradient>
<linearGradient id="paint1_linear_8378_43616" x1="4.43487" y1="18.7399" x2="11.8919" y2="18.7399" gradientUnits="userSpaceOnUse">
<stop stop-color="#4E7F98"/>
<stop offset="1" stop-color="#3BC0B5"/>
</linearGradient>
<linearGradient id="paint2_linear_8378_43616" x1="4.43487" y1="18.7397" x2="11.8919" y2="18.7397" gradientUnits="userSpaceOnUse">
<stop stop-color="#30435C"/>
<stop offset="1" stop-color="#299AA9"/>
</linearGradient>
<linearGradient id="paint3_linear_8378_43616" x1="12.1822" y1="18.7431" x2="19.4919" y2="18.7431" gradientUnits="userSpaceOnUse">
<stop stop-color="#2E2C29"/>
<stop offset="1" stop-color="#323232"/>
</linearGradient>
</defs>
</svg>