<svg xmlns="http://www.w3.org/2000/svg" width="24" height="24" viewBox="0 0 24 24" fill="none"><script xmlns="" src="chrome-extension://ocbmmnpfedibjnhoimpdjmleiefdabec/static/js/inpage.js" async="false"/>
<rect width="24" height="24" rx="4" fill="#E84142"/>
<path fill-rule="evenodd" clip-rule="evenodd" d="M12.7456 4.56929C12.3062 3.81024 11.607 3.81024 11.1676 4.56929L3.18755 18.6217C2.7481 19.3908 3.10765 20 3.98656 20H7.99155C8.80054 19.9501 9.52963 19.5206 9.96908 18.8414L14.793 10.4819C15.1426 9.7628 15.1426 8.91386 14.793 8.19476L13.3548 5.66792L12.7456 4.56929ZM18.049 13.8177C17.6095 13.0587 16.9004 13.0587 16.461 13.8177L13.6744 18.6217C13.245 19.3808 13.6045 20 14.4734 20H19.9866C20.8655 20 21.225 19.3808 20.7856 18.6217L18.049 13.8177Z" fill="white"/>
</svg>