<svg width="27" height="24" viewBox="0 0 27 24" fill="none" xmlns="http://www.w3.org/2000/svg">
<path d="M21.6776 6.2061C22.4342 6.76471 23.1968 7.264 23.8841 7.85195C24.7494 8.59188 25.5873 9.37047 26.3732 10.1924C27.2465 11.1056 27.1911 12.4529 26.3072 13.4414C25.2553 14.618 24.0854 15.6666 22.8095 16.5938C21.2797 17.7057 19.6385 18.6116 17.84 19.2162C14.9843 20.1761 12.1585 20.0602 9.37077 18.9469C9.11746 18.8456 8.97015 18.8583 8.7735 19.0576C7.39696 20.4535 6.00575 21.8353 4.62121 23.2232C4.51255 23.3325 4.4159 23.4545 4.31991 23.5752C3.91261 24.0845 3.18801 24.1445 2.69805 23.7085C2.23543 23.2965 2.23343 22.5526 2.68272 22.1093C4.44856 20.3681 6.2184 18.6296 7.9749 16.8791C13.4751 11.3983 18.9706 5.91346 24.4634 0.425295C24.7867 0.101991 25.1387 -0.0966568 25.59 0.0479966C25.9932 0.177318 26.2632 0.465291 26.3579 0.891252C26.4525 1.31921 26.2566 1.64118 25.9686 1.92782C24.9247 2.96773 23.8814 4.00763 22.8382 5.04754C22.4482 5.43684 22.0576 5.8268 21.6776 6.2061ZM19.0126 11.7523C18.9712 11.0243 18.8046 10.5357 18.6179 9.95175C18.5033 9.59312 18.2953 9.56046 18.0313 9.82443C16.0342 11.8216 14.0383 13.8207 12.0452 15.8219C11.7886 16.0792 11.8272 16.2472 12.1659 16.3858C12.9144 16.6925 13.6817 16.8271 14.4996 16.7405C17.0407 16.4732 19.0172 14.304 19.0126 11.7523Z" fill="#9C9C9C"/>
<path d="M9.02488 11.8084C9.04355 12.2983 9.14887 12.5643 9.18553 12.9703C9.2002 13.1323 9.15287 13.3542 9.04621 13.4642C8.00298 14.5355 6.93907 15.5867 5.88717 16.6499C5.70652 16.8326 5.5492 16.8519 5.33989 16.7006C4.00534 15.7393 2.76812 14.6668 1.65489 13.4582C0.80497 12.5356 0.752974 11.2751 1.55823 10.3098C2.59947 9.06263 3.84536 8.02739 5.1619 7.08148C6.85308 5.86626 8.66825 4.88635 10.6734 4.29173C12.9405 3.61913 15.2123 3.62713 17.4808 4.29773C17.8321 4.40172 17.9007 4.6217 17.6481 4.87701C16.9862 5.54695 16.3262 6.21822 15.6429 6.86616C15.533 6.97015 15.2903 7.02348 15.1403 6.98282C12.5952 6.29555 9.71149 8.02139 9.1522 10.7691C9.08621 11.0931 9.03088 11.4057 9.02488 11.8084Z" fill="#9C9C9C"/>
</svg>
