<svg width="24" height="24" viewBox="0 0 24 24" fill="none" xmlns="http://www.w3.org/2000/svg">
<rect width="24" height="24" rx="4" fill="#F7931A"/>
<path fill-rule="evenodd" clip-rule="evenodd" d="M17.057 10.4321C17.3084 8.75092 16.0283 7.8472 14.2779 7.24432L14.8457 4.96696L13.4593 4.62152L12.9065 6.83893C12.542 6.74803 12.1677 6.66239 11.7956 6.57748L12.3524 4.34543L10.9668 4L10.3987 6.27663C10.0971 6.20796 9.8008 6.1401 9.51338 6.06859L9.51499 6.06143L7.60303 5.58403L7.23421 7.06469C7.23421 7.06469 8.26285 7.30046 8.24117 7.31497C8.80261 7.45508 8.90414 7.8267 8.88728 8.12125L8.24043 10.7157C8.27909 10.7255 8.32924 10.7397 8.38457 10.762L8.3443 10.7519L8.3443 10.7519C8.31009 10.7433 8.27453 10.7345 8.23802 10.7257L7.33136 14.3602C7.26274 14.5307 7.08859 14.7867 6.69605 14.6895C6.70995 14.7096 5.68835 14.438 5.68835 14.438L5 16.0249L6.80425 16.4746C7.00182 16.5242 7.19706 16.5751 7.39032 16.6255C7.52539 16.6607 7.65949 16.6956 7.79275 16.7297L7.21902 19.0332L8.60387 19.3786L9.17205 17.0996C9.55037 17.2023 9.91752 17.297 10.277 17.3863L9.7107 19.6546L11.0972 20L11.6709 17.7008C14.0351 18.1482 15.8128 17.9678 16.5611 15.8297C17.164 14.1082 16.531 13.1152 15.2872 12.4677C16.1932 12.2588 16.8755 11.663 17.0575 10.4323L17.057 10.432L17.057 10.4321ZM13.8892 14.8736C13.4961 16.4531 11.0236 15.8001 9.89238 15.5013L9.89226 15.5013C9.79055 15.4744 9.69968 15.4504 9.62214 15.4312L10.3835 12.3795C10.478 12.4031 10.5935 12.429 10.7244 12.4584C11.8945 12.7209 14.292 13.2589 13.8893 14.8736H13.8892ZM10.9591 11.042C11.9023 11.2936 13.9597 11.8427 14.318 10.4072H14.3181C14.684 8.93904 12.6845 8.49641 11.708 8.28022C11.5981 8.2559 11.5012 8.23445 11.4221 8.21472L10.7318 10.9825C10.797 10.9987 10.8735 11.0191 10.9591 11.042Z" fill="white"/>
</svg>
