<svg width="24" height="24" viewBox="0 0 24 24" fill="none" xmlns="http://www.w3.org/2000/svg">
<rect width="24" height="24" rx="4" fill="#008CE3"/>
<path d="M14.2907 5H8.00666L7.49158 7.90508L13.1575 7.91538C15.9493 7.91538 16.7734 8.92494 16.7528 10.6041C16.7425 11.4695 16.3716 12.922 16.2068 13.3959C15.7741 14.6527 14.8985 16.0949 11.5813 16.0846H6.06994L5.54456 19H11.808C14.0125 19 14.9603 18.7425 15.9493 18.2789C18.1538 17.259 19.4724 15.0854 19.9978 12.2421C20.7911 8.00809 19.8124 5 14.2907 5Z" fill="white"/>
<path d="M5.30758 10.5423C3.65931 10.5423 3.42237 11.6137 3.26784 12.2627C3.06181 13.1074 3 13.4577 3 13.4577H9.42826C11.0765 13.4577 11.3135 12.3863 11.468 11.7373C11.674 10.8926 11.7358 10.5423 11.7358 10.5423H5.30758Z" fill="white"/>
</svg>
