<svg width="400" height="369" viewBox="0 0 400 369" fill="none" xmlns="http://www.w3.org/2000/svg">
<path d="M400 339.01L399.965 141.46L154.777 0L154.769 197.5L400 339.01Z" fill="#303030"/>
<path d="M167.69 204.848L193.491 189.941L206.372 197.378L180.59 212.295L167.69 204.848Z" fill="#F2F2F2"/>
<path d="M193.524 219.728L206.388 212.274L206.372 197.378L180.593 212.299L193.524 219.728Z" fill="#C0C0C0"/>
<path d="M206.399 227.166L232.212 212.265L245.093 219.701L219.307 234.621L206.399 227.166Z" fill="#F2F2F2"/>
<path d="M219.269 249.527L245.109 234.598L245.093 219.701L219.307 234.621L219.269 249.527Z" fill="#C0C0C0"/>
<path d="M77.4053 242.069L154.807 197.38L219.307 234.621L141.906 279.308L77.4053 242.069Z" fill="#C0C0C0"/>
<path d="M77.4053 242.069L141.906 279.308L141.909 323.995L77.3901 286.766L77.4053 242.069Z" fill="#9C9C9C"/>
<path d="M219.307 234.621L219.308 279.319L141.909 323.995L141.906 279.308L219.307 234.621Z" fill="#757575"/>
<path opacity="0.2" d="M219.308 279.319V294.242L141.962 338.897L77.2972 301.709L77.3899 286.766L141.909 323.995L219.308 279.319Z" fill="#303030"/>
<path d="M0.00146484 331.455L12.8821 338.892L12.8987 353.788L0.00146484 346.339V331.455Z" fill="#C0C0C0"/>
<path d="M0 331.45L103.209 271.871L116.09 279.308L12.9001 338.898L0 331.45Z" fill="#C0C0C0"/>
<path d="M12.9033 353.797L116.106 294.204L116.09 279.308L12.9033 338.901V353.797Z" fill="#757575"/>
<path d="M219.307 115.518L309.722 167.656L309.608 242.092L219.326 190.061L219.307 115.518Z" fill="#9C9C9C"/>
<path d="M219.307 115.518L232.207 108.081L322.525 160.207L309.722 167.656L219.307 115.518Z" fill="#C0C0C0"/>
<path d="M309.608 242.092L322.509 234.638V160.208L309.722 167.656L309.608 242.092Z" fill="#757575"/>
<path d="M244.297 158.77L258.867 167.182V184L244.28 175.604L244.297 158.77Z" fill="#EFEFEF"/>
<path d="M244.28 175.604L258.867 167.182L244.297 158.77L244.28 175.604Z" fill="#EFEFEF"/>
<path d="M270.031 173.561L284.603 181.974V198.795L270.013 190.397L270.031 173.561Z" fill="#EFEFEF"/>
<path d="M270.013 190.397L284.603 181.974L270.031 173.561L270.013 190.397Z" fill="#EFEFEF"/>
<path opacity="0.2" d="M219.308 264.45L245.154 249.528L245.109 234.598L219.269 249.528L219.308 264.45Z" fill="#303030"/>
<path opacity="0.2" d="M206.388 212.274L206.399 227.166L193.525 219.728L206.388 212.274Z" fill="#303030"/>
<path opacity="0.2" d="M0.00146484 346.339V361.297L12.9034 368.746L116.106 309.166V294.204L12.9034 353.797L0.00146484 346.339Z" fill="#303030"/>
<path opacity="0.2" d="M322.509 234.638L322.56 249.576L309.608 242.092L322.509 234.638Z" fill="#1A1A1A"/>
</svg>
