<svg width="24" height="24" viewBox="0 0 24 24" fill="none" xmlns="http://www.w3.org/2000/svg">
<rect width="24" height="24" rx="4" fill="white"/>
<circle cx="12" cy="12" r="10" fill="#988430"/>
<circle cx="12.0001" cy="12.0001" r="9.67968" fill="#7A6A2A"/>
<circle cx="12" cy="12" r="9.47573" fill="#BA9F33"/>
<path fill-rule="evenodd" clip-rule="evenodd" d="M6.3721 10.932C6.31546 10.8803 6.25562 10.8284 6.20058 10.7767C6.14554 10.725 6.08901 10.6731 6.03237 10.6214L5.86405 10.4614C5.83653 10.4339 5.80741 10.4097 5.77989 10.382C5.75237 10.3578 5.72005 10.3303 5.69253 10.306C5.46917 10.094 5.24453 9.8821 5.02426 9.67004C5.25242 9.87879 5.47578 10.086 5.70394 10.2979L5.78319 10.3772C5.81071 10.4047 5.83983 10.429 5.86735 10.4565L6.03557 10.6118C6.09221 10.6635 6.14725 10.7154 6.20389 10.7718C6.26053 10.8282 6.31557 10.8802 6.37221 10.9318L6.3721 10.932ZM3.40775 10.9C3.40775 10.9 4.22001 10.984 4.61649 11.0407C4.98375 11.0925 6.13265 11.2688 6.13265 11.2688L3.40775 10.9ZM3.4077 10.9001C3.63586 10.9195 3.86402 10.9437 4.09218 10.968C4.20866 10.9793 4.32034 10.9922 4.43202 11.0035L4.60343 11.0231C4.66007 11.0311 4.71511 11.0392 4.77175 11.0473L5.45143 11.1556L5.79117 11.2123C5.90285 11.2317 6.01453 11.2528 6.13101 11.2722C6.01933 11.2609 5.90285 11.2447 5.79117 11.2285L5.45143 11.18L4.77175 11.0797C4.71511 11.0716 4.66007 11.0602 4.60343 11.0522L4.43191 11.0324C4.32023 11.0211 4.20375 11.0049 4.09207 10.9919C3.86391 10.9645 3.63575 10.9353 3.40759 10.8997L3.4077 10.9001ZM6.05196 11.4805C6.05196 11.4805 5.18466 11.7007 4.89175 11.7848C4.60375 11.8641 3.73154 12.1295 3.73154 12.1295L6.05186 11.4806L6.05196 11.4805Z" fill="#CFB66C"/>
<path fill-rule="evenodd" clip-rule="evenodd" d="M6.05185 11.4805C5.85932 11.5372 5.66785 11.5922 5.47254 11.644L4.89324 11.7994C4.7007 11.856 4.50924 11.911 4.31724 11.9677L4.02924 12.0469C3.93377 12.0744 3.8367 12.0987 3.73804 12.1263C3.8334 12.0943 3.93057 12.0615 4.02604 12.034L4.31404 11.9419C4.50657 11.8819 4.69804 11.8253 4.89004 11.7654C5.08577 11.7169 5.27841 11.6651 5.47414 11.6181C5.66017 11.5712 5.85601 11.5244 6.05185 11.4806V11.4805ZM3.85272 12.6634C3.94808 12.6278 5.04846 12.1149 5.30414 11.9952C5.43214 11.9352 5.80419 11.8032 5.80419 11.8032L3.85272 12.6634Z" fill="#CFB66C"/>
<path fill-rule="evenodd" clip-rule="evenodd" d="M3.85289 12.6635C3.93694 12.6315 4.0163 12.5923 4.09716 12.5551L4.33662 12.4434L4.81726 12.2121C4.97726 12.136 5.13278 12.0521 5.2978 11.9806C5.38196 11.9451 5.46612 11.916 5.55017 11.8884L5.67817 11.848C5.7218 11.8367 5.76233 11.8237 5.80617 11.8124C5.64617 11.8884 5.47774 11.9532 5.31753 12.0275C5.15753 12.1069 4.9939 12.1716 4.82878 12.2428L4.34014 12.4579C4.17609 12.5244 4.01609 12.5955 3.85278 12.6635H3.85289ZM3.95953 13.1115C3.95953 13.1115 4.95623 12.5274 5.29927 12.3396C5.47889 12.2394 6.0598 11.9512 6.0598 11.9512L3.95953 13.1115Z" fill="#CFB66C"/>
<path fill-rule="evenodd" clip-rule="evenodd" d="M3.95972 13.1117C4.12793 13.0081 4.29945 12.9029 4.47097 12.7961L4.72697 12.6407C4.81433 12.589 4.89849 12.5405 4.98756 12.4887C5.07492 12.4369 5.15908 12.3851 5.24804 12.3366C5.29039 12.3105 5.33476 12.2877 5.38073 12.2687L5.51662 12.2007C5.69625 12.1134 5.87588 12.0243 6.06521 11.9482C5.89369 12.0567 5.71726 12.149 5.54094 12.2443C5.45358 12.2929 5.36452 12.3366 5.27716 12.3851C5.1898 12.4337 5.10564 12.4855 5.01657 12.5325C4.92921 12.5842 4.84505 12.6327 4.75609 12.6797L4.4923 12.8237L3.95993 13.1117H3.95972ZM6.05166 12.0792C6.05166 12.0792 5.43193 12.5549 5.23129 12.707C5.03065 12.8591 4.44003 13.2863 4.44003 13.2863L6.05166 12.0792Z" fill="#CFB66C"/>
<path fill-rule="evenodd" clip-rule="evenodd" d="M9.6085 15.9159L9.29138 15.3156L9.47581 14.5647L10.7913 14.0567L10.2314 12.9079L10.5081 11.7477L11.0276 10.7087L12.6328 10.4564L13.8123 9.33179L16.3593 9.52432L16.8593 12.2476L15.8965 15.6764L15.348 17.4516L13.1247 17.5357L12.0923 16.8205L10.8836 16.3156L9.6085 15.9159Z" fill="#E2CC85"/>
<path fill-rule="evenodd" clip-rule="evenodd" d="M13.5081 15.8963C13.5081 15.8963 13.2006 16.0371 12.6761 16.0047C12.5243 15.8009 11.4613 15.7054 11.4613 15.7054C11.4613 15.7054 11.3286 15.665 11.0939 15.7621C10.8578 15.8581 10.6344 15.8462 10.4257 15.8979C10.2169 15.9497 10.0097 15.6779 9.84968 15.6213C9.68968 15.5614 9.47752 15.4174 9.47752 15.4174L9.02952 15.3737L8.12989 14.9934L6.70066 13.5695L6.31229 14.1775L6.1925 14.9299L6.62461 15.8216L7.78802 16.8814L10.0566 17.4574L11.4013 17.0613L13.0857 16.3493L13.5081 15.8962V15.8963Z" fill="#F1D789"/>
<path fill-rule="evenodd" clip-rule="evenodd" d="M5.44822 10.8641L5.73622 9.99201L6.07937 9.42881L7.18444 9.33655L6.8527 10.3042L5.92886 11.9483L6.31233 13.4159L5.63276 13.7556L5.4239 13.4353L5.25569 12.7007L5.24438 11.8754L5.44822 10.8641Z" fill="#F4ECB4"/>
<path fill-rule="evenodd" clip-rule="evenodd" d="M6.68769 15.8366L6.47574 15.5405C6.47574 15.5405 6.4191 15.3997 6.45153 15.2767C6.48353 15.1521 6.47894 15.144 6.46283 15.0971C6.44673 15.0501 6.31073 14.8883 6.31883 14.7491C6.32683 14.6083 6.30753 14.5614 6.41099 14.4498C6.51937 14.3414 6.48705 14.1537 6.48705 14.1537L6.62785 14.2411L6.65985 14.1925C6.65985 14.1925 6.71158 14.233 6.71158 14.2961C6.72289 14.2087 6.67595 13.8042 6.78273 13.712C6.8895 13.6198 7.07883 14.144 7.07883 14.144L6.96235 13.3835L6.66294 12.6036L6.13057 11.8916L6.09857 11.1068V11.0388C6.09857 11.0388 5.85419 11.4143 5.78625 11.7108C5.73771 11.9147 5.85419 12.1622 5.82998 12.4551C5.81046 12.7464 5.78625 12.7237 5.85739 12.8391C5.92854 12.9546 6.10177 13.1919 6.03382 13.3634C5.97398 13.5107 5.77003 13.4071 5.77003 13.4071C5.77003 13.4071 5.72961 13.5268 5.67457 13.5706C5.65515 13.4994 5.63414 13.4541 5.59531 13.4106C5.59201 13.4381 5.58401 13.4753 5.58401 13.4753C5.58401 13.4753 5.54838 13.3636 5.51275 13.2228C5.46433 13.0352 5.41249 12.7876 5.36555 12.6549C5.34614 12.731 5.29761 12.9623 5.29761 12.9623L5.32513 13.3184L5.45782 13.807L5.58582 14.127L5.71041 14.5186L5.81867 14.7816L5.90603 14.9823L5.98209 15.4338L6.34934 15.8221L6.54518 15.9095L6.68747 15.8367L6.68769 15.8366Z" fill="#F3E19D"/>
<path fill-rule="evenodd" clip-rule="evenodd" d="M5.64084 10.1521C5.64084 10.1521 5.37705 10.6001 5.30111 11.0517C5.22516 11.5034 5.15711 11.9806 5.20511 12.5954C5.25364 13.2153 5.34591 13.5954 5.42036 13.8673C5.54836 14.3188 5.87988 14.9467 5.87988 14.9467L5.89119 14.9224C5.83546 14.8167 5.79099 14.7055 5.75849 14.5906C5.71476 14.4191 5.69855 14.2153 5.65812 14.123C5.62249 14.0308 5.56265 13.9515 5.53353 13.8382C5.50601 13.7298 5.50153 13.5583 5.41705 13.4305C5.38143 13.3787 5.33769 13.2428 5.32479 13.1069C5.30857 12.9029 5.33289 12.6748 5.31348 12.4872C5.27785 12.1748 5.25364 11.9629 5.28596 11.7994C5.31828 11.6358 5.48671 11.1716 5.59028 10.8027C5.65823 10.5664 5.61769 10.3674 5.74228 10.1618C5.86687 9.95798 5.94303 9.77835 5.97044 9.65377C6.00244 9.54049 5.64041 10.1521 5.64041 10.1521H5.64084Z" fill="#F2E8B0"/>
<path fill-rule="evenodd" clip-rule="evenodd" d="M6.89156 9.97247C6.89156 9.97247 6.75566 10.013 6.69092 10.0842C6.62617 10.1521 6.59865 10.2087 6.51129 10.3236C6.42393 10.4385 6.41902 10.5324 6.34777 10.6764C6.27662 10.8172 6.11961 11.0291 6.1002 11.1052C6.08078 11.1812 6.04846 11.5372 6.00804 11.7055C5.97241 11.8738 6.04846 12.081 6.04846 12.081L6.14062 12.0614C6.14062 12.0614 6.14062 12.1812 6.23289 12.2622C6.32505 12.3414 6.34126 11.9935 6.34126 11.9935L6.6859 10.8301L7.20526 10.4773L7.2619 10.1925L6.89134 9.97247H6.89156Z" fill="#F5EEC0"/>
<path fill-rule="evenodd" clip-rule="evenodd" d="M7.14404 10.5C7.14404 10.5 6.89967 10.5161 6.77999 10.6036C6.73145 10.6391 6.71204 10.6682 6.66031 10.712C6.56484 10.7912 6.46767 10.8641 6.42084 10.968C6.369 11.0714 6.31236 11.2284 6.27353 11.5245C6.25732 11.6491 6.25732 11.764 6.24601 11.8644C6.2298 12.0003 6.20559 12.1086 6.21849 12.1844C6.23471 12.3397 6.39492 12.4206 6.41049 12.597L6.74223 12.4288L7.05455 11.1973L7.71801 10.7813L7.34255 10.3606L7.14361 10.4993L7.14404 10.5Z" fill="#E6DB9D"/>
<path fill-rule="evenodd" clip-rule="evenodd" d="M5.39391 18.7925C5.39529 18.7803 5.39668 18.7682 5.39807 18.7557C5.44649 18.3397 5.45471 18.0244 5.49023 17.8269C5.54196 17.547 5.57759 17.4429 5.56948 17.3382C5.55817 17.17 5.54527 17.047 5.56148 16.9175C5.58569 16.746 5.75401 16.5421 5.74921 16.4013C5.74591 16.2897 5.68927 16.2169 5.64073 16.149C5.5922 16.081 5.55337 16.0244 5.55337 16.0244C5.55337 16.0244 5.88511 15.7962 5.88191 14.8771C5.88868 14.879 5.8952 14.8817 5.90132 14.8852L6.06473 15.3495L6.17641 15.4854L6.60521 16.2848L7.157 16.8204L7.97247 17.3689L8.48383 17.9254L8.53556 19.4092L7.86729 20.2765L7.75785 20.4747C6.88838 20.0382 6.09108 19.4708 5.3938 18.7924L5.39391 18.7925Z" fill="#E5CB7A"/>
<path fill-rule="evenodd" clip-rule="evenodd" d="M7.4353 20.212C7.4353 20.212 7.44661 20.0276 7.59872 19.9078C7.62304 19.9482 7.63914 19.9872 7.63434 20.0162C7.66186 19.9677 7.8544 19.657 8.2897 19.5761C8.72501 19.4968 8.83018 19.1797 8.83018 19.1797L9.75402 18.3399L10.8107 17.3674L12.0955 16.9159L12.6959 16.7686C12.6959 16.7686 12.7072 16.8123 12.6846 16.9094C12.7962 16.9014 13.0437 16.8448 13.301 16.7541C13.4046 16.7137 13.5018 16.6975 13.5535 16.7509C13.6295 16.822 13.6408 16.9904 13.6456 17.0906C13.7702 17.0631 13.9142 16.9434 14.0296 16.9547C14.2142 16.9741 14.3776 17.191 14.5653 17.191C14.8129 17.191 14.9245 17.0389 15.0977 16.9191C15.2013 16.848 15.3501 16.7591 15.4342 16.6991C15.6349 16.5517 17.7579 15.9029 17.7579 15.9029L18.5022 15.9514L18.622 16.7508L18.558 18.8404C18.5501 18.848 18.5422 18.8559 18.5342 18.8634L15.1499 20.631L10.4587 21.3501C9.40782 21.1785 8.39373 20.8296 7.45962 20.3186L7.43562 20.2119L7.4353 20.212Z" fill="#D8C173"/>
<path fill-rule="evenodd" clip-rule="evenodd" d="M5.67847 19.0583C5.74513 18.9189 5.80508 18.8023 5.81564 18.7606C5.82396 18.8446 5.83921 19.029 5.86993 19.2251C5.80544 19.1703 5.74161 19.1146 5.67847 19.0582V19.0583Z" fill="#F1D789"/>
<path fill-rule="evenodd" clip-rule="evenodd" d="M9.10524 21.0248L9.71196 20.856L9.76369 20.8722C9.76369 20.8722 9.79121 20.8884 9.79121 20.9434C9.86727 20.8998 9.93201 20.9078 9.97895 20.8787C10.0032 20.9305 10.0274 21.102 10.1343 21.123C10.2458 21.1473 10.3656 21.0745 10.487 20.9823C10.6067 20.8868 10.743 20.7671 10.8461 20.7185C10.884 20.7881 10.9175 20.86 10.9465 20.9337C11.0824 20.8253 11.3187 20.3852 11.6552 20.3932C11.7525 20.1633 11.915 19.967 12.1226 19.8285C12.4349 19.6166 12.6307 19.6003 12.8751 19.6198C12.9721 19.4937 13.0917 19.3867 13.2278 19.3042C13.2682 19.3204 13.3799 19.3884 13.5191 19.3236C13.6599 19.259 13.8184 19.0081 14.0272 18.9758C14.1396 18.9603 14.254 18.9843 14.3508 19.0438C14.3508 19.0438 14.9588 18.4401 15.3783 18.2395C15.3621 18.191 15.3298 18.0081 15.8216 17.6035C15.8491 17.6279 15.8297 17.6958 15.8491 17.6995C15.8571 17.6995 15.9771 17.6478 16.129 17.5312C16.3168 17.3905 16.5416 17.2432 16.6775 17.2028C16.9335 17.1267 17.2051 17.282 17.2051 17.282C17.2282 17.2658 17.2539 17.2538 17.2811 17.2464C17.3458 17.2351 17.3927 17.227 17.4283 17.2144C17.4251 17.2986 17.4721 17.4426 17.4283 17.5672C17.479 17.5957 17.5327 17.6184 17.5883 17.6351C17.5609 17.695 17.501 17.8471 17.4007 17.9199C17.4848 17.9603 17.4961 18.0073 17.6159 18.0479C17.5673 18.1159 17.4879 18.2324 17.4524 18.3039C17.4168 18.38 17.2889 18.6955 17.2323 18.8152C17.1724 18.935 17.0916 19.155 17.0527 19.1992C17.0137 19.2433 16.873 19.4305 16.7647 19.5227C16.8607 19.4871 17.2534 19.3674 17.42 19.322C17.3704 19.3948 17.119 19.7678 16.8773 20.1265C14.5361 21.5298 11.7043 21.8576 9.10449 21.0264L9.10524 21.0248Z" fill="#E0CD81"/>
<path fill-rule="evenodd" clip-rule="evenodd" d="M7.18405 10.4563C7.18405 10.4563 7.04336 10.4563 7.01584 10.4757C6.98832 10.4951 7.15664 10.5357 7.20837 10.5551C7.2601 10.5745 7.37178 10.6635 7.4009 10.7347C7.42842 10.8027 8.41221 11.199 8.41221 11.199L9.108 11.1634L9.34789 10.832L8.89157 10.4323L9.21157 9.48895L8.78768 9.5569L7.76826 10.1649L7.2569 10.3607L7.18405 10.4563Z" fill="#DFC57C"/>
<path fill-rule="evenodd" clip-rule="evenodd" d="M8.71185 10.7687C8.73232 10.8018 8.76891 10.8216 8.80785 10.8204C8.95185 10.8204 9.08444 10.8561 9.13948 10.9288C9.23174 11.0454 9.48742 11.4175 9.48742 11.4175L10.0991 11.6376L10.1385 10.9174L9.47025 10.4531L8.70972 10.733V10.7686H8.71142L8.71185 10.7687Z" fill="#E5CC7C"/>
<path fill-rule="evenodd" clip-rule="evenodd" d="M8.59197 11.0357C8.59197 11.0357 8.70354 11.0438 8.84434 10.9919C8.98514 10.9401 9.2165 10.8285 9.31687 10.8723C9.45757 10.9321 9.42845 11.1198 9.58066 11.2883C9.67282 11.3918 9.84114 11.3886 9.93661 11.5003C10.0321 11.612 10.3605 11.5601 10.3605 11.5601L10.4851 12.2321L9.98514 12.873L9.82162 13.6691H9.14557L8.52797 13.424L8.22375 12.688L8.37586 11.9437L8.59197 11.0357Z" fill="#D2C281"/>
<path fill-rule="evenodd" clip-rule="evenodd" d="M9.89966 11.068C9.91643 11.0731 9.93385 11.0759 9.9514 11.0761C9.93198 11.0923 9.89145 11.1278 9.90766 11.2201C9.92388 11.3123 9.97561 11.4288 9.93198 11.5C9.96681 11.538 9.99278 11.5833 10.008 11.6326C10.0356 11.712 10.0437 11.7848 10.2232 11.7962C10.1973 11.8121 10.1734 11.8311 10.152 11.8528C10.152 11.8528 10.2766 11.9612 10.3398 12.0614C10.4044 12.0587 10.5759 12.0053 10.5759 12.0053L10.6116 12.0297L10.6876 11.9977C10.6876 11.9977 10.6165 11.9701 10.6682 11.797C10.7167 11.6449 10.7605 11.653 10.7642 11.6417C10.7679 11.6304 10.7998 11.4702 10.7998 11.4054C10.824 11.3214 10.8435 11.0657 10.8435 11.0657L10.7917 10.501L10.5005 10.3246L10.2637 10.096L10.0404 10.5167L9.89326 10.6634L9.88196 11.0274L9.89966 11.068Z" fill="#E2C270"/>
<path fill-rule="evenodd" clip-rule="evenodd" d="M10.6003 10.5954C10.6003 10.5954 10.6521 10.7426 10.6716 10.8559C10.6785 10.8339 10.6823 10.811 10.6829 10.788C10.6829 10.788 10.7233 11.0113 10.7313 11.1036C10.7475 11.1003 10.7633 11.0955 10.767 11.1116C10.7706 11.1277 10.8075 11.3074 10.799 11.4077C10.8663 11.2966 10.9596 11.2033 11.0707 11.1359C11.1355 11.0954 11.2115 11.0518 11.2909 11.0485C11.4155 11.0453 11.506 11.1278 11.655 11.1278C12.0141 11.1278 12.3394 10.864 12.5789 10.7832C12.7552 10.7232 12.9073 10.6796 13.0141 10.5824C13.0659 10.5388 13.1582 10.4417 13.2423 10.2976C13.3539 10.1056 13.4704 9.93849 13.587 9.91748C13.5343 9.92717 13.4806 9.93096 13.427 9.92878C13.427 9.92878 13.4626 9.89316 13.523 9.84462C13.5834 9.79609 13.6557 9.73625 13.7592 9.73625C13.9437 9.73625 14.0359 9.76366 14.1394 9.76366C14.243 9.76046 14.3028 9.73625 14.3028 9.73625C14.3028 9.73625 14.4113 9.8123 14.6556 9.8123C14.9 9.8155 15.0634 9.83652 15.1913 9.84793C15.3192 9.85934 15.7479 9.8123 15.8708 9.81593C15.951 9.81902 16.0298 9.83828 16.1023 9.87257L15.7058 8.72057L14.2816 7.47577L13.4337 8.07609L12.1294 9.3803L10.8673 9.84793L10.6035 10.144V10.5954H10.6003Z" fill="#CCB360"/>
<path fill-rule="evenodd" clip-rule="evenodd" d="M13.4321 9.93524C13.4321 9.93524 13.4677 9.89972 13.5275 9.85118C13.5872 9.80265 13.6603 9.7427 13.7637 9.7427C13.9481 9.7427 14.0404 9.77022 14.144 9.77022C14.2476 9.76702 14.3074 9.7427 14.3074 9.7427C14.3074 9.7427 14.416 9.81865 14.6601 9.81865C14.9045 9.82185 15.0679 9.84286 15.1958 9.85417C15.3237 9.86548 15.7524 9.81865 15.8754 9.82217C15.9556 9.82519 16.0343 9.84446 16.1068 9.87881L15.9271 9.35934L15.7185 8.96297L15.123 8.31081C15.123 8.31081 14.4083 7.89012 14.4029 7.88692C14.3997 7.88372 14.1553 7.81897 14.1553 7.81897L13.508 8.21054L12.9207 9.73001L12.9094 10.05L13.2896 10.2296C13.3851 10.0696 13.4903 9.94164 13.589 9.92542C13.4999 9.93513 13.432 9.93513 13.432 9.93513L13.4321 9.93524Z" fill="#D5B457"/>
<path fill-rule="evenodd" clip-rule="evenodd" d="M13.424 10.0437C13.3674 10.0469 13.3205 10.0356 13.3075 9.99515C13.259 9.85926 13.2202 9.83985 13.1795 9.83985C13.1389 9.83985 13.0841 9.92721 13.0515 9.93521C13.019 9.94321 12.9804 9.83494 12.9804 9.83494L12.9448 9.81873C12.9448 9.81873 12.736 9.95462 12.5888 10.1148C12.4416 10.275 12.2004 10.5469 12.0921 10.5954C11.9837 10.6438 11.6114 10.6601 11.4841 10.6876C11.3567 10.7152 11.2155 10.8074 11.1961 10.8284C11.1767 10.8494 11.2528 10.8721 11.2641 10.8931C11.2754 10.9125 11.1394 10.9044 11.1281 10.9251C11.1201 10.9413 11.1601 11.0334 11.18 11.0804C11.2147 11.0631 11.2528 11.0537 11.2915 11.0529C11.4161 11.0497 11.5068 11.1322 11.6556 11.1322C12.0148 11.1322 12.3401 10.8684 12.5795 10.7875C12.756 10.7276 12.9081 10.6839 13.0148 10.5868C13.0666 10.5432 13.1588 10.446 13.243 10.302C13.3044 10.2034 13.3644 10.1111 13.4243 10.0432L13.424 10.0437Z" fill="#D2B257"/>
<path fill-rule="evenodd" clip-rule="evenodd" d="M8.27194 18.0519C8.27194 18.0519 8.23994 17.9321 7.94341 17.6231C7.85925 17.5358 7.80752 17.4631 7.75087 17.4112C7.61007 17.2784 7.52752 17.2428 7.42725 17.1668C7.2072 17.0034 6.96773 17.0034 6.7833 16.8027C6.59888 16.6021 6.38394 16.2187 6.23461 15.827C6.08741 15.4354 6.04688 15.3108 6.04688 15.2995C6.04688 15.2882 6.08741 15.2121 6.13914 15.2234C6.19088 15.2347 6.19088 15.335 6.20389 15.3593C6.22966 15.399 6.2589 15.4364 6.29125 15.4709C6.3673 15.5584 6.47567 15.6629 6.53071 15.8188C6.51941 15.6862 6.47408 15.539 6.47408 15.539C6.47408 15.539 6.75888 15.7186 7.00154 15.9062C7.24592 16.0939 7.34618 16.1587 7.41754 16.2784C7.4889 16.398 7.65701 16.7137 7.73754 16.8059C7.81808 16.8982 8.92154 17.246 8.92154 17.246L9.44645 17.6374L9.70704 18.2086L9.50309 18.5286L9.11152 18.6128L8.47557 18.328L8.27194 18.0518V18.0519Z" fill="#D2B159"/>
<path fill-rule="evenodd" clip-rule="evenodd" d="M6.85913 16.0842C6.85913 16.0842 6.99182 16.2961 7.31545 16.4968C7.60676 16.6732 8.06788 16.8334 8.47897 16.9289C8.71513 16.9855 8.9514 17.0291 9.16334 17.0325C9.73454 17.0405 10.1277 16.8771 10.6149 16.8237C10.8787 16.7962 11.2023 16.7752 11.5388 16.6957C11.9708 16.5921 12.2265 16.4755 12.5744 16.3117C12.8268 16.1952 13.0583 16.1079 13.2459 15.9962C13.5097 15.8409 13.7022 15.6678 13.9256 15.616C13.8981 15.6921 13.8689 15.828 13.6489 15.9688C13.7654 15.9655 13.9256 15.9575 13.9256 15.9575C13.9256 15.9575 13.7703 16.0496 13.4968 16.2568C13.3285 16.3848 13.1052 16.6014 12.8771 16.7454C12.7297 16.8377 12.5695 16.9054 12.4644 16.9607C12.2084 17.1015 12.1051 17.1726 11.9369 17.3447C11.9967 17.3415 12.0016 17.3447 12.0016 17.3447C12.0016 17.3447 11.7896 17.3722 11.6376 17.453C11.6056 17.453 11.5501 17.4417 11.4531 17.4693C11.377 17.4935 11.2766 17.5486 11.1732 17.5776C11.0259 17.6214 10.9774 17.6019 10.9774 17.6019L11.0016 17.6505C11.0016 17.6505 10.8096 17.6472 10.7456 17.6537C10.7569 17.6569 10.7537 17.6618 10.7537 17.6618C10.7425 17.6637 10.7317 17.6675 10.7217 17.6731C10.6909 17.693 10.6571 17.7078 10.6215 17.7167C10.6021 17.7199 10.5859 17.7199 10.5615 17.7248C10.5696 17.7442 10.6328 17.8528 10.6619 17.9168C10.6377 17.933 10.2735 18.2081 10.2735 18.2081C10.2848 18.2259 10.2941 18.2449 10.3011 18.2648C10.3124 18.3003 10.3173 18.3521 10.3286 18.3763C10.356 18.4249 10.3722 18.433 10.3722 18.433C10.3722 18.433 10.3286 18.4411 10.2524 18.4605C10.1878 18.4767 10.1084 18.5041 9.99641 18.5203C9.96205 18.5248 9.92748 18.5275 9.89284 18.5285C9.90905 18.5641 9.9802 18.7 9.8491 18.8569C9.71801 19.0138 9.67758 19.0366 9.63716 19.1369C9.61681 19.1215 9.59514 19.1079 9.57241 19.0963C9.52878 19.0769 9.46884 19.0479 9.44782 19.009C9.43557 19.0609 9.41935 19.1117 9.39929 19.1611C9.35886 19.2695 9.29902 19.3763 9.28772 19.4572C9.24398 19.4087 9.16313 19.3132 9.05145 19.3326C8.93977 19.352 8.85081 19.5041 8.8314 19.5479C8.8314 19.5203 8.81198 19.4993 8.80718 19.5317C8.80388 19.5673 8.74244 19.9393 8.3994 20.2403C8.3962 20.1643 8.3962 19.996 8.38809 19.941C8.35609 19.973 8.31694 20.0203 8.08388 20.1207C7.85572 20.2209 7.89188 20.3213 7.89188 20.3213C7.89188 20.3213 7.87246 20.1613 7.99545 19.9928C8.12004 19.8246 8.19609 19.7452 8.19609 19.7323C8.19408 19.7191 8.18847 19.7068 8.17988 19.6967C8.16366 19.6805 8.13134 19.661 8.13134 19.6481C8.15076 19.6401 8.34329 19.5479 8.33198 19.3568C8.32068 19.1854 8.24793 19.0963 8.19609 19.0333C8.18809 19.0252 8.27225 18.9654 8.26084 18.9459C8.25273 18.9346 8.14926 18.8585 8.13625 18.8179C8.13931 18.7938 8.14474 18.7699 8.15246 18.7468C8.16377 18.7112 8.17188 18.6869 8.16868 18.6626C8.16057 18.6222 8.11684 18.5105 8.10393 18.4992C8.11524 18.5024 8.19609 18.4992 8.19609 18.4992C8.19609 18.4992 8.13145 18.3957 8.12004 18.3471C8.10862 18.2986 8.08441 18.1707 8.0715 18.1465C8.09902 18.1497 8.16697 18.1545 8.16697 18.1465C8.17028 18.1222 8.10713 18.0817 8.13497 18.0505C8.15438 18.0537 8.19161 18.0699 8.22713 18.1152C8.20772 18.0634 8.1754 17.9631 8.10734 17.9227C8.13934 17.9114 8.24814 17.8822 8.34361 17.9388C8.43908 17.9954 8.47161 18.0747 8.47161 18.0747C8.47161 18.0747 8.52825 18.1184 8.61572 18.1832C8.71598 18.2624 8.84377 18.3752 9.04772 18.455C9.09145 18.4793 9.20302 18.4793 9.28398 18.4631C9.31924 18.4547 9.35303 18.441 9.38425 18.4226C9.39552 18.416 9.40746 18.4106 9.41988 18.4064C9.40248 18.3715 9.38248 18.338 9.36004 18.3061C9.38756 18.3061 9.41988 18.3094 9.41988 18.3094C9.41988 18.3094 9.43929 18.2656 9.35193 18.1814C9.37134 18.1619 9.39566 18.1494 9.39566 18.1166C9.36814 18.1134 9.31961 18.073 9.3083 18.0568C9.32441 18.0455 9.34873 18.0082 9.37625 17.9969C9.35193 17.9775 9.29209 17.8966 9.26457 17.8886C9.29086 17.8788 9.3163 17.8669 9.34062 17.8529C9.34062 17.8529 9.20473 17.8173 9.161 17.7882C9.11726 17.7562 9.05262 17.7008 9.0138 17.6846C8.97326 17.6684 8.90212 17.6604 8.873 17.628C8.90041 17.6361 8.94414 17.628 8.97657 17.628C9.00078 17.628 9.0122 17.6312 9.0202 17.6312C9.017 17.6199 9.017 17.5955 9.08014 17.5875C9.11052 17.583 9.13999 17.5737 9.1675 17.56C9.1675 17.56 9.10756 17.5568 9.0395 17.4921C8.97145 17.4273 8.91492 17.3756 8.87609 17.3675C8.83566 17.3594 8.75961 17.395 8.71268 17.3917C8.64793 17.3837 8.62041 17.3513 8.62041 17.3513C8.62041 17.3513 8.40526 17.3707 7.92793 17.0795C7.51524 16.827 7.33561 16.6038 7.33561 16.6038C7.29699 16.5897 7.25966 16.5724 7.22404 16.5519C7.06873 16.4711 6.85348 16.3027 6.85998 16.0826L6.85913 16.0842Z" fill="#C2A44D"/>
<path fill-rule="evenodd" clip-rule="evenodd" d="M12.8124 6.37212C12.8498 6.38428 12.8831 6.40672 12.9084 6.43687C12.9844 6.52423 13.033 6.68924 12.8598 6.86567C12.9278 6.88988 12.9558 6.89767 13.0151 6.88988C12.9553 6.96114 12.8194 7.11324 12.8113 7.24594C12.8032 7.35431 12.8711 7.38674 12.8711 7.38674C12.8711 7.38674 12.7676 7.50642 12.7628 7.70674C12.8117 7.65158 12.8652 7.60069 12.9228 7.55463C13.0426 7.45916 13.2076 7.35079 13.3192 7.28284C13.3177 7.31132 13.3216 7.33983 13.3306 7.3669C13.3306 7.3669 13.5392 7.19538 13.7146 7.27154C13.7938 7.30716 13.7582 7.41874 13.7582 7.41874C13.7582 7.41874 13.8667 7.37831 13.9427 7.45436C14.0188 7.53042 14.1263 7.72658 14.1814 7.80263C14.2056 7.83826 14.2688 7.9062 14.3334 8.01138C14.4217 8.15862 14.4955 8.31413 14.5536 8.4757C14.5568 8.39154 14.5778 8.26055 14.8174 8.343C15.0568 8.42716 15.3286 8.60359 15.5568 8.951C15.785 9.29842 15.8415 9.69063 15.9564 9.83996C16.0728 9.98396 16.1926 10.2234 16.2007 10.3238C16.2088 10.4242 16.1651 10.7477 16.4046 11.6231C16.4725 11.3513 16.5761 10.7477 16.5761 10.7477L16.6327 10.2153L16.6975 8.56807L14.9774 7.13906L13.6327 6.16327L12.7573 6.24743L12.8123 6.37202L12.8124 6.37212Z" fill="#CAA13E"/>
<path fill-rule="evenodd" clip-rule="evenodd" d="M16.0081 8.82362C16.0081 8.82362 15.9838 8.66362 15.5793 8.39162C15.1747 8.12303 14.8592 8.12303 14.568 7.89487C14.3446 7.71525 14.1117 7.30255 13.96 7.16666C13.8127 7.03237 13.7885 6.64399 13.7885 6.64399L14.2852 6.22799L15.024 5.16015L15.6485 4.47247L15.9478 4.88847L16.3638 5.37711L16.5952 6.3577L16.6793 7.79301L16.0073 8.82373L16.0081 8.82362Z" fill="#B59544"/>
<path fill-rule="evenodd" clip-rule="evenodd" d="M16.5082 10.544C16.5204 10.3263 16.4936 10.1082 16.4288 9.90006C16.3222 9.56833 16.0891 8.97931 15.9808 8.75873C15.9371 8.51435 15.9695 8.49494 16.0165 8.46742C16.0634 8.4399 16.2398 8.33942 16.3365 7.98689C16.4331 7.63435 16.7329 7.62283 16.7329 7.62283L16.9174 7.48694L17.1974 8.18753L17.4416 8.82027L17.5177 9.30411L17.5743 9.7167L17.4416 10.5889L16.7864 11.1811L16.5081 10.544H16.5082Z" fill="#C89D3A"/>
<path fill-rule="evenodd" clip-rule="evenodd" d="M7.36426 20.2655V20.2476C7.37787 20.2391 7.3899 20.2282 7.39978 20.2156C7.41108 20.1994 7.4193 20.18 7.4273 20.1752C7.44351 20.1671 7.51956 20.1432 7.55999 20.1508C7.60042 20.1585 7.7073 20.2026 7.76394 20.1994C7.88042 20.1962 8.01631 20.1071 8.23156 20.1476C8.55519 20.2075 8.63124 20.4275 8.81898 20.5521C8.94698 20.6396 9.07946 20.6007 9.09887 20.6007H9.1425C9.1506 20.6007 9.21044 20.5327 9.24287 20.536C9.30762 20.5392 9.31402 20.5927 9.35444 20.5959C9.44991 20.6072 9.63444 20.5473 9.72671 20.5716C9.78224 20.589 9.82575 20.6325 9.84319 20.688C9.8626 20.7479 9.84639 20.8239 9.79946 20.8676C9.69919 20.9598 9.60372 21.0473 9.58431 21.1236C9.609 21.1425 9.63271 21.1625 9.65535 21.1838C8.85473 20.9798 8.08442 20.6714 7.36426 20.2665V20.2655Z" fill="#CEB052"/>
<path fill-rule="evenodd" clip-rule="evenodd" d="M15.9806 17.0324C15.9806 17.0324 16.233 16.6959 16.3204 16.5292C16.4078 16.3573 16.0437 14.1813 16.0437 14.1813L16.7752 11.785L16.7556 11.005C16.7556 11.005 16.7913 10.2849 16.8754 9.97259C16.9758 10.1522 17.2881 10.3691 17.3561 10.4839C17.3881 10.2638 17.4968 9.79947 17.4806 9.30432C17.5405 9.39648 17.6845 10.3237 17.6845 10.3237L17.8285 10.9483L18.0162 11.6117L18.225 12.3124L18.3496 12.7963L18.4207 12.9127L18.4806 13.1166L18.5373 13.3367L18.7007 13.8529L18.7967 14.2768L18.8728 15.0454C18.8893 15.1043 18.9012 15.1644 18.9084 15.2251C18.9116 15.3092 18.8971 15.3578 18.8971 15.3724C18.8971 15.387 18.9246 15.5568 18.9133 15.6847C18.8971 15.8127 18.8971 15.9129 18.7967 16.0047C18.6963 16.0965 18.6333 16.6454 18.6333 16.6454L18.4537 16.5258C18.4537 16.5258 18.4893 16.3622 18.4051 16.2134C18.321 16.0646 18.1576 16.0338 18.0653 16.0581C17.9731 16.0775 17.7887 16.1066 17.7288 16.1584C17.6721 16.2101 17.533 16.3703 17.4051 16.4432C17.2451 16.5392 16.9844 16.5468 16.8453 16.5791C16.7045 16.6111 16.5492 16.7071 16.3857 16.8186C16.2575 16.9016 16.1221 16.973 15.9812 17.0319L15.9806 17.0324Z" fill="#CCA847"/>
<path fill-rule="evenodd" clip-rule="evenodd" d="M15.9806 20.5679C15.9806 20.5679 15.9913 20.5749 16.0118 20.5862C17.1615 20.0476 18.1915 19.2841 19.0412 18.3408C19.0319 18.0134 19.0198 17.6777 19.0066 17.5533C18.9792 17.2895 18.9986 17.0209 18.9905 16.8656C18.9824 16.7103 18.895 16.0776 18.8546 15.9142C18.8109 15.7508 18.7266 15.6698 18.7138 15.6698C18.7025 15.6731 18.6345 15.9773 18.6345 16.0538C18.6345 16.1303 18.6182 16.3144 18.6182 16.3613C18.6069 16.358 18.6021 16.3293 18.6021 16.3176C18.5859 16.358 18.5665 16.4293 18.5584 16.4374C18.5503 16.4455 18.5697 16.3694 18.5584 16.3532C18.5471 16.337 18.5264 16.3451 18.5309 16.3047C18.5328 16.2807 18.5366 16.2569 18.5422 16.2335C18.5422 16.2335 18.4937 16.3047 18.4581 16.4859C18.4225 16.6655 18.4225 16.6704 18.4096 16.6865C18.3983 16.7061 18.3336 16.7707 18.3302 16.795C18.327 16.8387 18.3902 16.8824 18.395 16.9066C18.3982 16.9471 18.3384 17.1348 18.3189 17.2266C18.2995 17.3184 18.3076 17.4984 18.2869 17.5907C18.2707 17.6748 18.2549 17.7233 18.1996 17.7589C18.24 17.767 18.2788 17.7783 18.2788 17.7783C18.2788 17.7783 18.3355 18.0177 18.1915 18.2217C18.1397 18.2928 18.1268 18.3253 18.0718 18.39C17.9633 18.5097 17.8792 18.646 17.871 18.7347C17.8654 18.7085 17.8617 18.682 17.8597 18.6553C17.8597 18.6553 17.6915 18.8511 17.6203 18.9628C17.5281 19.1068 17.4002 19.0987 17.3643 19.1343C17.3283 19.17 17.3205 19.2346 17.3323 19.2864C17.3003 19.2944 17.2401 19.3059 17.1996 19.4304C17.1802 19.4951 17.1316 19.5584 17.0556 19.602C16.9795 19.6455 16.8873 19.6586 16.8403 19.6699C16.8808 19.6812 16.897 19.6812 16.9164 19.6941C16.8922 19.7345 16.7805 19.7977 16.6559 19.8787C16.5313 19.9547 16.4714 20.0663 16.4406 20.1391C16.4086 20.2071 16.3614 20.2508 16.2853 20.2589C16.3173 20.2783 16.3647 20.3236 16.3889 20.3382C16.3533 20.3463 16.2929 20.3463 16.1851 20.4385C16.0718 20.5324 16.033 20.5599 15.9811 20.568L15.9806 20.5679Z" fill="#C39D3C"/>
<path fill-rule="evenodd" clip-rule="evenodd" d="M13.729 21.3179C13.791 21.2745 13.8581 21.2389 13.9288 21.212C14.1812 21.1117 14.4482 21.0923 14.5534 21.06C14.6537 21.028 14.733 20.9838 14.8576 20.9596C14.8543 20.988 14.8515 21.0146 14.8485 21.0398C14.4812 21.1553 14.1072 21.2481 13.7285 21.3179H13.729Z" fill="#D2BA6B"/>
<path fill-rule="evenodd" clip-rule="evenodd" d="M18.3841 14.6797C18.3841 14.6797 18.3324 14.9596 18.2401 15.1361C18.1478 15.3125 18.0481 15.5567 18.0481 15.5567C18.0487 15.5017 18.0552 15.4469 18.0675 15.3932C17.951 15.4612 17.6678 15.6247 17.5875 15.6974C17.5114 15.7654 17.3836 15.8852 17.3512 15.9418C17.4273 15.7186 17.5065 15.5179 17.5196 15.4257C17.4031 15.5098 16.8593 15.958 16.5762 16.2541L15.6943 16.9677C15.5925 17.0226 15.4877 17.0717 15.3804 17.1147C15.2284 17.1794 15.0487 17.2344 14.916 17.2862C14.9517 17.1908 15.0082 17.1065 15.0876 17.0257C15.1717 16.9464 15.4241 16.6729 15.4629 16.5457C15.4985 16.413 15.5066 16.3337 15.4597 16.222C15.416 16.2333 15.3157 16.2382 15.2478 16.2577C15.1798 16.2771 15.107 16.3498 15.107 16.3498C15.107 16.3498 15.1587 16.0537 15.2704 15.7738C15.1862 15.777 15.0422 15.8012 15.0422 15.8012C15.0422 15.8012 15.2429 15.4647 15.5862 15.2301C15.4811 15.2525 15.3782 15.2844 15.2788 15.3255C15.0782 15.4097 14.8581 15.5342 14.6947 15.6022C14.7869 15.4742 15.4341 14.5505 15.8193 13.6895C16.2033 12.8303 16.3468 12.6103 16.4309 12.1492C16.4745 11.921 16.4629 11.5838 16.4745 11.2819C16.4858 10.9825 16.5231 10.7139 16.4989 10.5342C16.5991 10.6588 16.9746 11.01 16.9875 11.7948C16.9988 12.5796 16.6284 13.6395 16.2351 14.2106C16.3311 14.2381 16.5798 14.2706 16.8354 13.8266C17.091 13.3827 17.0879 13.2587 17.1801 13.0742C17.1914 13.1665 17.1881 13.1988 17.1881 13.1988C17.1881 13.1988 17.5604 12.7474 17.7367 12.1794C17.7724 12.4237 17.8775 12.639 17.7124 13.0872C17.5652 13.4917 17.3727 13.5905 17.3727 13.5905C17.3727 13.5905 17.4681 13.5742 17.6088 13.4901C17.6332 13.5499 17.6284 13.6181 17.6688 13.6422C17.7092 13.6663 17.7642 13.7069 17.7724 13.7458C17.816 13.681 17.8839 13.5985 17.905 13.537C17.8888 13.665 17.8775 14.2247 17.937 14.5095C18.0617 14.4982 18.1895 14.4901 18.2769 14.2651C18.217 14.4853 18.217 14.6179 18.2575 14.8056C18.3238 14.7604 18.3837 14.6794 18.3837 14.6794L18.3841 14.6797Z" fill="#C0993A"/>
<path fill-rule="evenodd" clip-rule="evenodd" d="M14.1798 5.76056C14.1798 5.76056 14.0552 5.8123 13.8433 5.8123C13.6588 5.8123 13.7106 5.74115 13.4226 5.74115C12.9793 5.74115 11.4307 5.99715 11.1588 5.99352C10.9824 5.99032 11.7542 6.06958 11.7542 6.06958L13.7268 6.0971L14.1232 6.0651L14.2705 5.76536L14.1798 5.76056Z" fill="#A88F33"/>
<path fill-rule="evenodd" clip-rule="evenodd" d="M9.06471 9.61652C9.06471 9.61652 8.81223 9.80905 8.70545 9.95636C8.59868 10.1037 8.54204 10.2006 8.42065 10.3204C8.44915 10.3215 8.47762 10.3177 8.50481 10.3091C8.50481 10.3091 8.50481 10.3411 8.4854 10.3495C8.51938 10.3457 8.55325 10.3575 8.57756 10.3815C8.54193 10.4009 8.44487 10.4981 8.52092 10.613C8.57756 10.7004 8.69735 10.7084 8.69735 10.7084C8.69735 10.7084 8.66983 10.7877 8.78471 10.7796C9.03228 10.7683 9.30897 10.6598 9.43676 10.6873C9.56476 10.7193 9.63751 10.7311 9.72807 10.8881C9.82407 11.0434 9.90769 11.0677 9.90769 11.0677C9.90769 11.0677 9.96433 10.9236 9.95143 10.7085C9.99787 10.5925 10.0236 10.4693 10.0275 10.3444L9.94332 9.72468L9.57607 9.26025L9.10033 9.52404L9.06471 9.6162V9.61652Z" fill="#E3C571"/>
<path fill-rule="evenodd" clip-rule="evenodd" d="M9.51611 9.52428C9.51611 9.52428 9.55174 9.60844 9.70065 9.61644C9.68443 9.65207 9.68443 9.65698 9.68934 9.68439C9.69254 9.71191 9.69734 9.75234 9.69734 9.75234C9.71373 9.74441 9.72855 9.73356 9.74107 9.72034C9.74918 9.75596 9.73297 9.8125 9.74107 9.85303C9.74608 9.87768 9.75421 9.90159 9.76529 9.92418C9.76765 9.91864 9.77035 9.91326 9.77339 9.90807C9.77659 9.89996 9.80539 9.99543 9.88507 10.0681C9.885 10.0569 9.88776 10.0459 9.89307 10.0361C9.89429 10.0564 9.901 10.0759 9.91249 10.0927C9.90652 10.0899 9.90108 10.086 9.89638 10.0814C9.89638 10.0814 9.90438 10.3374 9.94811 10.4698C9.95542 10.4612 9.96192 10.452 9.96753 10.4423C9.96753 10.4343 9.96433 10.5135 9.95622 10.5703C9.94491 10.6269 9.95302 10.7062 9.95302 10.7062C9.98219 10.6832 10.0143 10.6641 10.0484 10.6495C10.0969 10.63 10.1764 10.5702 10.2248 10.4375C10.2529 10.3623 10.2746 10.2849 10.2896 10.2061C10.3052 10.2362 10.316 10.2686 10.3216 10.3021C10.3249 10.3425 10.4009 10.3215 10.4009 10.3215L10.4171 10.1451L10.5131 9.7454L10.6005 9.49783L11.0212 8.84258L11.7813 8.25719L12.4448 8.4093L13.0045 7.64876L12.0402 7.06946L11.1275 7.16492L10.2993 8.31212L9.6359 9.35266L9.51611 9.52418L9.51611 9.52428Z" fill="#D8B65B"/>
<path fill-rule="evenodd" clip-rule="evenodd" d="M14.296 7.86403C14.296 7.86403 14.2394 7.87534 14.076 7.96003C13.9125 8.04473 13.7993 8.07161 13.7361 8.19619C13.673 8.32078 13.6682 8.41955 13.6682 8.41955C13.6682 8.41955 13.7798 8.37102 13.8446 8.35481C13.9125 8.3387 13.9886 8.3435 13.9805 8.37102C13.9727 8.38989 13.9619 8.40736 13.9485 8.42275C13.9485 8.42275 14.0765 8.41955 14.0731 8.4827C14.0697 8.54585 14.0489 8.61539 14.0246 8.64611C14.0003 8.67811 13.9001 8.72547 13.8888 8.7627C13.8612 8.83875 13.9001 8.84195 13.8854 8.90339C13.8741 8.96334 13.8208 9.07982 13.646 9.28366C13.4664 9.48761 13.39 9.63161 13.39 9.63161C13.39 9.63161 13.3026 9.46819 13.2573 9.32739C13.2253 9.3435 13.0534 9.43897 13.0534 9.43897L12.6554 8.0523L12.6634 7.96003C12.6634 7.96003 12.699 7.91641 12.7071 7.83545C12.6473 7.81603 12.6392 7.79982 12.5598 7.72387C12.4804 7.64793 12.4158 7.55555 12.2832 7.49241C12.2638 7.45678 12.2395 7.40835 12.1424 7.38883C12.0453 7.36931 11.9871 7.35331 11.9871 7.35331C11.9871 7.35331 12.0388 7.33379 12.0632 7.29337C12.0032 7.30147 11.9548 7.32089 11.8237 7.31769C11.691 7.31438 11.6764 7.30958 11.6036 7.32089C11.5309 7.33219 11.4436 7.36462 11.4111 7.25294C11.3755 7.22542 11.2994 7.24974 11.2347 7.3451C11.1699 7.44046 11.1473 7.51662 11.0227 7.55385C11.014 7.60876 10.9947 7.66149 10.9661 7.70915C10.9305 7.7691 10.8738 7.82894 10.7978 7.9179C10.678 8.0587 10.6974 8.29006 10.5065 8.46649C10.3139 8.64281 10.5385 7.97774 10.5385 7.97774L10.8459 7.24174L11.7213 6.38574L13.0805 6.29358L13.2132 6.99758L13.8767 7.22574L14.2958 7.86489L14.296 7.86403Z" fill="#D3AE4D"/>
<path fill-rule="evenodd" clip-rule="evenodd" d="M14.5113 8.0194L13.9401 7.19583L13.5405 6.88831C13.5405 6.88831 13.2557 6.36415 13.2362 6.34794C13.22 6.33663 12.9514 6.30751 12.7799 6.2962L12.8119 6.37546C12.8494 6.38762 12.8826 6.41005 12.9079 6.4402C12.984 6.52756 13.0325 6.69258 12.8594 6.869C12.9273 6.89322 12.9554 6.901 13.0147 6.89322C12.9549 6.96447 12.819 7.11658 12.8109 7.24927C12.8028 7.35764 12.8707 7.38996 12.8707 7.38996C12.8707 7.38996 12.7671 7.50975 12.7623 7.70996C12.8112 7.65481 12.8648 7.60392 12.9223 7.55786C13.0421 7.46186 13.2071 7.35391 13.3188 7.28596C13.3173 7.31448 13.3211 7.34302 13.3301 7.37012C13.3301 7.37012 13.5388 7.1986 13.7141 7.27466C13.7934 7.31028 13.7577 7.42196 13.7577 7.42196C13.7577 7.42196 13.8662 7.38154 13.9423 7.45759C14.0183 7.53364 14.1267 7.72938 14.1817 7.80554C14.206 7.84116 14.2691 7.90911 14.3337 8.01418C14.4221 8.16145 14.4958 8.317 14.5539 8.4786C14.5571 8.41386 14.5701 8.3233 14.6819 8.3233L14.512 8.01908L14.5113 8.0194Z" fill="#CAA13E"/>
<path fill-rule="evenodd" clip-rule="evenodd" d="M5.94839 10.3592C5.94839 10.3592 5.90796 10.2588 5.94839 10.0631C5.98881 9.86738 6.05196 9.77511 6.07297 9.48711C6.09399 9.19911 6.28172 8.83986 6.28172 8.83986L6.80108 8.6037L7.16844 8.70397L7.27681 9.19591L6.81239 9.45191C6.81239 9.45191 6.78817 9.56029 6.65708 9.64765C6.52599 9.73501 6.34476 9.80295 6.30113 9.89202C6.27505 9.94656 6.25602 10.0042 6.24449 10.0635C6.24449 10.0635 6.1118 10.036 6.03255 10.1234C5.94839 10.2124 5.95159 10.2917 5.94839 10.3596V10.3592Z" fill="#F4EFC8"/>
<path fill-rule="evenodd" clip-rule="evenodd" d="M6.99685 10.2281C6.99685 10.2281 6.95311 10.2557 6.92079 10.3241C6.88879 10.2724 6.81231 9.96488 6.80911 9.68819C6.80591 9.4115 6.78938 9.34291 6.85338 9.24755C6.91738 9.15219 7.16837 9.05171 7.13274 8.87998C7.09711 8.71657 6.94821 8.64862 6.76538 8.69555C6.63738 8.72755 6.54213 8.99977 6.40943 9.13566C6.30906 9.23923 6.18938 9.22302 6.15706 9.27966C6.11333 9.35571 6.15375 9.43177 6.14085 9.4803C6.13754 9.49651 6.09711 9.58387 6.02426 9.68904C5.87706 9.90099 5.62789 10.2004 5.59546 10.469C5.60677 10.3169 5.59877 10.3137 5.63919 10.1454L5.61487 10.1049L5.77487 9.58067L5.87845 9.14867L6.10991 8.42526L6.51759 7.68584L6.91407 7.24243L7.32666 7.26995L7.37519 7.88968L7.61146 9.05321L8.10821 9.66483L7.31205 10.2006L6.99653 10.2281H6.99685Z" fill="#EBCC73"/>
<path fill-rule="evenodd" clip-rule="evenodd" d="M7.2444 10.448C7.2444 10.448 7.17646 10.4642 7.15214 10.4513C7.12782 10.4384 7.10371 10.4238 7.11171 10.4075C7.11971 10.3913 7.16344 10.3639 7.16344 10.3509C7.16531 10.3265 7.1474 10.305 7.12302 10.3024C7.08579 10.2976 7.07448 10.3218 7.07448 10.3218C7.07448 10.3218 7.03886 10.2944 7.00984 10.2898C7.02701 10.2877 7.04428 10.2866 7.06158 10.2865C7.01686 10.2662 6.96943 10.2526 6.92078 10.2461C6.9612 10.2218 7.04056 10.1506 7.0923 10.1506C7.14403 10.1506 7.17646 10.1426 7.16835 10.1151C7.16024 10.0875 7.11982 10.0471 7.07619 10.0309C7.0923 10.0115 7.10371 9.98237 7.06488 9.9029C7.02435 9.82365 7.04056 9.77021 7.05358 9.7509C7.06488 9.72658 7.10531 9.68296 7.12472 9.65544C7.14414 9.62792 7.16035 9.59069 7.19267 9.57128C7.20888 9.55997 7.26062 9.53928 7.31246 9.51954C7.3691 9.50013 7.41603 9.47581 7.44835 9.50013C7.48398 9.52434 7.46776 9.55677 7.46776 9.55677C7.46776 9.55677 7.57944 9.51624 7.67971 9.56808C7.78008 9.6165 8.02446 9.64733 8.02446 9.64733L8.11203 9.82376L7.53272 10.3205L7.29326 10.4403L7.24472 10.4483L7.2444 10.448Z" fill="#E5C66B"/>
<path fill-rule="evenodd" clip-rule="evenodd" d="M8.04851 9.63593C8.04851 9.63593 7.86888 9.75571 7.82845 9.79934C7.85267 9.80265 7.89309 9.81886 7.87688 9.84307C7.85747 9.86729 7.74099 9.95145 7.67624 10.0308C7.60829 10.1101 7.54355 10.2104 7.52093 10.259C7.49672 10.3026 7.31219 10.4305 7.24915 10.4466C7.38184 10.4466 7.64883 10.2832 7.74909 10.2832C7.74589 10.3317 7.77661 10.3868 7.83325 10.3916C7.88989 10.3964 8.05331 10.4272 8.27336 10.2913C8.49341 10.1586 8.42067 10.0598 8.51283 9.99518C8.68925 9.87859 8.7604 9.77502 8.85747 9.71038C8.95453 9.64574 9.00477 9.63102 9.00477 9.63102C9.00477 9.63102 9.00797 9.58249 9.03677 9.58739C9.05284 9.58923 9.06656 9.59983 9.0724 9.61491C9.0724 9.61491 9.24072 9.49513 9.4564 9.46281C9.45137 9.46056 9.44734 9.45653 9.44509 9.4515C9.44509 9.4515 9.4612 9.44339 9.46451 9.43529C9.46451 9.43529 9.47581 9.41907 9.48392 9.42718C9.49203 9.43529 9.50333 9.49513 9.51955 9.51945C9.55517 9.50323 9.62312 9.35113 9.62312 9.35113L9.78664 8.8835V8.4563L9.65864 8.48062L8.69864 8.8883L8.11603 9.49193L8.04808 9.63593H8.04851Z" fill="#E6BD62"/>
<path fill-rule="evenodd" clip-rule="evenodd" d="M10.8123 7.54051C10.8642 7.52791 10.914 7.50771 10.96 7.48056C10.9406 7.5324 10.9406 7.58904 10.8565 7.71203C10.7723 7.83502 10.7691 7.85283 10.7011 7.98062C10.6332 8.11331 10.6251 8.30424 10.5603 8.3883C10.5894 8.3742 10.6205 8.36494 10.6525 8.36088C10.6525 8.36088 10.5879 8.41752 10.5603 8.47736C10.5328 8.5372 10.4843 8.66179 10.3646 8.73795C10.2449 8.81411 10.0927 8.86254 9.92931 9.04216C9.76579 9.21848 9.59757 9.44184 9.51331 9.52216C9.55704 9.44611 9.61688 9.294 9.63309 9.19374C9.64931 9.09347 9.62979 8.97358 9.65731 8.84099C9.68483 8.7084 9.68483 8.61283 9.81731 8.38136C9.94979 8.1499 10.1766 7.34574 10.1766 7.34574L10.6652 7.19043L10.8125 7.53998L10.8123 7.54051Z" fill="#B6933F"/>
<path fill-rule="evenodd" clip-rule="evenodd" d="M10.4595 7.24434C10.4595 7.24434 10.3123 7.45628 10.2719 7.64402C10.2315 7.83175 10.2686 7.81554 10.2444 7.9078C10.2299 7.96406 10.2299 8.02307 10.2444 8.07932C10.2954 7.9972 10.3652 7.92838 10.448 7.87858C10.5872 7.79452 10.7005 7.73458 10.768 7.66343C10.836 7.58738 10.8926 7.46279 11.0398 7.36732C10.98 7.35922 10.8958 7.3317 10.8798 7.33532C10.9397 7.26738 11.1193 7.1638 11.3005 7.03922C11.4801 6.91122 11.4688 6.85959 11.7601 6.7318C11.6646 6.74802 11.6193 6.7237 11.54 6.7318C11.572 6.66386 11.684 6.63143 11.796 6.51986C11.908 6.40828 11.7248 6.24316 11.7248 6.24316L10.8715 6.75932L10.4589 7.24476L10.4595 7.24434Z" fill="#C49937"/>
<path fill-rule="evenodd" clip-rule="evenodd" d="M8.14392 6.85923L8.16333 6.70392L8.40771 6.31235L8.66339 5.62467V4.68451L8.64397 4.14083L8.6844 3.78478L8.71512 3.6716L8.74755 3.62787L8.95619 3.73624L9.24429 4.12782L9.27181 4.88355L8.99181 6.07608L8.19245 6.9483L8.14392 6.85923Z" fill="#DFC068"/>
<path fill-rule="evenodd" clip-rule="evenodd" d="M8.77997 3.58415C8.77997 3.58415 8.65197 3.58746 8.62467 4.11983C8.59736 4.6522 8.58413 4.9321 8.56472 5.19588C8.54531 5.45967 8.50008 5.61978 8.47736 5.77519C8.45464 5.9306 8.44173 6.14244 8.36899 6.27194C8.33699 6.33178 8.26861 6.51951 8.1084 6.66031C7.92877 6.81562 7.6604 6.9241 7.61976 6.9322C7.54851 6.94831 7.18765 6.98394 7.04045 7.0649C6.98872 7.09242 6.89965 7.12474 6.80099 7.217C6.60515 7.39332 6.34467 7.70884 6.15693 8.08911C5.86893 8.65711 5.58093 10.2606 5.58093 10.2606L5.64568 10.1523C5.64568 10.1523 5.65379 10.0083 5.79779 9.75578C5.93859 9.5034 5.89816 9.2202 6.09389 8.73636C6.16995 8.55194 6.26541 8.31247 6.38189 8.10852C6.56643 7.77679 6.78968 7.49199 7.01464 7.33668C7.38189 7.08431 7.78648 7.02927 7.78648 7.02927L8.22179 6.74127C8.22179 6.74127 8.29784 6.59407 8.39821 6.42575C8.53891 6.18959 8.71821 5.9258 8.75736 5.54234C8.81731 4.97434 8.6732 4.60218 8.68131 4.26564C8.68941 3.92911 8.69261 3.68154 8.76067 3.62159C8.82872 3.56164 8.78008 3.58436 8.78008 3.58436L8.77997 3.58415Z" fill="#A88F33"/>
<path fill-rule="evenodd" clip-rule="evenodd" d="M8.78 6.12451C8.78 6.12451 8.972 5.65197 9.05989 5.23288C9.0761 5.14872 9.10842 5.06467 9.11653 4.99672C9.15696 4.60024 9.16826 4.43683 9.11653 4.21997C9.0761 4.05997 8.9208 3.91576 8.83984 3.80397C8.76058 3.68739 8.72336 3.64397 8.73957 3.61944C8.75578 3.59491 8.81882 3.5548 8.88026 3.5596C9.01225 3.56344 9.13687 3.62128 9.22501 3.7196C9.3496 3.8636 9.44826 4.35235 9.44826 4.35235L9.55205 4.99725L9.81584 5.80952L8.78021 6.12515L8.78 6.12451Z" fill="#C99E3D"/>
<path fill-rule="evenodd" clip-rule="evenodd" d="M10.5841 5.63274C10.5841 5.63274 10.5485 5.64884 10.4838 5.63274C10.4894 5.68659 10.4644 5.73907 10.4191 5.76863C10.3511 5.74111 9.71507 5.79615 9.71507 5.79615C9.71507 5.79615 9.41896 5.74431 9.32669 5.35274C9.26205 5.09215 9.37523 4.733 9.338 4.49674C9.28136 4.14879 9.20211 4.08074 9.194 3.97247C9.18589 3.8642 9.17779 3.83658 9.17779 3.76863C9.14216 3.76052 9.12115 3.74922 9.08563 3.74922C9.07752 3.71722 9.09363 3.68927 9.05811 3.63263C9.07752 3.64074 9.21021 3.65695 9.36552 3.80415C9.49352 3.92394 9.49352 3.96756 9.51283 3.99188C9.53704 4.0161 9.73288 4.18388 9.81704 4.35114C9.9012 4.51839 10.0646 5.05172 10.1018 5.13908C10.1131 5.17471 10.1375 5.21034 10.1978 5.29119C10.2917 5.40778 10.4292 5.60052 10.5845 5.63252L10.5841 5.63274Z" fill="#B58634"/>
<path fill-rule="evenodd" clip-rule="evenodd" d="M9.53564 4C9.63367 4.15835 9.72173 4.32265 9.79932 4.49195C9.89479 4.70709 9.95143 4.88352 10.0712 5.02752C10.0065 4.83989 9.89159 4.47093 9.82364 4.33984C9.74759 4.20117 9.59228 4.05184 9.53564 4.00011V4Z" fill="#A88F33"/>
<path fill-rule="evenodd" clip-rule="evenodd" d="M8.43544 6.66026C8.43544 6.66026 8.27203 6.70069 7.96782 6.8609C7.86744 6.91264 7.77208 6.95626 7.67982 6.9968C7.44014 7.10517 7.18307 7.20533 6.97912 7.26058C6.99534 7.28 7.00334 7.288 7.00334 7.288C7.00334 7.288 7.00334 7.36736 7.04707 7.41258C7.02286 7.4369 6.69912 7.65696 6.7947 8.39317C6.85934 8.36896 6.93539 8.33653 6.9467 8.33653C6.96622 8.33984 6.97102 8.39317 6.99523 8.39317C7.01944 8.39317 7.0988 8.36117 7.18296 8.25237C7.17976 8.2961 7.13123 8.73621 7.39171 9.03232C7.44024 8.97568 7.56323 8.78794 7.56323 8.78794L7.56643 8.7281C7.56643 8.7281 7.57774 8.51936 7.64579 8.32842C7.71384 8.13749 7.84643 7.99669 7.84643 7.99669L8.5388 7.008L8.43523 6.66016L8.43544 6.66026Z" fill="#E6C367"/>
<path fill-rule="evenodd" clip-rule="evenodd" d="M7.78791 8.11199C7.75621 8.13439 7.72129 8.15184 7.68434 8.16373C7.67303 8.1233 7.65682 7.9841 7.75229 7.84821C7.86397 7.68469 8.10823 7.47274 8.17618 7.30421C8.21991 7.19573 8.2005 6.92394 8.58887 6.57599C8.97725 6.22805 9.12925 6.10837 9.12925 6.10837L9.75709 5.79285L10.5289 6.09706L10.1455 7.59999L9.84775 8.30399L8.66375 8.08074L7.78781 8.11199H7.78791Z" fill="#DCBA5A"/>
<path fill-rule="evenodd" clip-rule="evenodd" d="M8.23999 7.70394L8.3873 7.51951V7.38842C8.3873 7.38842 8.55071 7.34469 8.72703 7.16506C8.90335 6.98543 9.14772 6.64079 9.36298 6.66181C9.57823 6.68613 9.59924 7.12943 9.60735 7.25413C9.61546 7.37882 9.64298 7.66181 9.6866 7.81402C9.73514 7.96613 9.16234 8.54213 9.16234 8.54213L8.77332 8.83823L8.23999 7.70394Z" fill="#E9CE77"/>
<path fill-rule="evenodd" clip-rule="evenodd" d="M8.69568 9.23951C8.69568 9.23951 8.81547 9.05177 8.72768 9.01135C8.77941 8.89487 8.87488 8.77188 8.87488 8.77188C8.87488 8.77188 8.94283 8.60367 9.16288 8.39652C9.38293 8.18937 9.51893 8.05177 9.55456 7.91268C9.57652 7.82203 9.58847 7.72924 9.59019 7.63599C9.61397 7.65542 9.63942 7.67273 9.66624 7.68772C9.70187 7.70393 9.87008 7.84303 9.84587 8.12303C9.82165 8.40303 9.71787 8.51951 9.71787 8.51951C9.71787 8.51951 9.6176 8.61977 9.54645 8.67161C9.47029 8.72335 9.44288 8.78319 9.31499 8.78809C9.32813 8.77764 9.34291 8.76943 9.35872 8.76377C9.35872 8.76377 9.22603 8.74767 9.15477 8.81231C9.08352 8.87695 8.93205 9.07609 8.856 9.13604C8.77995 9.18457 8.696 9.23961 8.696 9.23961L8.69568 9.23951Z" fill="#CDAE50"/>
<path fill-rule="evenodd" clip-rule="evenodd" d="M14.076 6.09214C13.8848 6.02246 13.6839 5.98316 13.4806 5.97566C13.1408 5.96435 12.644 5.98376 12.157 5.98696C11.6327 5.99016 11.157 5.80734 10.4968 5.77502C10.3884 5.71027 10.1128 5.42707 9.25244 6.02739C9.30417 6.02419 9.87708 5.8947 10.076 6.14398C10.2767 6.39155 10.22 6.81224 10.1926 6.91251C10.1408 7.13587 9.97244 7.4611 9.9046 7.68926C9.83676 7.91742 9.85276 8.03731 9.80423 8.19731C9.75569 8.35731 9.64892 8.43678 9.71196 8.6212C9.79612 8.56947 9.83996 8.56947 9.98055 8.25395C10.1211 7.93843 10.0922 7.71347 10.3253 7.44648C10.5535 7.1779 10.9333 6.81054 11.0777 6.71827C11.2221 6.626 12.3689 6.03059 13.5697 6.59859C13.8593 6.56787 14.0761 6.09203 14.0761 6.09203L14.076 6.09214Z" fill="#D2A83E"/>
<path fill-rule="evenodd" clip-rule="evenodd" d="M9.73629 5.87202C9.7351 5.85986 9.73241 5.84789 9.72829 5.83639C9.71706 5.81273 9.70232 5.7909 9.68456 5.77165C9.68456 5.77165 9.39976 5.71991 9.25576 5.73602C9.00328 5.76354 8.77512 6.07586 8.66834 6.23607C8.56157 6.39629 8.42888 6.64375 8.28488 6.77165C8.28645 6.75919 8.28358 6.74657 8.27677 6.73602C8.27677 6.73602 8.28488 6.74733 8.26877 6.76354C8.25266 6.77975 8.25256 6.78775 8.26066 6.79554L8.28498 6.81975C8.29298 6.81975 8.51634 6.71938 8.82056 6.43575C9.14418 6.13965 9.39176 5.98775 9.52125 5.9357C9.59031 5.90635 9.66249 5.88499 9.7364 5.87202H9.73629Z" fill="#C29637"/>
<path fill-rule="evenodd" clip-rule="evenodd" d="M15.2606 4.65533C15.2606 4.65533 15.2087 4.71997 15.144 4.79123C15 4.94333 14.8123 5.11475 14.652 5.29117C14.5 5.45949 14.3285 5.59059 14.1359 5.81064C13.9432 6.03069 13.7199 6.27496 13.6634 6.34621C13.6116 6.41747 13.5712 6.53395 13.5712 6.59379C13.5437 6.57437 13.5114 6.55336 13.5114 6.55336C13.525 6.57877 13.5412 6.60265 13.5599 6.62461C13.6003 6.68125 13.6634 6.75261 13.6958 6.79613C13.7356 6.85154 13.7641 6.91419 13.7798 6.98056C13.7992 6.98376 13.9238 7.00808 14.0792 6.7524C14.2347 6.49672 14.4384 6.21683 14.4384 6.21683L14.762 5.73619L14.966 5.32851L15.222 4.87219L15.2609 4.65533H15.2606Z" fill="#AC8132"/>
<path fill-rule="evenodd" clip-rule="evenodd" d="M15.5925 4.32855C15.5925 4.32855 15.3966 4.48855 15.3206 4.58455C15.2445 4.68055 15.0646 4.9325 15.0646 4.9325L15.1293 4.92439L15.4579 4.63319L15.5859 4.40503L15.5924 4.32898L15.5925 4.32855Z" fill="#A88F33"/>
<path fill-rule="evenodd" clip-rule="evenodd" d="M15.5323 17.1877C15.5323 17.1877 15.5291 17.055 15.6036 16.9758C15.6797 16.8964 15.8722 16.78 16.0599 16.343C16.2477 15.9061 16.2686 15.8075 16.2686 15.8075C16.2686 15.8075 15.932 16.0955 15.7246 16.1634C15.7731 16.063 15.8006 15.9919 15.8249 15.9401C15.7974 15.9158 15.6809 15.8883 15.6696 15.8754C15.7343 15.8107 15.7699 15.6521 15.901 15.5469C16.0693 15.4189 16.3767 15.1989 16.6157 15.0029C16.8546 14.8068 17.3243 14.3508 17.3843 14.2181C17.4199 14.2699 17.4279 14.3022 17.4279 14.3022C17.4279 14.3022 17.1918 14.6097 17.0688 14.8054C16.9603 14.9738 16.9684 15.0692 16.9684 15.0692L17.1918 14.9732C17.1918 14.9732 17.2564 15.2127 16.9636 15.5769C17.0916 15.5283 17.1432 15.5574 17.216 15.5169C17.0962 15.5931 16.9312 15.6966 16.7759 15.9813C16.6238 16.2661 16.4166 16.5979 16.0672 16.8049C15.7273 17.0234 15.5315 17.1868 15.5315 17.1868L15.5323 17.1877Z" fill="#A67A2E"/>
<path fill-rule="evenodd" clip-rule="evenodd" d="M14.6554 6.26055C14.6554 6.26055 14.5227 6.53714 14.5033 6.75239C14.5001 6.80423 14.4871 6.84466 14.4871 6.9045C14.4839 7.09703 14.4984 7.31228 14.4551 7.41255C14.4389 7.37212 14.4308 7.3446 14.4146 7.3285C14.3904 7.39644 14.3466 7.60839 14.311 7.68764C14.2949 7.63591 14.2593 7.45628 14.2626 7.24434C14.2659 7.03239 14.2706 6.99186 14.2706 6.94823C14.2626 7.01287 14.2189 7.10034 14.2026 7.15207C14.1784 7.10844 14.1509 7.0518 14.1185 7.00487C14.0991 7.03687 14.0749 7.08412 14.0538 7.10844C14.0505 7.08903 14.0425 7.03719 14.0376 6.96444C14.0344 6.88028 14.0295 6.77191 14.0344 6.74919C14.0424 6.70556 14.1105 6.53404 14.2545 6.37703C14.426 6.1893 14.6024 5.82855 14.6542 5.71687C14.7059 5.60519 14.9259 5.14087 14.9259 5.14087H15.0943L14.8499 5.69746C14.8499 5.69746 14.7027 6.00167 14.6266 6.11346C14.5506 6.22524 14.3904 6.54556 14.3191 6.67015C14.3709 6.6022 14.4146 6.56658 14.4664 6.50183C14.5166 6.4565 14.6557 6.26076 14.6557 6.26076L14.6554 6.26055Z" fill="#8C6228"/>
<path fill-rule="evenodd" clip-rule="evenodd" d="M15.5956 4.30743C15.5681 4.39206 15.5246 4.47063 15.4676 4.5389C15.3672 4.65869 15.152 4.81879 15.0469 4.94658C14.9509 5.07117 14.7589 5.41101 14.8461 5.81389C14.8781 5.72653 14.9384 5.55341 15.0986 5.35757C15.2588 5.16173 15.4304 4.93687 15.5146 4.76215C15.5987 4.58573 15.61 4.44663 15.61 4.44663L15.642 4.40621L15.6226 4.31394L15.595 4.30743L15.5956 4.30743Z" fill="#CBA94C"/>
<path fill-rule="evenodd" clip-rule="evenodd" d="M18.8722 15.0404C18.8722 15.0404 18.8075 14.8641 18.7881 14.7039C18.7687 14.5437 18.8201 14.5119 18.7606 14.3285C18.7249 14.2168 18.6603 14.2325 18.6441 14.2168C18.6279 14.2011 18.6166 14.0324 18.6198 13.9401C18.623 13.8479 18.6166 13.7282 18.6004 13.6763C18.5761 13.6569 18.5599 13.6407 18.5243 13.521C18.4839 13.4013 18.4645 13.3414 18.445 13.3059C18.4256 13.2704 18.3689 13.2379 18.3689 13.2023C18.3689 13.1311 18.4336 13.0939 18.4336 13.0743C18.4304 13.0339 18.3819 13.0663 18.3689 13.0549C18.3528 13.0355 18.4094 12.919 18.3884 12.9028C18.3803 12.8948 18.3237 12.9627 18.309 12.9433C18.2928 12.9238 18.2734 12.7313 18.2443 12.6035C18.2169 12.4789 18.1877 12.3883 18.1845 12.3511C18.1813 12.3155 17.9611 11.6877 17.9078 11.5355C17.8648 11.407 17.8286 11.2763 17.7994 11.144C17.7832 11.0679 17.7719 10.9125 17.7638 10.9287C17.7557 10.9449 17.7606 11.0242 17.7476 11.021C17.7362 11.0177 17.6958 10.7411 17.6829 10.6974C17.6716 10.6536 17.6036 10.5054 17.5869 10.3981C17.5707 10.2896 17.5352 10.0064 17.5109 9.81384C17.4865 9.62131 17.4752 9.54205 17.4752 9.49384C17.4792 9.37591 17.4727 9.25787 17.4558 9.14109C17.4238 8.93715 17.3598 8.68957 17.3037 8.54568C17.1953 8.27379 16.9072 7.578 16.8557 7.40488C16.8557 7.36115 16.9124 7.38547 16.9124 7.38547C16.9124 7.38547 17.053 7.73821 17.1566 8.01C17.257 8.28189 17.3525 8.52136 17.3768 8.54568C17.3962 8.56989 17.5483 8.83688 17.6162 9.27379C17.6842 9.71069 17.7084 10.1136 17.7489 10.3822C17.7684 10.5102 17.7846 10.6459 17.825 10.7818C17.8686 10.9291 17.9366 11.0813 18.0256 11.3142C18.1017 11.5101 18.1583 11.6735 18.189 11.8143C18.2247 11.9939 18.2247 12.1298 18.2457 12.2189C18.2652 12.2949 18.2942 12.4469 18.3623 12.6669C18.4303 12.8868 18.5305 13.1701 18.5984 13.3464C18.7312 13.6992 18.7904 13.9937 18.8105 14.1507C18.8282 14.3125 18.8881 14.8724 18.8719 15.0406L18.8722 15.0404Z" fill="#A88F33"/>
<path fill-rule="evenodd" clip-rule="evenodd" d="M15.6036 4.28803L15.5955 4.30745C15.5955 4.30745 15.6197 4.31555 15.6149 4.34798C15.6153 4.39235 15.6126 4.43668 15.6068 4.48067C15.5988 4.53731 15.5826 4.58094 15.5794 4.61657C15.5794 4.69262 15.5907 4.77998 15.4834 4.99683C15.4514 5.05667 15.4317 5.10841 15.4155 5.14403C15.375 5.23139 15.3669 5.24441 15.3313 5.28483C15.3879 5.25283 15.5919 5.12483 15.6954 5.14403C15.6242 5.18446 15.5157 5.26382 15.4478 5.36739C15.464 5.37059 15.5319 5.38361 15.6398 5.36739C15.8194 5.33987 16.02 5.27513 16.1964 5.28803C16.389 5.29934 16.313 5.05667 16.313 5.05667L16.0907 4.56803L15.67 4.27203L15.6036 4.28814V4.28803Z" fill="#BE9C44"/>
<path fill-rule="evenodd" clip-rule="evenodd" d="M16.7007 7.94824C16.7007 7.94824 16.513 7.76051 16.4369 7.11624C16.3609 6.46899 16.3771 5.51624 16.3771 5.51624L16.225 5.14408C16.225 5.14408 16.193 4.89651 16.1133 4.80435C16.0336 4.71219 15.8771 4.55677 15.8059 4.48072C15.7346 4.40467 15.6538 4.30109 15.6052 4.28488C15.6294 4.24445 15.7379 4.01629 16.1537 4.01309C16.5695 4.00989 16.6977 4.24125 16.7411 4.32541C16.7845 4.40957 16.9806 4.77341 17.0533 5.46675C17.1213 6.15923 17.1246 6.21107 17.1133 6.45053C17.1052 6.58323 17.0614 6.89064 16.9853 7.21907C16.9157 7.49747 16.8397 7.80819 16.7005 7.94888L16.7007 7.94824Z" fill="#A17C34"/>
<path fill-rule="evenodd" clip-rule="evenodd" d="M16.112 8.50007C16.1746 8.50459 16.2371 8.49048 16.2916 8.45954C16.3515 8.45634 16.5683 8.48386 16.7349 8.27191C16.7463 8.32034 16.7755 8.45154 16.6993 8.56802C16.7399 8.52748 16.7997 8.51138 16.8078 8.50007C16.811 8.55991 16.8676 8.74434 16.6282 9.19255C16.6928 9.1214 16.7689 9.1246 16.8368 9.1165C16.8401 9.20066 16.8853 9.48375 16.7657 9.63596C16.6864 9.73954 16.5569 9.70711 16.5569 9.70711C16.5588 9.6845 16.5588 9.66177 16.5569 9.63916C16.5537 9.59543 16.5375 9.5518 16.5489 9.52268C16.4864 9.4941 16.4294 9.45463 16.3806 9.4061C16.2398 9.2734 16.057 9.04695 16.0441 8.87863C16.0279 8.6909 16.1962 8.65047 16.1962 8.65047C16.1821 8.63786 16.1701 8.6231 16.1605 8.60674C16.1524 8.57932 16.1443 8.53559 16.112 8.50007Z" fill="#8C6228"/>
<path fill-rule="evenodd" clip-rule="evenodd" d="M14.864 6.46444C14.864 6.46444 14.8559 6.45313 14.8123 6.50486C14.8204 6.45313 14.8285 6.40449 14.8317 6.35756C14.8523 6.3141 14.879 6.27381 14.911 6.23788C14.8867 6.2863 14.8705 6.33004 14.8705 6.33004C14.8705 6.33004 14.9304 6.21836 15.0178 6.15041C15.0776 6.10188 15.1537 6.07926 15.186 6.03393C15.2216 5.9854 15.2135 5.97729 15.2216 5.96918C15.2216 5.96918 15.301 5.91745 15.4224 5.76524C15.4385 5.74582 15.4628 5.72481 15.479 5.7054C15.5064 5.69409 15.5712 5.66497 15.6472 5.62604C15.7266 5.58241 15.8156 5.52257 15.8706 5.49804C15.979 5.4495 16.094 5.45441 16.1473 5.37825C16.1877 5.36694 16.2313 5.24556 16.2233 5.14209C16.2832 5.1663 16.5906 5.35724 16.6959 5.77473C16.7719 6.07084 16.6359 6.52716 16.5793 6.74732C16.5227 6.96748 16.5147 7.13078 16.4353 7.23105C16.3349 7.36385 16.0114 7.55105 15.932 7.64374C15.8641 7.7198 15.6603 7.91233 15.6683 8.05142C15.6764 8.155 15.8041 8.21142 15.8318 8.23105C15.8594 8.25068 15.8592 8.27478 15.911 8.26305C15.9629 8.25132 15.9822 8.22742 16.0033 8.22742C16.0275 8.23062 16.0275 8.23553 16.0388 8.23553C16.047 8.23529 16.0552 8.23418 16.0631 8.23222C16.0631 8.23222 16.055 8.37953 15.7104 8.42422C15.6861 8.42753 15.6619 8.43553 15.631 8.44044C15.6716 8.42102 15.6958 8.42102 15.7395 8.36118C15.691 8.35308 15.5518 8.34497 15.5161 8.33366C15.5275 8.31425 15.5647 8.26241 15.5954 8.2382C15.6229 8.21398 15.5922 8.2062 15.568 8.21878C15.5263 8.24715 15.4863 8.27792 15.4482 8.31094C15.4078 8.34657 15.3721 8.3951 15.3074 8.43894C15.288 8.3742 15.2912 8.25121 15.3673 8.16225C15.3478 8.16545 15.3106 8.22209 15.2751 8.21078C15.2687 8.15176 15.2725 8.09207 15.2864 8.03436C15.3058 7.9615 15.411 7.83372 15.411 7.83372L15.919 6.92588L16.0274 6.2382L14.864 6.46422V6.46444Z" fill="#92723A"/>
<path fill-rule="evenodd" clip-rule="evenodd" d="M14.8367 6.5032C14.8367 6.5032 14.8092 6.52262 14.8642 6.55984C14.8561 6.57115 14.8367 6.61158 14.8124 6.6391C14.7849 6.6711 14.7557 6.69094 14.7444 6.71846C14.7202 6.7751 14.7008 6.81392 14.7008 6.83824C14.7008 6.86256 14.6927 7.01787 14.6247 7.11814C14.6004 7.15376 14.5729 7.2136 14.5535 7.25403C14.5131 7.32518 14.4774 7.38203 14.4693 7.41403C14.4532 7.47067 14.4419 7.62598 14.4419 7.62598C14.4419 7.62598 14.4775 7.58224 14.4904 7.56614C14.4709 7.60656 14.4499 7.65019 14.4192 7.68262C14.4386 7.6664 14.4952 7.62598 14.5907 7.54182C14.7234 7.43024 14.9305 7.24251 15.183 7.09382C15.1069 7.12134 15.0422 7.12134 14.9905 7.12944C15.0309 7.08902 15.395 6.66182 15.5859 6.62139C15.5975 6.60669 15.6033 6.58824 15.6021 6.56955L15.4386 6.55344L15.1069 6.62459L15.0584 6.36859L14.8367 6.50288V6.5032Z" fill="#B18E3E"/>
<path fill-rule="evenodd" clip-rule="evenodd" d="M15.3642 7.95954C15.3642 7.95954 15.3205 8.00317 15.2801 8.11165C15.2489 8.07915 15.2223 8.04267 15.2007 8.00317C15.1409 7.9029 15.0487 7.77501 14.8334 7.84786C14.8302 7.77991 14.8253 7.74429 14.8334 7.69575C14.8691 7.68775 14.9774 7.60039 15.0858 7.4725C15.162 7.38514 15.2331 7.28477 15.2817 7.15698C15.3137 7.13266 15.369 7.09223 15.4417 7.0453C15.5452 6.97415 15.6698 6.87698 15.6892 6.76861C15.6407 6.78802 15.5371 6.83655 15.3817 6.82855C15.4417 6.80103 15.5338 6.77191 15.5225 6.65213C15.5468 6.63591 15.5662 6.62461 15.5662 6.62461C15.548 6.61852 15.5288 6.61578 15.5096 6.6165C15.5063 6.60519 15.5015 6.58909 15.474 6.59709C15.4465 6.60509 15.442 6.60519 15.4384 6.6165C15.427 6.61981 15.3898 6.6165 15.3623 6.63602C15.3348 6.65554 15.2587 6.72007 15.2296 6.73138C15.2409 6.71197 15.257 6.68295 15.257 6.68295C15.257 6.68295 15.1778 6.69095 15.1211 6.71495C15.0176 6.75058 14.8979 6.81533 14.7765 6.87837C14.7878 6.85895 14.7927 6.84637 14.8007 6.84274C14.8087 6.83911 14.8282 6.83474 14.8282 6.83143C14.8282 6.82813 14.8202 6.79943 14.825 6.78781C14.8613 6.71093 14.9041 6.6373 14.953 6.56775C15.0097 6.49159 15.021 6.38322 15.021 6.38322L15.2685 6.25863L15.9643 6.09863L16.4158 6.12615L16.3592 6.43847L16.0925 6.98375L15.8644 7.4805L15.6038 7.78482L15.3643 7.95954H15.3642Z" fill="#543E26"/>
<path fill-rule="evenodd" clip-rule="evenodd" d="M16.4919 6.60798C16.4919 6.60798 16.22 6.94452 16.1439 6.99636C16.1925 6.89278 16.4919 6.27625 16.6003 6.10473C16.5761 6.08532 16.5436 6.08532 16.6197 5.78473C16.555 5.93673 16.5323 6.01609 16.479 6.05652C16.4257 6.09694 16.419 6.08404 16.383 6.08404C16.3898 6.07172 16.3926 6.05759 16.391 6.04361C16.391 6.04361 16.1628 6.01609 16.007 6.01609C15.8511 6.01609 15.5427 6.10025 15.371 6.1682C15.2351 6.22484 15.1591 6.22484 15.1106 6.26036C15.062 6.30078 15.0345 6.34452 15.0102 6.35582C14.9908 6.36713 14.8986 6.39625 14.8775 6.42697C14.8581 6.45897 14.8258 6.49492 14.8258 6.50302C14.8258 6.51113 14.8177 6.52254 14.842 6.51433C14.85 6.51113 14.9099 6.4787 14.9779 6.43828C15.07 6.38654 15.1817 6.3267 15.2627 6.29108C15.494 6.19881 15.5669 6.21502 15.6703 6.19561C15.7787 6.1762 15.9341 6.13086 16.0376 6.13086C16.1412 6.12766 16.337 6.13086 16.3823 6.13897C16.3629 6.15518 16.3467 6.1746 16.3548 6.24254C16.3548 6.26196 16.3386 6.28297 16.3228 6.3299C16.2744 6.4626 16.1821 6.68265 16.1308 6.79433C16.0597 6.94633 15.9788 7.07422 15.9388 7.15348C15.8988 7.23273 15.8108 7.44148 15.7237 7.55316C15.6365 7.66484 15.591 7.73278 15.5637 7.7571C15.5364 7.78142 15.3403 7.92532 15.3549 7.97716C15.3906 7.96585 15.6155 7.88116 15.7788 7.69726C15.9421 7.51337 15.9747 7.40116 16.1025 7.30078C16.2302 7.20041 16.3306 7.0322 16.3905 6.8931C16.4406 6.76361 16.4293 6.72318 16.4923 6.6083L16.4919 6.60798Z" fill="#806031"/>
<path fill-rule="evenodd" clip-rule="evenodd" d="M10.6326 9.11974C10.6326 9.11974 10.597 9.26694 10.516 9.3398C10.4367 9.41105 10.2959 9.47249 10.2798 9.59228C10.2604 9.71196 10.4206 9.7719 10.4206 9.7719C10.4206 9.7719 10.3332 9.9159 10.3332 10.0243C10.3332 10.136 10.33 10.157 10.3413 10.2637C10.3284 10.272 10.3175 10.2829 10.3093 10.2957C10.3093 10.2957 10.3173 10.3993 10.3966 10.464C10.476 10.5286 10.5438 10.5675 10.5843 10.5513C10.5904 10.5645 10.5958 10.578 10.6005 10.5918C10.6005 10.5918 10.6604 10.4397 10.7008 10.307C10.7413 10.1712 10.7769 10.1905 10.793 10.0076C10.8091 9.82481 10.985 9.51089 10.985 9.51089L11.105 9.24262L10.9093 9.09052L10.6326 9.11964V9.11974Z" fill="#B6903C"/>
<path fill-rule="evenodd" clip-rule="evenodd" d="M10.9967 9.38348C10.9564 9.42492 10.9191 9.46927 10.8853 9.51618C10.8335 9.58743 10.7931 9.65207 10.717 9.6797C10.641 9.70732 10.5925 9.70711 10.5973 9.78327C10.6021 9.85943 10.6733 9.89164 10.7137 9.93047C10.7575 9.9709 10.7931 10.0388 10.7737 10.115C10.7979 10.1037 10.8416 10.0907 10.8821 10.0033C10.9225 9.91596 11.2053 9.38359 11.2053 9.38359H10.9967V9.38348Z" fill="#685026"/>
<path fill-rule="evenodd" clip-rule="evenodd" d="M12.112 8.15532C12.112 8.15532 12.1363 8.09068 12.112 8.04375C12.0877 7.99522 11.9405 7.979 11.8677 7.92396C11.7916 7.86732 11.6993 7.82796 11.6233 7.85282C11.6346 7.8253 11.6799 7.76535 11.6427 7.75244C11.6071 7.74114 11.4745 7.80098 11.4389 7.8285C11.4032 7.85602 11.3223 7.88834 11.3062 7.90786C11.2901 7.92738 11.2624 7.9645 11.2462 7.94828C11.23 7.93698 11.222 7.90786 11.1945 7.92396C11.167 7.94007 11.0345 8.04855 11.0101 8.1117C10.9856 8.17484 10.9307 8.31564 10.7657 8.47575C10.6007 8.63586 10.5294 8.73954 10.578 8.79938C10.6265 8.85922 10.6492 8.81559 10.6573 8.86732C10.6636 8.91811 10.6608 8.96959 10.6492 9.01943C10.6298 9.10359 10.5975 9.18284 10.6411 9.19906C10.7528 9.23468 10.8613 9.16706 10.8855 9.18775C10.934 9.23138 10.858 9.38839 10.9728 9.41911C11.0894 9.45111 11.2043 9.39159 11.2043 9.39159L11.6282 9.16343L12.036 8.94828L12.2446 8.53559L12.1327 8.19095L12.1114 8.15532H12.112Z" fill="#D4B968"/>
<path fill-rule="evenodd" clip-rule="evenodd" d="M11.7119 9.14078C11.7119 9.14078 11.6407 9.0324 11.7281 8.93683C11.8156 8.84126 11.9401 8.80094 11.9886 8.7411C11.9794 8.7297 11.967 8.72128 11.953 8.71688C11.9852 8.65923 12.0344 8.61288 12.0938 8.58408C12.0696 8.55987 12.0372 8.54046 12.0016 8.54046C11.9223 8.54046 11.8736 8.58899 11.8009 8.58899C11.7297 8.58899 11.7216 8.55336 11.7216 8.55336C11.7216 8.55336 11.8414 8.54206 11.83 8.48862C11.8187 8.43198 11.798 8.43198 11.798 8.43198C11.798 8.43198 12.0294 8.33598 12.0698 8.28478C12.1102 8.23358 12.1054 8.1731 12.1135 8.14888C12.1409 8.14888 12.3012 8.06472 12.3659 8.10035C12.4307 8.13598 12.3853 8.23304 12.3853 8.23304C12.3853 8.23304 12.5813 8.08574 12.6811 7.94131C12.7685 7.94942 12.8091 7.88147 12.8731 7.88147C12.9525 7.88147 13.0771 7.98984 13.1013 8.2212C13.1175 8.3539 13.1417 8.42995 13.1175 8.66462C13.1062 8.79731 13.1094 9.08062 13.1495 9.2212C13.1769 9.33288 13.2416 9.32158 13.2416 9.32158C13.2317 9.35561 13.212 9.38598 13.185 9.40894C13.1413 9.44936 13.1365 9.55624 13.1413 9.59667C13.1477 9.62623 13.1558 9.65539 13.1656 9.68403C13.1656 9.68403 13.1139 9.74387 13.1008 9.7844C13.0895 9.82483 13.0362 9.85235 12.9973 9.85235C12.9583 9.85235 12.9779 9.84904 12.9261 9.85235C12.8744 9.85566 12.8582 9.86366 12.8257 9.85235C12.7933 9.84104 12.7691 9.82803 12.7821 9.72435C12.7934 9.62078 12.3824 9.37971 12.3824 9.37971L11.7104 9.14024L11.7119 9.14078Z" fill="#CCA849"/>
<path fill-rule="evenodd" clip-rule="evenodd" d="M10.9402 10.1634C10.9402 10.1634 11.0874 10.3593 11.6927 10.3593C11.9807 10.3593 12.081 10.3317 12.1407 10.3155C12.2054 10.2993 12.4481 10.2039 12.6924 9.91584C12.9125 9.65536 12.864 9.54859 12.864 9.54859L12.736 9.52917L12.32 9.58581L11.089 10.1101L10.9397 10.1634H10.9402Z" fill="#585136"/>
<path fill-rule="evenodd" clip-rule="evenodd" d="M11.3916 10.2119C11.3916 10.2119 10.8673 10.3285 10.8673 9.99675C10.8673 9.67313 11.1909 9.33329 11.2719 9.27345C11.3561 9.2135 11.5567 9.14545 11.5567 9.14545H12.0405L12.1327 9.38982L12.0923 9.91729L11.3916 10.2118V10.2119Z" fill="#252211"/>
<path fill-rule="evenodd" clip-rule="evenodd" d="M11.8754 9.24437C11.8754 9.24437 11.7751 9.15211 11.5469 9.27637C11.3188 9.40064 11.1342 9.66037 11.1229 9.89621C11.1116 10.1049 11.2945 10.2603 11.5793 10.2684C11.7912 10.2764 11.9191 10.2522 11.9838 10.2364C11.9676 10.217 11.8835 10.1118 11.8835 10.1118L11.8755 9.24448L11.8754 9.24437Z" fill="#C3B378"/>
<path fill-rule="evenodd" clip-rule="evenodd" d="M11.7767 9.29599C11.7767 9.29599 11.7525 9.27658 11.6807 9.3154C11.6209 9.3474 11.5335 9.43199 11.4656 9.49183C11.4218 9.52746 11.3943 9.54356 11.3696 9.57108C11.2692 9.69087 11.185 9.88671 11.2337 9.98378C11.2823 10.0808 11.4424 10.1925 11.8502 10.1165L11.7755 9.2961L11.7767 9.29599Z" fill="#E6D89C"/>
<path fill-rule="evenodd" clip-rule="evenodd" d="M11.644 9.49672C11.644 9.49672 11.5793 9.59709 11.5793 9.75731C11.5793 9.92072 11.6716 10.1812 12.0114 10.2006C12.2719 10.2168 12.4466 9.82525 12.6359 9.67315C12.7799 9.55667 12.8673 9.55336 12.8673 9.55336C12.8673 9.55336 12.7201 9.39336 12.3269 9.18611C11.9385 8.97736 11.5032 8.94984 11.267 9.27027C11.3786 9.26216 11.7395 9.16989 11.7395 9.16989L11.9159 9.22653L11.644 9.49683V9.49672Z" fill="#252211"/>
<path fill-rule="evenodd" clip-rule="evenodd" d="M12.1522 9.70868C12.1408 9.68447 12.1327 9.65204 12.1797 9.64404C12.2266 9.63604 12.2476 9.64073 12.2638 9.67604C12.28 9.71135 12.2958 9.74079 12.2718 9.7554C12.2476 9.76831 12.1845 9.7554 12.152 9.70847L12.1522 9.70868ZM12.0761 9.48054C12.0761 9.48054 12.0598 9.49185 12.0679 9.46924C12.0711 9.44182 12.0923 9.39318 12.144 9.4046C12.1957 9.41601 12.1845 9.47254 12.176 9.48876C12.1675 9.50497 12.1243 9.53238 12.0918 9.52076C12.0835 9.51863 12.0767 9.51264 12.0735 9.50466C12.0703 9.49667 12.0711 9.48763 12.0756 9.48033L12.0761 9.48054Z" fill="#6F674D"/>
<path fill-rule="evenodd" clip-rule="evenodd" d="M7.69604 9.58407C7.69604 9.58407 7.82404 9.68007 7.97274 9.67633C8.11994 9.67303 8.30927 9.52103 8.39663 9.42385C8.44836 9.36721 8.49263 9.30737 8.54063 9.26044C8.58116 9.22001 8.60858 9.2006 8.62799 9.17308C8.65551 9.14108 8.68463 9.08092 8.69924 9.0614C8.66362 9.08892 8.61188 9.13756 8.55844 9.16988C8.50671 9.20188 8.39503 9.26204 8.3497 9.27825C8.30607 9.29447 7.85295 9.53425 7.85295 9.53425L7.69604 9.58407Z" fill="#AC924C"/>
<path fill-rule="evenodd" clip-rule="evenodd" d="M7.89172 8.38838C7.89172 8.38838 7.96287 8.33985 8.10047 8.30902C8.23316 8.27702 8.50015 8.25238 8.50015 8.25238L8.7202 8.34838L8.80756 8.68011L8.64756 9.02486L8.44372 9.15286L8.21226 8.7807L7.89226 8.38902L7.89172 8.38838Z" fill="#9F8E57"/>
<path fill-rule="evenodd" clip-rule="evenodd" d="M7.60363 8.6845L7.52747 8.74136C7.52747 8.74136 7.54699 8.70573 7.56309 8.59736C7.5792 8.48898 7.66347 8.2252 7.78645 8.07309C7.90944 7.92098 7.90624 7.92909 7.90624 7.92909C7.88335 7.9249 7.85976 7.93077 7.84149 7.9452C7.85771 7.90936 7.96128 7.78136 8.06485 7.71736C8.16843 7.65336 8.20885 7.6332 8.31723 7.68536C8.4256 7.73752 8.45312 7.76461 8.53248 7.76141C8.61184 7.75821 8.67968 7.67405 8.67968 7.67405C8.67968 7.67405 8.69589 7.72578 8.63605 7.84557C8.57621 7.96536 8.33995 8.20962 8.33995 8.20962L7.848 8.54616L7.60363 8.68482V8.6845Z" fill="#EAC970"/>
<path fill-rule="evenodd" clip-rule="evenodd" d="M7.96747 8.34799C7.96747 8.34799 8.32352 8.39652 8.43189 8.29625C8.43509 8.30756 8.44811 8.30756 8.44811 8.31567C8.44724 8.32178 8.44439 8.32743 8.44 8.33177C8.45179 8.32989 8.46369 8.32882 8.47563 8.32857C8.48988 8.33282 8.50454 8.33553 8.51936 8.33668C8.5313 8.33642 8.54321 8.33532 8.55499 8.33337C8.55272 8.34962 8.54394 8.36425 8.53067 8.37391C8.54688 8.37391 8.56267 8.37711 8.56267 8.39001C8.56267 8.40292 8.56587 8.44185 8.54645 8.44996C8.53037 8.45441 8.51325 8.45324 8.49792 8.44665C8.4992 8.47729 8.50753 8.50722 8.52224 8.53412C8.55424 8.59396 8.62251 8.66212 8.71424 8.64249C8.71424 8.64249 8.76267 8.75897 8.55883 9.01785C8.53141 9.05348 8.50219 9.10201 8.46667 9.14244C8.45263 9.17303 8.44191 9.20504 8.43467 9.23791C8.43467 9.23791 8.77941 9.10521 8.87808 8.8026C8.97845 8.49839 8.99787 8.19908 8.97845 7.91919C8.97515 7.83983 8.96224 7.78329 8.94283 7.74276C8.89429 7.64239 8.75829 7.6586 8.70336 7.71524C8.624 7.7946 8.49131 7.99193 8.30688 8.12783C8.11915 8.26372 8.11115 8.28783 7.96704 8.34799H7.96747Z" fill="#D7BC6B"/>
<path fill-rule="evenodd" clip-rule="evenodd" d="M7.54037 8.78491C7.54037 8.78491 7.47243 8.82534 7.4368 8.97691C7.40117 9.13222 7.4688 9.32155 7.50795 9.38139C7.54709 9.44123 7.63595 9.60475 7.82027 9.61286C7.86589 9.61262 7.911 9.60326 7.95296 9.58534C8.0173 9.55584 8.07766 9.51831 8.13259 9.47366C8.21195 9.41382 8.27659 9.36209 8.26848 9.35718C8.24907 9.34907 7.77984 8.9607 7.77984 8.9607L7.60341 8.76379L7.54027 8.78513L7.54037 8.78491Z" fill="#585136"/>
<path fill-rule="evenodd" clip-rule="evenodd" d="M7.98395 9.4288C7.98395 9.4288 8.07941 9.4208 8.13605 9.38517C8.19269 9.34954 7.80432 8.96448 7.80432 8.96448L7.83184 9.38048L7.98395 9.4288Z" fill="#453A25"/>
<path fill-rule="evenodd" clip-rule="evenodd" d="M7.57125 8.7556C7.57125 8.7556 7.52272 8.84786 7.52272 8.87218C7.51461 8.95144 7.53893 9.20061 7.55835 9.27986C7.57776 9.36402 7.68293 9.49181 7.81893 9.49181C7.90299 9.49181 8.01957 9.44008 8.01957 9.42717C8.01957 9.41096 7.89979 9.39517 7.86747 9.3349C7.84805 9.3029 7.83995 9.22333 7.83547 9.1429C7.83227 9.09117 7.83227 9.03453 7.85168 9.0149C7.89541 8.96637 7.90341 8.82717 7.90341 8.82717L8.05872 8.53864H7.85445L7.61008 8.69074L7.57125 8.7556Z" fill="#84754B"/>
<path fill-rule="evenodd" clip-rule="evenodd" d="M7.51135 8.84466C7.51135 8.84466 7.67135 8.63271 7.81557 8.58407C7.95978 8.53543 8.02431 8.56466 8.02431 8.56466L7.94015 8.77991L7.82037 8.91261L7.82847 8.98055C7.82847 8.98055 7.80895 9.16018 7.92874 9.28477C8.04853 9.40935 8.13749 9.40455 8.18933 9.40455C8.24117 9.40455 8.38997 9.36082 8.46602 9.18119C8.53397 9.01298 8.59061 8.79719 8.45471 8.58087C8.32191 8.36562 8.08735 8.3573 8.04202 8.3573C7.99669 8.3573 7.64074 8.37511 7.51135 8.84434V8.84466Z" fill="#252211"/>
<path fill-rule="evenodd" clip-rule="evenodd" d="M11.6196 9.56473C11.5597 9.53721 11.6164 9.369 11.6762 9.31716C11.7361 9.26532 11.8121 9.20559 11.9449 9.19737C11.9933 9.19417 12.0403 9.22489 12.0323 9.25732C12.021 9.31716 11.9368 9.40132 11.8608 9.46116C11.7556 9.54372 11.6875 9.59545 11.6196 9.56473Z" fill="#F7F7E7"/>
<path fill-rule="evenodd" clip-rule="evenodd" d="M8.38348 8.64724C8.42721 8.64404 8.48385 8.67924 8.49516 8.7266C8.50647 8.77833 8.46764 8.8819 8.38348 8.8819C8.31553 8.8819 8.27991 8.79774 8.27991 8.77353C8.28067 8.75362 8.28623 8.73419 8.29612 8.71689C8.29932 8.71198 8.30743 8.65534 8.38348 8.64724Z" fill="#F8F6DE"/>
<path fill-rule="evenodd" clip-rule="evenodd" d="M7.75254 8.68445C7.75254 8.68445 7.64086 8.73618 7.58912 8.84445C7.55216 8.9244 7.54097 9.01386 7.55712 9.10045C7.56523 9.14087 7.60566 9.24114 7.63318 9.27677C7.6607 9.31239 7.69792 9.33671 7.72544 9.33341C7.75296 9.3301 7.8095 9.25735 7.8095 9.21373C7.8095 9.1701 7.8128 8.98557 7.86614 8.88519C7.91307 8.78493 7.75286 8.68455 7.75286 8.68455L7.75254 8.68445Z" fill="#D4C38B"/>
<path fill-rule="evenodd" clip-rule="evenodd" d="M7.76874 8.67631C7.74932 8.68761 7.717 8.70383 7.725 8.72484C7.73311 8.74425 7.80106 8.75684 7.82538 8.8042C7.8529 8.85273 7.8529 8.90447 7.84479 8.92879C7.86593 8.91874 7.88511 8.90502 7.90143 8.88825C7.93706 8.84783 7.98068 8.79289 8.01791 8.79289C8.04223 8.79289 8.06644 8.8042 8.08916 8.8042C8.12479 8.8042 8.16031 8.79289 8.16522 8.75567C8.17322 8.70713 8.09727 8.6634 8.05354 8.67151C8.06164 8.63951 8.07295 8.59225 8.03732 8.55983C8.0017 8.5274 7.89012 8.58415 7.8658 8.60036C7.84148 8.61657 7.76874 8.67641 7.76874 8.67641V8.67631Z" fill="#E2D59D"/>
<path fill-rule="evenodd" clip-rule="evenodd" d="M10.3399 12.076L10.5793 12.0052L10.6473 12.0538C10.6473 12.0538 10.6957 12.1574 10.7719 12.1703C10.7475 12.222 10.6844 12.2663 10.6877 12.303C10.691 12.3396 10.7233 12.3677 10.7233 12.3677C10.7233 12.3677 10.5081 12.7236 10.9321 13.0824C10.8317 13.1228 10.7039 13.1784 10.636 13.2104C10.6844 13.2217 10.788 13.2424 10.8317 13.2816C10.8754 13.3209 10.8754 13.3334 10.9159 13.3577C10.9563 13.382 10.9805 13.4143 10.9725 13.4288C10.945 13.4126 10.8527 13.3642 10.8366 13.4094C10.8205 13.4546 10.4369 13.4369 10.4369 13.4369L9.78967 13.5615C9.78967 13.5615 9.81388 13.4968 9.74594 13.4369C9.66668 13.3658 9.56962 13.4401 9.46604 13.3609C9.33015 13.2573 9.32524 13.1375 9.28162 13.0923C9.32524 13.0648 9.41431 13.0243 9.62626 12.9963C9.61815 12.9801 9.59063 12.9315 9.60684 12.8879C9.62626 12.8313 9.70711 12.7956 9.6829 12.7279C9.71852 12.7198 9.73463 12.7198 9.8237 12.6081C9.90786 12.4964 9.95959 12.4722 10.0243 12.4641C10.0891 12.456 10.1279 12.4641 10.2477 12.3524C10.3317 12.2732 10.3043 12.2052 10.3043 12.2052C10.3043 12.2052 10.3593 12.1874 10.34 12.0758L10.3399 12.076Z" fill="#CBAC5A"/>
<path fill-rule="evenodd" clip-rule="evenodd" d="M9.63282 12.1119C9.63602 12.0957 9.64903 12.0876 9.73639 12.0957C9.82375 12.1038 10.3771 12.044 10.5276 12.0359C10.6798 12.0246 11.2153 12.0326 11.4759 12.0876C11.7365 12.1426 12.0002 12.2074 12.128 12.2397C12.256 12.2753 12.2963 12.2881 12.2914 12.3043C12.2882 12.3206 12.2594 12.3363 12.2428 12.3319C12.2267 12.3287 11.8027 12.1992 11.6718 12.1719C11.5408 12.1446 11.0875 12.0715 10.8398 12.0759C10.6084 12.0792 10.5161 12.0727 10.3204 12.0953C10.1246 12.1196 9.80093 12.1519 9.70386 12.139C9.60786 12.1277 9.6277 12.1277 9.63261 12.1115L9.63282 12.1119Z" fill="#D6BC6F"/>
<path fill-rule="evenodd" clip-rule="evenodd" d="M10.9352 13.3803C10.9352 13.3803 11.267 13.5599 11.3867 13.7799C11.4741 13.9434 11.335 14.0243 11.335 14.0243C11.335 14.0243 11.5227 14.0243 11.4984 14.1279C11.4871 14.1925 11.1748 14.3672 10.9661 14.4595C10.7541 14.5518 10.7622 14.547 10.6586 14.5631C10.5583 14.5793 10.2832 14.5311 10.2265 14.6116C10.1699 14.6922 10.1945 14.7751 10.2103 14.788C10.2265 14.7994 10.3576 14.8156 10.3576 14.8156C10.3576 14.8156 10.3301 14.8916 10.0583 14.8997C9.78654 14.9078 9.71848 14.9271 9.70227 14.9564C9.68606 14.9838 9.754 14.9677 9.8787 14.9884C10.0033 15.0078 10.178 15.0204 10.178 15.0204C10.178 15.0204 10.1214 15.0689 9.97416 15.1077C9.80584 15.1514 9.54206 15.1919 9.4628 15.2404C9.50323 15.2679 9.56318 15.3084 9.5908 15.3116C9.52286 15.3278 9.42728 15.3634 9.41118 15.3763C9.43539 15.3925 9.46782 15.4119 9.46782 15.4119C9.46782 15.4119 9.33182 15.5754 9.25256 15.6159C9.17331 15.6564 8.71699 15.8683 8.55998 15.8278C8.1684 15.7243 8.11987 15.2955 8.0244 15.2631C7.8804 15.2146 7.81246 15.3116 7.68456 15.2436C7.7412 15.2032 7.77203 15.179 7.83187 15.1515C7.76712 15.1195 7.43219 14.9071 7.43219 14.9071C7.39716 14.8307 7.35829 14.7562 7.31571 14.6838C7.25096 14.5722 7.15571 14.4232 7.08424 14.2922C6.92894 14.0042 6.92083 13.8715 6.78003 13.708C6.80435 13.676 6.8884 13.6805 6.8884 13.6805L8.06814 14.0689L10.16 14.1295L10.704 13.3528L10.9353 13.3804L10.9352 13.3803Z" fill="#DFC677"/>
<path fill-rule="evenodd" clip-rule="evenodd" d="M7.83667 14.5647C7.84929 14.5787 7.86401 14.5907 7.8803 14.6003C7.92083 14.6278 7.98067 14.6602 8.0211 14.7087C8.03731 14.6845 8.07774 14.6407 8.1491 14.7087C8.22046 14.7766 8.3091 14.7282 8.36424 14.7443C8.42088 14.7638 8.42408 14.7718 8.42408 14.7718C8.42408 14.7718 8.45608 14.7443 8.52766 14.7152C8.57139 14.699 8.62312 14.6877 8.67976 14.6715C8.7315 14.6602 8.78814 14.644 8.82707 14.644C8.8627 14.6682 8.99048 14.804 9.50344 14.6036C9.98728 14.4159 10.0989 14.3949 10.1798 14.4239C10.1879 14.4045 10.196 14.3672 10.3206 14.3721C10.3206 14.3204 10.217 14.144 10.217 14.144L9.64584 13.9482H9.33342L8.39656 14.1198L7.87742 14.416L7.83699 14.5653L7.83667 14.5647Z" fill="#C4A859"/>
<path fill-rule="evenodd" clip-rule="evenodd" d="M7.52429 14.2363C7.52429 14.2363 7.5356 14.3237 7.66509 14.4159C7.79309 14.5081 7.83331 14.5631 7.83331 14.5631C7.83331 14.5631 7.85763 14.5311 7.87704 14.4985C7.89645 14.4629 7.91267 14.4224 7.94499 14.4111C8.00973 14.3836 8.15693 14.4353 8.18936 14.4272C8.21688 14.4192 8.20877 14.3626 8.23789 14.3626C8.30584 14.3593 8.34947 14.4062 8.37379 14.4062C8.39811 14.4062 8.45784 14.403 8.46595 14.3901C8.47405 14.3772 8.47725 14.2428 8.56952 14.1781C8.66989 14.1069 8.79288 14.1376 8.82552 14.1539C8.82552 14.1781 8.82872 14.238 8.89347 14.2412C8.95821 14.2444 8.96461 14.2331 9.02147 14.2525C9.07832 14.2719 9.14605 14.2493 9.17677 14.3447C9.20429 14.3367 9.26904 14.3286 9.25283 14.2363C9.28483 14.2121 9.31277 14.1959 9.38083 14.1004C9.39704 14.0762 9.42445 14.0487 9.44557 14.0131C9.50221 14.0131 9.57016 14.0017 9.66072 14.081C9.6332 14.1004 9.61699 14.113 9.60899 14.1327C9.63267 14.1562 9.6543 14.1816 9.67363 14.2088C9.69795 14.2408 9.71416 14.28 9.74488 14.2881C9.81283 14.3076 9.92451 14.28 10.0491 14.2881C10.1689 14.2963 10.2691 14.3399 10.3129 14.3674C10.3291 14.3594 10.3291 14.3561 10.3695 14.3642C10.4099 14.3723 10.4407 14.3755 10.397 14.3238C10.4213 14.3351 10.4488 14.3594 10.4731 14.3351C10.4974 14.3108 10.5167 14.2752 10.5847 14.2671C10.6526 14.259 10.6769 14.2703 10.7045 14.1992C10.7401 14.1118 10.6171 14.1118 10.6171 14.1118C10.6171 14.1118 10.6737 14.06 10.7369 13.992C10.8129 13.9209 10.9003 13.8286 10.9213 13.7153C10.9569 13.5066 10.7531 13.4792 10.7531 13.4792L9.7644 13.7834L8.55565 13.7235L7.52493 14.2364L7.52429 14.2363Z" fill="#927D49"/>
<path fill-rule="evenodd" clip-rule="evenodd" d="M6.63593 11.3803C6.63593 11.3803 6.60393 11.4207 6.58419 11.5162C6.56446 11.6116 6.57289 11.6003 6.55667 11.6683C6.54046 11.7362 6.34131 12.4126 6.41598 12.6408C6.49065 12.8689 6.61993 12.9531 6.70078 13.1375C6.71699 13.1779 6.73278 13.2022 6.74121 13.2379C6.76873 13.3576 6.74451 13.4498 6.77683 13.5696C6.78814 13.61 6.81737 13.657 6.86099 13.7055C6.95699 13.8058 7.11347 13.9012 7.18099 13.9692C7.27635 14.0696 7.41235 14.2735 7.58547 14.2928C7.67774 14.3041 7.80883 14.2653 7.91721 14.2006C8.01321 14.1407 8.07251 14.0566 8.17321 14.0086C8.24435 13.973 8.32041 13.9601 8.38835 13.9439C8.52915 13.9164 8.65705 13.9119 8.7331 13.9277C8.84958 13.952 9.12467 14.0362 9.2771 14.0362C9.39621 14.0342 9.51465 14.018 9.62985 13.9876C9.86121 13.9197 10.1411 13.8031 10.3256 13.7514C10.434 13.7194 10.5214 13.7109 10.6104 13.6915C10.7625 13.6559 10.8903 13.6074 10.9632 13.5151C10.9146 13.4585 10.8548 13.3711 10.5311 13.3743C10.1638 13.3824 9.73982 13.5862 9.53107 13.6187C9.32233 13.6511 9.23177 13.6785 8.9987 13.5944C8.77022 13.5093 8.76265 13.4531 8.76265 13.4531C8.76265 13.4531 8.52275 13.2853 8.42238 12.8576C8.32201 12.4299 8.42238 12.1182 8.68297 11.822C8.75091 11.7459 8.7347 11.678 8.7347 11.678C8.7347 11.678 8.90622 11.4466 8.85929 11.23C8.80755 11.0147 8.47582 11.0585 8.47582 11.0585L6.63603 11.3803H6.63593Z" fill="#6E6342"/>
<path fill-rule="evenodd" clip-rule="evenodd" d="M6.9127 12.1004C6.89844 12.1272 6.89173 12.1574 6.89329 12.1878C6.89649 12.2314 6.9095 12.288 7.04049 12.4159C7.15217 12.5275 7.12785 12.6521 7.12785 12.6521C7.12785 12.6521 7.18406 12.6634 7.33659 12.592C7.45638 12.5354 7.49659 12.6358 7.49659 12.6358C7.53146 12.6175 7.56926 12.6054 7.60827 12.6001C7.64362 12.5969 7.67784 12.586 7.70854 12.5681C7.70854 12.5681 7.84934 12.7121 7.97233 12.7801C8.08401 12.84 8.14875 12.8805 8.20379 12.84C8.25553 12.8044 8.25553 12.7315 8.25222 12.6992C8.23939 12.6694 8.22314 12.6412 8.20379 12.6151C8.16817 12.5633 8.11153 12.5034 8.10779 12.4551C8.09969 12.3435 8.19195 12.2107 8.17243 12.1784C8.15292 12.1461 8.08027 12.1379 7.90065 12.2027C7.71462 12.2641 6.91196 12.1007 6.91196 12.1007L6.9127 12.1004Z" fill="#39331F"/>
<path fill-rule="evenodd" clip-rule="evenodd" d="M7.33661 12.8236C7.33661 12.8236 7.24445 12.7363 7.27677 12.3123C7.3159 12.3117 7.35496 12.3155 7.39325 12.3236C7.39325 12.3236 7.44349 12.6521 7.33661 12.8236Z" fill="#292311"/>
<path fill-rule="evenodd" clip-rule="evenodd" d="M6.67969 11.0567C6.69255 11.0472 6.70447 11.0365 6.71531 11.0247C6.68331 11.0845 6.53558 11.324 6.65537 11.7011C6.77515 12.0764 7.07606 12.3563 7.44662 12.3693C7.81718 12.3823 8.01195 12.201 8.23467 11.9292C8.32203 11.8208 8.42241 11.6848 8.51137 11.5927C8.64406 11.4486 8.74763 11.4082 8.74763 11.2691C8.74763 10.9843 8.45633 10.8564 8.02753 10.7286C7.59873 10.6008 7.21195 10.6166 7.01131 10.704C6.81558 10.7994 6.73142 10.8998 6.67958 11.0568L6.67969 11.0567Z" fill="#252211"/>
<path fill-rule="evenodd" clip-rule="evenodd" d="M8.05672 12.9515L8.08872 12.9353C8.08872 12.9353 8.09672 12.8073 8.14856 12.8107C8.20029 12.8188 8.22461 12.8868 8.2197 12.911C8.2165 12.9353 8.2036 12.9758 8.15176 12.9709C8.08381 12.9725 8.0564 12.9515 8.0564 12.9515H8.05672Z" fill="#3F3824"/>
<path fill-rule="evenodd" clip-rule="evenodd" d="M7.91248 12.4077C7.91248 12.4077 7.94448 12.3964 7.98362 12.4352C8.01562 12.4352 8.15514 12.419 8.19888 12.4465C8.24261 12.4741 8.25552 12.4983 8.25552 12.4983C8.25552 12.4983 8.0921 12.5339 8.00304 12.4983C7.91248 12.4676 7.91248 12.4077 7.91248 12.4077H7.91248Z" fill="#2D2815"/>
<path fill-rule="evenodd" clip-rule="evenodd" d="M8.63273 12.432C8.63273 12.4238 8.54537 12.364 8.4531 12.3445C8.43689 12.3413 8.43358 12.3526 8.4211 12.3526C8.413 12.3494 8.4098 12.3251 8.4098 12.3251L8.35732 12.3527C8.35732 12.3527 8.34921 12.364 8.37673 12.3847C8.40094 12.4041 8.44148 12.4203 8.45278 12.4526C8.46409 12.485 8.46409 12.4963 8.469 12.5012C8.4722 12.5044 8.52884 12.5012 8.55636 12.485C8.58388 12.4688 8.63572 12.4423 8.63241 12.4316L8.63273 12.432Z" fill="#82764F"/>
<path fill-rule="evenodd" clip-rule="evenodd" d="M7.81555 12.7605C7.81555 12.7605 7.83166 12.649 7.94014 12.644C8.05171 12.6359 8.07283 12.7443 8.07283 12.7443L8.00809 12.8091C8.00809 12.8075 7.95955 12.7395 7.81609 12.7605H7.81555Z" fill="#2D2816"/>
<path fill-rule="evenodd" clip-rule="evenodd" d="M8.51954 12.2799C8.51954 12.2799 8.45959 12.3447 8.32701 12.3641C8.3157 12.3479 8.29138 12.3155 8.32701 12.2638C8.36263 12.2121 8.40306 12.1959 8.44349 12.212C8.47991 12.2179 8.50959 12.2444 8.51954 12.2799Z" fill="#574F35"/>
<path fill-rule="evenodd" clip-rule="evenodd" d="M8.76386 12.3592C8.76717 12.343 8.75586 12.3398 8.76386 12.3317C8.77186 12.3236 8.8157 12.3075 8.82381 12.3155C8.82701 12.3188 8.82381 12.3317 8.82381 12.3475C8.82381 12.3633 8.82381 12.3795 8.8157 12.3911C8.8044 12.4073 8.77208 12.4155 8.75586 12.4107C8.73965 12.4059 8.73645 12.3831 8.73645 12.3787C8.74445 12.3755 8.76386 12.3673 8.76386 12.3592ZM9.03995 12.1845C9.03995 12.1764 9.06747 12.1602 9.08368 12.1602C9.10789 12.1602 9.10789 12.1796 9.1112 12.1845C9.1192 12.1877 9.1192 12.1812 9.12731 12.1958C9.13541 12.2105 9.14683 12.2363 9.13861 12.2525C9.1304 12.2687 9.09819 12.2799 9.09019 12.2767C9.07888 12.2686 9.04325 12.1958 9.03995 12.1845Z" fill="#82764F"/>
<path fill-rule="evenodd" clip-rule="evenodd" d="M8.48376 12.3965C8.48376 12.3965 8.51939 12.4045 8.56792 12.4451C8.55171 12.4564 8.52739 12.4693 8.52739 12.4693C8.52739 12.4693 8.52419 12.4321 8.48376 12.3964V12.3965Z" fill="#6E6342"/>
<path fill-rule="evenodd" clip-rule="evenodd" d="M8.40448 12.0404C8.39637 12.0324 8.42869 12.013 8.4481 12.0162C8.46752 12.0194 8.47562 12.0324 8.49664 12.0356C8.51765 12.0388 8.52096 12.0275 8.52864 12.0194C8.53632 12.0113 8.56426 12.0162 8.56906 12.0194C8.57205 12.023 8.57476 12.0267 8.57717 12.0307C8.57786 12.0183 8.58369 12.0067 8.59328 11.9987C8.60585 11.9895 8.62196 11.9865 8.63701 11.9906C8.64021 12.0019 8.65642 12.0423 8.65322 12.0504C8.65002 12.0585 8.60149 12.07 8.59328 12.0617C8.60138 12.0813 8.63701 12.1217 8.64181 12.1297C8.64661 12.1377 8.60618 12.1572 8.59008 12.154C8.56746 12.1524 8.42826 12.0714 8.40405 12.0407L8.40448 12.0404ZM8.61657 11.7718C8.61357 11.7637 8.60784 11.7568 8.60035 11.7524C8.58905 11.7492 8.55182 11.7524 8.55182 11.7718C8.55182 11.7913 8.58382 11.8998 8.61977 11.9564C8.6603 12.013 8.68771 12.0598 8.71523 12.0729C8.73316 12.081 8.75434 12.0739 8.76377 12.0566C8.76697 12.0485 8.77507 11.9887 8.77187 11.8479C8.76867 11.7071 8.76377 11.5712 8.75566 11.5631C8.74755 11.555 8.71523 11.5551 8.70393 11.5712C8.69262 11.5873 8.61977 11.7476 8.61646 11.7718H8.61657Z" fill="#585136"/>
<path fill-rule="evenodd" clip-rule="evenodd" d="M8.47251 12.6003C8.47251 12.6003 8.41587 12.5647 8.36083 12.589C8.30909 12.6133 8.31229 12.7088 8.31229 12.7088C8.33592 12.718 8.3626 12.715 8.38355 12.7007C8.41917 12.6765 8.4644 12.636 8.47251 12.6004V12.6003Z" fill="#574F35"/>
<path fill-rule="evenodd" clip-rule="evenodd" d="M8.57924 12.7282C8.57604 12.6962 8.54724 12.6962 8.54724 12.6797C8.55132 12.6634 8.56599 12.652 8.58276 12.6521C8.59897 12.6521 8.61476 12.6716 8.6346 12.6841C8.65401 12.6955 8.68313 12.7161 8.68633 12.7408C8.68953 12.7654 8.65433 12.8329 8.61519 12.8329C8.57604 12.8329 8.58767 12.7601 8.57956 12.7278L8.57924 12.7282ZM8.89156 12.6845C8.89156 12.6845 8.82681 12.7039 8.83161 12.6845C8.83641 12.665 8.85113 12.6602 8.87215 12.6602C8.88282 12.6491 8.89718 12.6421 8.91257 12.6407C8.92138 12.6403 8.93002 12.6432 8.93679 12.6488C8.93679 12.6488 8.98052 12.6294 8.99343 12.6407C9.00633 12.652 8.99673 12.652 9.00473 12.665C9.01492 12.6795 9.0216 12.6961 9.02425 12.7136C9.02425 12.7265 8.97572 12.754 8.93679 12.7492C8.89156 12.7395 8.89956 12.6926 8.89156 12.6845ZM9.26858 12.6116C9.26858 12.6116 9.28799 12.6229 9.27189 12.6359C9.26058 12.6472 9.20394 12.6679 9.1553 12.6715C9.10677 12.6715 9.06314 12.6795 9.06314 12.6634C9.06314 12.6473 9.10357 12.6149 9.12778 12.6068C9.13762 12.5944 9.15255 12.5873 9.16831 12.5874C9.18773 12.5874 9.26367 12.5792 9.28479 12.576C9.30421 12.5727 9.32042 12.584 9.30901 12.6003C9.30421 12.6116 9.26858 12.6116 9.26858 12.6116ZM9.38019 12.112C9.38019 12.112 9.35587 12.1638 9.32846 12.1638C9.30094 12.1606 9.30094 12.1525 9.30094 12.1444C9.30094 12.1331 9.32846 12.1039 9.32515 12.0958C9.31715 12.0958 9.29763 12.0958 9.30094 12.0764C9.30094 12.0602 9.32846 12.0408 9.35267 12.0444C9.37097 12.0294 9.39375 12.0209 9.41742 12.0202C9.44494 12.0202 9.46915 12.0282 9.46915 12.0444C9.46915 12.0606 9.43715 12.0961 9.42542 12.1044C9.41251 12.1173 9.3963 12.1257 9.38019 12.1124V12.112ZM9.01137 13.0682C9.01137 13.0682 8.97937 13.0716 8.97937 13.0877C8.97937 13.0958 8.98737 13.0958 8.99878 13.091C9.00536 13.0906 9.01187 13.0895 9.0182 13.0877C9.0214 13.091 9.0214 13.1071 9.04572 13.1071C9.06569 13.1044 9.08493 13.0978 9.10236 13.0877C9.12177 13.0797 9.13798 13.0714 9.13798 13.0557C9.12988 13.0281 9.11366 13.0151 9.08945 13.0151C9.07704 13.0143 9.06467 13.0172 9.05382 13.0232C9.05382 13.0232 9.04572 13.007 9.0182 13.0232C8.99068 13.0394 8.99388 13.0394 9.00198 13.0476C9.01649 13.0605 9.01169 13.0689 9.01169 13.0689L9.01137 13.0682ZM8.82848 13.2365C8.82848 13.2284 8.86891 13.2122 8.88022 13.2171C8.89152 13.2203 8.92384 13.2817 8.92384 13.2882C8.92384 13.2963 8.88342 13.3158 8.8672 13.3158C8.85099 13.3158 8.82358 13.2882 8.82358 13.2838C8.82358 13.2806 8.84299 13.2758 8.84299 13.2725C8.84779 13.2645 8.82848 13.2449 8.82848 13.2368V13.2365ZM8.70044 13.0003C8.70855 12.9971 8.70855 12.989 8.71986 12.9809C8.72703 12.9761 8.73601 12.9749 8.74418 12.9777C8.74995 12.9674 8.76006 12.9602 8.7717 12.9582C8.79111 12.955 8.80732 12.9582 8.8037 12.9663C8.8037 12.9906 8.81991 13.0067 8.81991 13.0261C8.81991 13.0455 8.8086 13.0698 8.76818 13.0861C8.72775 13.0974 8.67271 13.0974 8.6646 13.0942C8.6565 13.091 8.64839 13.0585 8.6565 13.0423C8.6646 13.0261 8.68722 13.0084 8.70023 13.0003H8.70044Z" fill="#82764F"/>
<path fill-rule="evenodd" clip-rule="evenodd" d="M8.75197 13.0113C8.75197 13.0113 8.72445 13.0275 8.72445 13.0356C8.72201 13.0434 8.72092 13.0516 8.72125 13.0598C8.72125 13.0646 8.75687 13.0566 8.76167 13.0517C8.76327 13.0485 8.75197 13.0197 8.75197 13.0113Z" fill="#6E6342"/>
<path fill-rule="evenodd" clip-rule="evenodd" d="M8.51124 12.9353C8.52735 12.9386 8.55487 12.9353 8.57588 12.9434C8.5921 12.9515 8.6034 12.9677 8.58719 12.9871C8.57098 13.0065 8.55519 13.0357 8.51924 13.0307C8.47882 13.0275 8.43999 13.0065 8.43999 12.9903C8.43862 12.9696 8.44561 12.9492 8.4594 12.9337C8.47562 12.9208 8.48362 12.9289 8.51114 12.9353H8.51124Z" fill="#585136"/>
<path fill-rule="evenodd" clip-rule="evenodd" d="M8.49183 12.9515C8.49183 12.9515 8.4401 12.9919 8.42708 13.0114C8.41087 13.0308 8.33162 13.1311 8.3074 13.1521C8.31544 13.1379 8.32461 13.1244 8.33482 13.1117C8.30282 13.1322 8.27883 13.163 8.26687 13.1991C8.24746 13.259 8.37535 13.2913 8.4594 13.3156C8.54346 13.34 8.57599 13.3476 8.57599 13.3476C8.54504 13.3011 8.51848 13.2519 8.49663 13.2004C8.46463 13.1244 8.4481 13.1163 8.46911 13.0807C8.48532 13.045 8.50964 13.0208 8.50964 12.9933C8.49994 12.9677 8.49183 12.9515 8.49183 12.9515Z" fill="#574F35"/>
<path fill-rule="evenodd" clip-rule="evenodd" d="M6.64731 13.0793C6.65909 13.0815 6.67116 13.0815 6.68293 13.0793C6.70715 13.076 6.95963 12.9833 7.22341 13C7.42089 13.0119 7.61662 13.0441 7.80752 13.096C8.13925 13.1833 8.55184 13.3565 8.81883 13.4552C8.88997 13.4827 8.95963 13.5313 9.01083 13.5506C9.21477 13.63 9.22277 13.63 9.34256 13.651C9.48336 13.6704 9.62736 13.6235 9.77787 13.5911C9.96229 13.5506 10.2778 13.5312 10.5545 13.4908C10.644 13.4784 10.7322 13.4583 10.8183 13.4309C10.8183 13.4309 10.5982 13.651 10.0707 13.7302C9.85742 13.7626 9.64072 13.7653 9.42672 13.7383C9.2584 13.7221 9.14683 13.6978 9.06267 13.6736C8.9672 13.6461 8.77136 13.5732 8.53029 13.5136C8.36197 13.4699 8.17424 13.4375 7.95909 13.3971C7.42832 13.2999 6.85232 13.1884 6.64709 13.08L6.64731 13.0793Z" fill="#252211"/>
<path fill-rule="evenodd" clip-rule="evenodd" d="M6.05182 12.0793C5.92382 12.1877 5.78803 12.2913 5.65545 12.3916L5.25577 12.6987C5.11987 12.7989 4.98718 12.9025 4.85118 13.0029C4.71518 13.1032 4.57939 13.1986 4.43518 13.2909C4.56318 13.1825 4.69897 13.0821 4.83486 12.9835C4.97075 12.8848 5.11166 12.788 5.24275 12.688L5.64243 12.3805C5.77993 12.2802 5.91262 12.1766 6.05182 12.0796V12.0793ZM5.34453 13.212C5.34453 13.212 5.48853 13.0922 5.66815 12.924C5.89141 12.7154 6.1649 12.4483 6.25226 12.3999L5.34442 13.2121L5.34453 13.212Z" fill="#CFB66C"/>
<path fill-rule="evenodd" clip-rule="evenodd" d="M5.34473 13.212C5.41598 13.1409 5.49203 13.0713 5.56809 13.0033L5.68457 12.903C5.72019 12.871 5.76073 12.835 5.79625 12.7994C5.86739 12.7283 5.93705 12.6521 6.00819 12.5794C6.04346 12.5428 6.08074 12.5082 6.11987 12.4758C6.13944 12.4585 6.16116 12.4438 6.18451 12.4321C6.20403 12.4207 6.22505 12.4001 6.25246 12.3964C6.23635 12.4207 6.21694 12.4321 6.20073 12.4531C6.18131 12.4693 6.1651 12.4887 6.14899 12.5048C6.11337 12.5404 6.07294 12.5727 6.03731 12.6052C5.96126 12.6699 5.88201 12.7332 5.80595 12.8009C5.7299 12.8686 5.65875 12.9417 5.58259 13.0096C5.50014 13.0793 5.42409 13.1473 5.34473 13.2123V13.212ZM6.31225 12.5647C6.31225 12.5647 5.78478 13.081 5.6763 13.165L6.31225 12.5647Z" fill="#CFB66C"/>
<path fill-rule="evenodd" clip-rule="evenodd" d="M6.31222 12.5647C6.26477 12.6196 6.21389 12.6715 6.1599 12.72L5.9999 12.8721C5.94816 12.9238 5.89952 12.9757 5.84459 13.0274C5.78795 13.076 5.73622 13.1234 5.67627 13.1682L5.83158 13.0161C5.88342 12.9644 5.94006 12.9208 5.9951 12.8689L6.1504 12.7168C6.20374 12.6635 6.25558 12.6116 6.31222 12.5647ZM6.33643 12.8446C6.28781 12.9803 6.23052 13.1127 6.16491 13.2411C6.02902 13.5129 5.82518 13.8527 5.73611 14.0259L6.33643 12.8446Z" fill="#CFB66C"/>
<path fill-rule="evenodd" clip-rule="evenodd" d="M6.33651 12.8447C6.33651 12.9046 6.3203 12.9564 6.30089 13.0081C6.28196 13.0599 6.26039 13.1107 6.23625 13.1602C6.21193 13.2088 6.18441 13.2606 6.15689 13.3076C6.12937 13.3545 6.09705 13.4029 6.07273 13.4516L5.90931 13.7396C5.85267 13.8356 5.79763 13.9321 5.73779 14.0244C5.77822 13.9208 5.83326 13.8237 5.8851 13.7282C5.94174 13.6322 5.99347 13.5362 6.0451 13.4369C6.07031 13.3875 6.09298 13.3367 6.11305 13.2849C6.13726 13.2331 6.16147 13.1846 6.18099 13.1376C6.20521 13.0859 6.22462 13.0373 6.24894 12.9904C6.27635 12.9402 6.29907 12.8917 6.3363 12.8447L6.33651 12.8447Z" fill="#CFB66C"/>
<path fill-rule="evenodd" clip-rule="evenodd" d="M6.91258 14.1715C6.91258 14.1715 6.75258 14.3835 6.76858 14.652C6.81221 14.5113 6.86725 14.2961 6.91258 14.1715ZM7.06482 14.384C7.06482 14.384 7.00818 14.96 6.96124 15.2432C7.02759 14.9159 7.0405 14.9434 7.06482 14.384ZM8.12465 15.2772C8.12465 15.2772 7.88519 15.9812 7.88028 16.1768C7.93212 15.9757 8.03239 15.5647 8.12465 15.2767V15.2772Z" fill="#DEC270"/>
<path fill-rule="evenodd" clip-rule="evenodd" d="M8.68457 14.128C8.68457 14.128 9.07294 14.7687 9.36425 15.3156C9.28542 15.0404 9.10409 14.5357 8.68457 14.128Z" fill="#CBAF59"/>
<path fill-rule="evenodd" clip-rule="evenodd" d="M9.72815 15.0713C9.94139 15.4482 10.1337 15.8366 10.3041 16.2347C10.2718 15.9596 10.1844 15.4888 9.72815 15.0713Z" fill="#E3C677"/>
<path fill-rule="evenodd" clip-rule="evenodd" d="M12.7962 16.0159C12.8608 15.9755 12.9887 15.7553 13.1004 15.7004C13.2119 15.6438 13.2961 15.6325 13.3965 15.5208C13.4967 15.4042 13.5245 15.3331 13.7443 15.2409C14.0518 15.1081 13.8403 14.9366 13.8403 14.9366C13.8742 14.9033 13.9104 14.8725 13.9487 14.8444C14.0281 14.7846 14.1202 14.7117 14.1122 14.5838C14.1009 14.3687 14.0605 14.0564 13.8841 13.8751C14.0556 13.8395 14.384 13.8153 14.5881 13.7636C14.8242 13.7036 14.9327 13.6195 14.9327 13.6195C14.9327 13.6195 14.7968 13.3881 15.0169 13.1551C15.2369 12.9222 15.4165 12.783 15.5492 12.5224C15.3971 12.503 15.1652 12.4221 14.5734 12.647C14.6054 12.662 14.6362 12.6793 14.6657 12.6987C14.6657 12.6987 14.3017 12.7991 14.169 12.9108C13.9375 13.1065 13.9084 13.2667 13.6576 13.3865C13.4068 13.5063 13.1543 13.4739 12.9457 13.5709C12.7371 13.668 12.7062 13.7505 12.6301 13.7862C12.6463 13.8056 12.6269 13.8379 12.6576 13.8654C12.6382 13.8929 12.5249 14.0774 12.41 14.0774C12.4213 14.1211 12.5184 14.1534 12.5184 14.1534C12.5184 14.1534 12.4473 14.2053 12.266 14.2182C12.3582 14.3142 12.4457 14.4188 12.6867 14.5709C12.6673 14.6113 12.5863 14.6713 12.6188 14.7473C12.6544 14.8234 12.7468 14.927 13.1155 15.0111C12.9278 15.0191 12.7078 15.0629 12.4115 15.0224C12.1154 14.9868 12.0669 14.9658 11.8841 15.0111C11.9035 15.0305 11.9552 15.0305 12.0005 15.0823C11.952 15.0855 11.6478 15.0467 11.5442 15.1827C11.4358 15.3233 11.3889 15.5548 11.397 15.7101C11.3404 15.7376 11.2853 15.7862 11.3129 15.8865C11.3404 15.9869 11.4844 16.0192 11.5766 16.0823C11.6688 16.1502 11.6769 16.1744 11.7644 16.1583C11.8565 16.1389 11.9924 16.0468 12.0718 16.0468C12.1511 16.0468 12.2077 16.1066 12.2077 16.1066C12.2077 16.1066 12.4229 16.003 12.4439 16.0224C12.4634 16.0419 12.4471 16.1664 12.4682 16.1859C12.4895 16.2005 12.7319 16.0565 12.7967 16.0159H12.7962Z" fill="#ECD592"/>
<path fill-rule="evenodd" clip-rule="evenodd" d="M17.5001 9.54041C16.4888 6.92879 13.9888 6.44495 13.9888 6.44495H6.85606L6.88358 9.10511H8.30406V15.0453H6.85596V17.7006H13.7913C15.4628 17.7006 16.8026 16.0209 16.8026 16.0209C18.9482 12.9757 17.5 9.54041 17.5 9.54041H17.5001ZM13.8285 14.2313C13.8285 14.2313 13.2845 15.0162 12.6926 15.0162H11.5086L11.4806 9.11166H13.0001C13.0001 9.11166 13.7041 9.25886 14.1959 10.652C14.1959 10.652 14.848 12.6467 13.8285 14.2313Z" fill="white" fill-opacity="0.8"/>
</svg>
