<svg width="24" height="24" viewBox="0 0 24 24" fill="none" xmlns="http://www.w3.org/2000/svg">
<rect width="24" height="24" rx="4" fill="#EDF0F4"/>
<path d="M12.0613 4C8.71933 4.01342 6.01342 6.71933 6 10.0613C6 10.7306 6.10803 11.3954 6.31962 12.0301C6.47751 12.4623 6.94608 12.695 7.38588 12.5614C7.81097 12.3984 8.03662 11.9336 7.9011 11.4989C7.72148 11.0042 7.64157 10.4794 7.66522 9.95389C7.7381 7.54012 9.75363 5.64221 12.1674 5.71508C14.5812 5.78796 16.4791 7.80349 16.4062 10.2173C16.3378 12.477 14.5582 14.3122 12.301 14.4497C12.301 14.4497 11.4502 14.5015 11.027 14.5532C10.871 14.5756 10.7163 14.6063 10.5635 14.6453C10.5418 14.6677 10.5067 14.6677 10.4843 14.6459L10.4836 14.6453C10.4683 14.6255 10.4683 14.5973 10.4836 14.5775L10.6153 13.859L11.4144 10.2652C11.5103 9.81646 11.2245 9.37474 10.7758 9.27885C10.327 9.18297 9.88531 9.46871 9.78942 9.91746C9.78942 9.91746 7.88896 18.7141 7.88896 18.794C7.78029 19.2216 8.03854 19.6563 8.46619 19.765C8.47067 19.7662 8.47578 19.7675 8.48026 19.7682H8.52436C8.95138 19.8788 9.38734 19.6218 9.49729 19.1948C9.49921 19.1877 9.50113 19.1807 9.5024 19.173C9.50113 19.1596 9.50113 19.1462 9.5024 19.1334C9.52606 19.0298 9.76577 17.8594 9.76577 17.8594C9.94732 16.976 10.6594 16.299 11.5505 16.1622C11.734 16.1341 12.5049 16.0823 12.5049 16.0823C15.8341 15.7505 18.2638 12.7825 17.9314 9.45337C17.6284 6.41697 15.113 4.07927 12.0613 4Z" fill="#1E1E1E"/>
<path d="M12.4289 17.9757C11.8823 17.8619 11.3479 18.2129 11.2341 18.7588C11.2328 18.7639 11.2322 18.769 11.2309 18.7741C11.1127 19.3168 11.4566 19.8532 11.9999 19.9714C12.0006 19.9714 12.0012 19.9714 12.0018 19.9721H12.03C12.5618 20.1005 13.0969 19.7732 13.2247 19.242C13.226 19.2382 13.2266 19.2337 13.2279 19.2299V19.1743C13.3219 18.6258 12.9716 18.0997 12.4289 17.9757Z" fill="#E6007A"/>
</svg>
