<svg width="16" height="16" viewBox="0 0 16 16" fill="none" xmlns="http://www.w3.org/2000/svg">
<path d="M14.474 3.80667L10.8607 0.193333C10.7365 0.0701706 10.5689 0.000736414 10.394 0H2.66732C2.3137 0 1.97456 0.140476 1.72451 0.390524C1.47446 0.640573 1.33398 0.979711 1.33398 1.33333V14.6667C1.33398 15.0203 1.47446 15.3594 1.72451 15.6095C1.97456 15.8595 2.3137 16 2.66732 16H13.334C13.6876 16 14.0267 15.8595 14.2768 15.6095C14.5268 15.3594 14.6673 15.0203 14.6673 14.6667V4.27333C14.6666 4.09844 14.5971 3.93084 14.474 3.80667V3.80667ZM13.334 14.3333C13.334 14.4217 13.2989 14.5065 13.2364 14.569C13.1738 14.6315 13.0891 14.6667 13.0007 14.6667H3.00065C2.91225 14.6667 2.82746 14.6315 2.76495 14.569C2.70244 14.5065 2.66732 14.4217 2.66732 14.3333V1.66667C2.66732 1.57826 2.70244 1.49348 2.76495 1.43096C2.82746 1.36845 2.91225 1.33333 3.00065 1.33333H9.83398C9.87819 1.33333 9.92058 1.35089 9.95184 1.38215C9.98309 1.41341 10.0007 1.4558 10.0007 1.5V3.33333C10.0007 3.68696 10.1411 4.02609 10.3912 4.27614C10.6412 4.52619 10.9804 4.66667 11.334 4.66667H13.1673C13.2115 4.66667 13.2539 4.68423 13.2852 4.71548C13.3164 4.74674 13.334 4.78913 13.334 4.83333V14.3333Z" fill="white"/>
<path d="M6.00065 7H4.66732C4.48322 7 4.33398 7.14924 4.33398 7.33333V8C4.33398 8.18409 4.48322 8.33333 4.66732 8.33333H6.00065C6.18475 8.33333 6.33398 8.18409 6.33398 8V7.33333C6.33398 7.14924 6.18475 7 6.00065 7Z" fill="white"/>
<path d="M6.00065 9.3335H4.66732C4.48322 9.3335 4.33398 9.48273 4.33398 9.66683V10.3335C4.33398 10.5176 4.48322 10.6668 4.66732 10.6668H6.00065C6.18475 10.6668 6.33398 10.5176 6.33398 10.3335V9.66683C6.33398 9.48273 6.18475 9.3335 6.00065 9.3335Z" fill="white"/>
<path d="M6.00065 11.6665H4.66732C4.48322 11.6665 4.33398 11.8157 4.33398 11.9998V12.6665C4.33398 12.8506 4.48322 12.9998 4.66732 12.9998H6.00065C6.18475 12.9998 6.33398 12.8506 6.33398 12.6665V11.9998C6.33398 11.8157 6.18475 11.6665 6.00065 11.6665Z" fill="white"/>
<path d="M11.334 7H7.66732C7.48322 7 7.33398 7.14924 7.33398 7.33333V8C7.33398 8.18409 7.48322 8.33333 7.66732 8.33333H11.334C11.5181 8.33333 11.6673 8.18409 11.6673 8V7.33333C11.6673 7.14924 11.5181 7 11.334 7Z" fill="white"/>
<path d="M11.334 9.3335H7.66732C7.48322 9.3335 7.33398 9.48273 7.33398 9.66683V10.3335C7.33398 10.5176 7.48322 10.6668 7.66732 10.6668H11.334C11.5181 10.6668 11.6673 10.5176 11.6673 10.3335V9.66683C11.6673 9.48273 11.5181 9.3335 11.334 9.3335Z" fill="white"/>
<path d="M11.334 11.6665H7.66732C7.48322 11.6665 7.33398 11.8157 7.33398 11.9998V12.6665C7.33398 12.8506 7.48322 12.9998 7.66732 12.9998H11.334C11.5181 12.9998 11.6673 12.8506 11.6673 12.6665V11.9998C11.6673 11.8157 11.5181 11.6665 11.334 11.6665Z" fill="white"/>
</svg>
