<svg width="16" height="17" viewBox="0 0 16 17" fill="none" xmlns="http://www.w3.org/2000/svg">
<path d="M10.6667 15.167H0.666667C0.489856 15.167 0.320286 15.2372 0.195262 15.3623C0.0702379 15.4873 0 15.6568 0 15.8337C0 16.0105 0.0702379 16.18 0.195262 16.3051C0.320286 16.4301 0.489856 16.5003 0.666667 16.5003H10.6667C10.8435 16.5003 11.013 16.4301 11.1381 16.3051C11.2631 16.18 11.3333 16.0105 11.3333 15.8337C11.3333 15.6568 11.2631 15.4873 11.1381 15.3623C11.013 15.2372 10.8435 15.167 10.6667 15.167Z" fill="white"/>
<path d="M15.3333 11.833H0.666667C0.489856 11.833 0.320286 11.9032 0.195262 12.0283C0.0702379 12.1533 0 12.3229 0 12.4997C0 12.6765 0.0702379 12.8461 0.195262 12.9711C0.320286 13.0961 0.489856 13.1663 0.666667 13.1663H15.3333C15.5101 13.1663 15.6797 13.0961 15.8047 12.9711C15.9298 12.8461 16 12.6765 16 12.4997C16 12.3229 15.9298 12.1533 15.8047 12.0283C15.6797 11.9032 15.5101 11.833 15.3333 11.833Z" fill="white"/>
<path d="M15.3333 8.5H0.666667C0.489856 8.5 0.320286 8.57024 0.195262 8.69526C0.0702379 8.82029 0 8.98986 0 9.16667C0 9.34348 0.0702379 9.51305 0.195262 9.63807C0.320286 9.7631 0.489856 9.83333 0.666667 9.83333H15.3333C15.5101 9.83333 15.6797 9.7631 15.8047 9.63807C15.9298 9.51305 16 9.34348 16 9.16667C16 8.98986 15.9298 8.82029 15.8047 8.69526C15.6797 8.57024 15.5101 8.5 15.3333 8.5Z" fill="white"/>
<path d="M15.3333 5.16699H8.66667C8.48986 5.16699 8.32029 5.23723 8.19526 5.36225C8.07024 5.48728 8 5.65685 8 5.83366C8 6.01047 8.07024 6.18004 8.19526 6.30506C8.32029 6.43009 8.48986 6.50033 8.66667 6.50033H15.3333C15.5101 6.50033 15.6797 6.43009 15.8047 6.30506C15.9298 6.18004 16 6.01047 16 5.83366C16 5.65685 15.9298 5.48728 15.8047 5.36225C15.6797 5.23723 15.5101 5.16699 15.3333 5.16699Z" fill="white"/>
<path d="M8.66667 3.16634H15.3333C15.5101 3.16634 15.6797 3.0961 15.8047 2.97108C15.9298 2.84605 16 2.67649 16 2.49967C16 2.32286 15.9298 2.15329 15.8047 2.02827C15.6797 1.90325 15.5101 1.83301 15.3333 1.83301H8.66667C8.48986 1.83301 8.32029 1.90325 8.19526 2.02827C8.07024 2.15329 8 2.32286 8 2.49967C8 2.67649 8.07024 2.84605 8.19526 2.97108C8.32029 3.0961 8.48986 3.16634 8.66667 3.16634V3.16634Z" fill="white"/>
<path d="M5.33333 0.5H1.33333C0.596954 0.5 0 1.09695 0 1.83333V5.83333C0 6.56971 0.596954 7.16667 1.33333 7.16667H5.33333C6.06971 7.16667 6.66667 6.56971 6.66667 5.83333V1.83333C6.66667 1.09695 6.06971 0.5 5.33333 0.5Z" fill="white"/>
</svg>
