<svg width="40" height="40" viewBox="0 0 40 40" fill="none" xmlns="http://www.w3.org/2000/svg">
<circle cx="20" cy="20" r="20" fill="#303030"/>
<path d="M26.0955 16.3179H13.9045C13.848 16.3177 13.7919 16.3293 13.74 16.3518C13.6882 16.3744 13.6415 16.4075 13.6031 16.449C13.5646 16.4906 13.5352 16.5396 13.5167 16.5931C13.4981 16.6466 13.4909 16.7033 13.4955 16.7597L14.5427 28.3288C14.5796 28.7368 14.7681 29.1161 15.0711 29.3918C15.3741 29.6675 15.7694 29.8195 16.1791 29.8179H23.8209C24.2305 29.8195 24.6259 29.6675 24.9289 29.3918C25.2319 29.1161 25.4204 28.7368 25.4573 28.3288L26.5455 16.727C26.55 16.6706 26.5428 16.6138 26.5242 16.5604C26.5057 16.5069 26.4763 16.4578 26.4378 16.4163C26.3994 16.3748 26.3528 16.3417 26.3009 16.3191C26.249 16.2965 26.193 16.285 26.1364 16.2852L26.0955 16.3179ZM18.5682 26.9543C18.5682 27.117 18.5035 27.2731 18.3884 27.3882C18.2734 27.5032 18.1173 27.5679 17.9545 27.5679C17.7918 27.5679 17.6357 27.5032 17.5206 27.3882C17.4056 27.2731 17.3409 27.117 17.3409 26.9543V19.5906C17.3409 19.4279 17.4056 19.2718 17.5206 19.1567C17.6357 19.0416 17.7918 18.977 17.9545 18.977C18.1173 18.977 18.2734 19.0416 18.3884 19.1567C18.5035 19.2718 18.5682 19.4279 18.5682 19.5906V26.9543ZM22.6591 26.9543C22.6591 27.117 22.5944 27.2731 22.4794 27.3882C22.3643 27.5032 22.2082 27.5679 22.0455 27.5679C21.8827 27.5679 21.7266 27.5032 21.6115 27.3882C21.4965 27.2731 21.4318 27.117 21.4318 26.9543V19.5906C21.4318 19.4279 21.4965 19.2718 21.6115 19.1567C21.7266 19.0416 21.8827 18.977 22.0455 18.977C22.2082 18.977 22.3643 19.0416 22.4794 19.1567C22.5944 19.2718 22.6591 19.4279 22.6591 19.5906V26.9543Z" fill="white"/>
<path d="M28.1818 13.4544H24.2955C24.2412 13.4544 24.1892 13.4328 24.1508 13.3945C24.1125 13.3561 24.0909 13.3041 24.0909 13.2498V12.2271C24.0909 11.6846 23.8754 11.1643 23.4918 10.7807C23.1082 10.3971 22.5879 10.1816 22.0455 10.1816H17.9545C17.4121 10.1816 16.8918 10.3971 16.5082 10.7807C16.1246 11.1643 15.9091 11.6846 15.9091 12.2271V13.2498C15.9091 13.3041 15.8875 13.3561 15.8492 13.3945C15.8108 13.4328 15.7588 13.4544 15.7045 13.4544H11.8182C11.6012 13.4544 11.3931 13.5406 11.2396 13.694C11.0862 13.8474 11 14.0556 11 14.2725C11 14.4895 11.0862 14.6977 11.2396 14.8511C11.3931 15.0045 11.6012 15.0907 11.8182 15.0907H28.1818C28.3988 15.0907 28.6069 15.0045 28.7604 14.8511C28.9138 14.6977 29 14.4895 29 14.2725C29 14.0556 28.9138 13.8474 28.7604 13.694C28.6069 13.5406 28.3988 13.4544 28.1818 13.4544ZM17.5455 13.2498V12.2271C17.5455 12.1186 17.5886 12.0145 17.6653 11.9378C17.742 11.8611 17.846 11.818 17.9545 11.818H22.0455C22.154 11.818 22.258 11.8611 22.3347 11.9378C22.4114 12.0145 22.4545 12.1186 22.4545 12.2271V13.2498C22.4545 13.3041 22.433 13.3561 22.3946 13.3945C22.3563 13.4328 22.3042 13.4544 22.25 13.4544H17.75C17.6958 13.4544 17.6437 13.4328 17.6054 13.3945C17.567 13.3561 17.5455 13.3041 17.5455 13.2498Z" fill="white"/>
</svg>
