<svg width="16" height="16" viewBox="0 0 16 16" fill="none" xmlns="http://www.w3.org/2000/svg">
  <g clip-path="url(#clip0_8824_55302)">
    <path
      d="M8 0C6.41775 0 4.87104 0.469192 3.55544 1.34824C2.23985 2.22729 1.21447 3.47672 0.608967 4.93853C0.00346629 6.40034 -0.15496 8.00887 0.153721 9.56072C0.462403 11.1126 1.22433 12.538 2.34315 13.6569C3.46197 14.7757 4.88743 15.5376 6.43928 15.8463C7.99113 16.155 9.59966 15.9965 11.0615 15.391C12.5233 14.7855 13.7727 13.7602 14.6518 12.4446C15.5308 11.129 16 9.58225 16 8C16 5.87827 15.1571 3.84344 13.6569 2.34315C12.1566 0.842855 10.1217 0 8 0V0ZM11.4667 11.48C11.4074 11.5452 11.3358 11.5979 11.2559 11.6353C11.1761 11.6726 11.0897 11.6937 11.0017 11.6974C10.9136 11.7012 10.8258 11.6874 10.7431 11.6569C10.6604 11.6265 10.5846 11.5799 10.52 11.52L7.18667 8.49333C7.12364 8.42812 7.07457 8.35074 7.04247 8.26591C7.01038 8.18109 6.99592 8.0906 7 8V4.33333C7 4.15652 7.07024 3.98695 7.19527 3.86193C7.32029 3.7369 7.48986 3.66667 7.66667 3.66667C7.84348 3.66667 8.01305 3.7369 8.13807 3.86193C8.2631 3.98695 8.33334 4.15652 8.33334 4.33333V7.70667L11.42 10.54C11.5506 10.6586 11.6288 10.8242 11.6375 11.0004C11.6463 11.1765 11.5848 11.349 11.4667 11.48Z"
      fill="#9C9C9C" />
  </g>
  <defs>
    <clipPath id="clip0_8824_55302">
      <rect width="16" height="16" fill="white" />
    </clipPath>
  </defs>
</svg>