<svg width="16" height="17" viewBox="0 0 16 17" fill="none" xmlns="http://www.w3.org/2000/svg">
<g clip-path="url(#clip0_8824_55329)">
<path d="M15.3333 15.167H0.666667C0.489856 15.167 0.320286 15.2372 0.195262 15.3623C0.0702379 15.4873 0 15.6568 0 15.8337C0 16.0105 0.0702379 16.18 0.195262 16.3051C0.320286 16.4301 0.489856 16.5003 0.666667 16.5003H15.3333C15.5101 16.5003 15.6797 16.4301 15.8047 16.3051C15.9298 16.18 16 16.0105 16 15.8337C16 15.6568 15.9298 15.4873 15.8047 15.3623C15.6797 15.2372 15.5101 15.167 15.3333 15.167Z" fill="white"/>
<path d="M0.666667 12.8333H12.6667C12.8435 12.8333 13.013 12.7631 13.1381 12.6381C13.2631 12.513 13.3333 12.3435 13.3333 12.1667C13.3333 11.9899 13.2631 11.8203 13.1381 11.6953C13.013 11.5702 12.8435 11.5 12.6667 11.5H0.666667C0.489856 11.5 0.320286 11.5702 0.195262 11.6953C0.0702379 11.8203 0 11.9899 0 12.1667C0 12.3435 0.0702379 12.513 0.195262 12.6381C0.320286 12.7631 0.489856 12.8333 0.666667 12.8333Z" fill="white"/>
<path d="M15.3333 7.83301H0.666667C0.489856 7.83301 0.320286 7.90325 0.195262 8.02827C0.0702379 8.15329 0 8.32286 0 8.49967C0 8.67649 0.0702379 8.84605 0.195262 8.97108C0.320286 9.0961 0.489856 9.16634 0.666667 9.16634H15.3333C15.5101 9.16634 15.6797 9.0961 15.8047 8.97108C15.9298 8.84605 16 8.67649 16 8.49967C16 8.32286 15.9298 8.15329 15.8047 8.02827C15.6797 7.90325 15.5101 7.83301 15.3333 7.83301Z" fill="white"/>
<path d="M0.666667 5.50033H12.6667C12.8435 5.50033 13.013 5.43009 13.1381 5.30506C13.2631 5.18004 13.3333 5.01047 13.3333 4.83366C13.3333 4.65685 13.2631 4.48728 13.1381 4.36225C13.013 4.23723 12.8435 4.16699 12.6667 4.16699H0.666667C0.489856 4.16699 0.320286 4.23723 0.195262 4.36225C0.0702379 4.48728 0 4.65685 0 4.83366C0 5.01047 0.0702379 5.18004 0.195262 5.30506C0.320286 5.43009 0.489856 5.50033 0.666667 5.50033Z" fill="white"/>
<path d="M0.666667 1.83333H15.3333C15.5101 1.83333 15.6797 1.7631 15.8047 1.63807C15.9298 1.51305 16 1.34348 16 1.16667C16 0.989856 15.9298 0.820286 15.8047 0.695262C15.6797 0.570238 15.5101 0.5 15.3333 0.5H0.666667C0.489856 0.5 0.320286 0.570238 0.195262 0.695262C0.0702379 0.820286 0 0.989856 0 1.16667C0 1.34348 0.0702379 1.51305 0.195262 1.63807C0.320286 1.7631 0.489856 1.83333 0.666667 1.83333Z" fill="white"/>
</g>
<defs>
<clipPath id="clip0_8824_55329">
<rect width="16" height="16" fill="white" transform="translate(0 0.5)"/>
</clipPath>
</defs>
</svg>
