<svg width="16" height="16" viewBox="0 0 16 16" fill="none" xmlns="http://www.w3.org/2000/svg">
<path d="M13.5 2.45833C13.5 2.07156 13.3464 1.70063 13.0729 1.42714C12.7994 1.15365 12.4284 1 12.0417 1H4.45833C4.07156 1 3.70063 1.15365 3.42714 1.42714C3.15365 1.70063 3 2.07156 3 2.45833V13.5417C3 13.7332 3.03772 13.9228 3.11101 14.0997C3.1843 14.2767 3.29172 14.4374 3.42714 14.5729C3.56255 14.7083 3.72332 14.8157 3.90025 14.889C4.07719 14.9623 4.26682 15 4.45833 15H10.2917C11.1421 14.9985 11.9573 14.6599 12.5586 14.0586C13.1599 13.4573 13.4985 12.6421 13.5 11.7917V2.45833ZM5.33333 3.33333C5.33483 3.25645 5.36604 3.18312 5.42041 3.12875C5.47479 3.07437 5.54811 3.04316 5.625 3.04167H10.875C10.9524 3.04167 11.0265 3.0724 11.0812 3.12709C11.1359 3.18179 11.1667 3.25598 11.1667 3.33333V7.125C11.1667 7.20235 11.1359 7.27654 11.0812 7.33124C11.0265 7.38594 10.9524 7.41667 10.875 7.41667H5.625C5.54765 7.41667 5.47346 7.38594 5.41876 7.33124C5.36406 7.27654 5.33333 7.20235 5.33333 7.125V3.33333ZM7.95833 10.7708C7.95682 10.8864 7.91024 10.9968 7.82852 11.0785C7.7468 11.1602 7.6364 11.2068 7.52083 11.2083H6.79167C6.71431 11.2083 6.64013 11.2391 6.58543 11.2938C6.53073 11.3485 6.5 11.4226 6.5 11.5V12.2292C6.5 12.3452 6.45391 12.4565 6.37186 12.5385C6.28981 12.6206 6.17853 12.6667 6.0625 12.6667C5.94647 12.6667 5.83519 12.6206 5.75314 12.5385C5.67109 12.4565 5.625 12.3452 5.625 12.2292V11.5C5.625 11.4226 5.59427 11.3485 5.53957 11.2938C5.48487 11.2391 5.41069 11.2083 5.33333 11.2083H4.60417C4.48813 11.2083 4.37685 11.1622 4.29481 11.0802C4.21276 10.9981 4.16667 10.8869 4.16667 10.7708C4.16667 10.6548 4.21276 10.5435 4.29481 10.4615C4.37685 10.3794 4.48813 10.3333 4.60417 10.3333H5.33333C5.41069 10.3333 5.48487 10.3026 5.53957 10.2479C5.59427 10.1932 5.625 10.119 5.625 10.0417V9.3125C5.625 9.19647 5.67109 9.08519 5.75314 9.00314C5.83519 8.92109 5.94647 8.875 6.0625 8.875C6.17853 8.875 6.28981 8.92109 6.37186 9.00314C6.45391 9.08519 6.5 9.19647 6.5 9.3125V10.0417C6.5 10.119 6.53073 10.1932 6.58543 10.2479C6.64013 10.3026 6.71431 10.3333 6.79167 10.3333H7.52083C7.6364 10.3348 7.7468 10.3814 7.82852 10.4631C7.91024 10.5449 7.95682 10.6553 7.95833 10.7708ZM9.70833 12.375C9.59296 12.375 9.48018 12.3408 9.38425 12.2767C9.28832 12.2126 9.21355 12.1215 9.1694 12.0149C9.12525 11.9083 9.1137 11.791 9.13621 11.6779C9.15872 11.5647 9.21427 11.4608 9.29585 11.3792C9.37743 11.2976 9.48137 11.242 9.59453 11.2195C9.70769 11.197 9.82498 11.2086 9.93157 11.2527C10.0382 11.2969 10.1293 11.3717 10.1934 11.4676C10.2575 11.5635 10.2917 11.6763 10.2917 11.7917C10.2917 11.9464 10.2302 12.0947 10.1208 12.2041C10.0114 12.3135 9.86304 12.375 9.70833 12.375ZM11.1667 10.625C11.0513 10.625 10.9385 10.5908 10.8426 10.5267C10.7467 10.4626 10.6719 10.3715 10.6277 10.2649C10.5836 10.1583 10.572 10.041 10.5945 9.92786C10.617 9.81471 10.6726 9.71077 10.7542 9.62919C10.8358 9.54761 10.9397 9.49205 11.0529 9.46954C11.166 9.44703 11.2833 9.45859 11.3899 9.50274C11.4965 9.54689 11.5876 9.62165 11.6517 9.71758C11.7158 9.81351 11.75 9.92629 11.75 10.0417C11.75 10.1964 11.6885 10.3447 11.5791 10.4541C11.4697 10.5635 11.3214 10.625 11.1667 10.625Z" fill="white"/>
</svg>
