<svg width="16" height="17" viewBox="0 0 16 17" fill="none" xmlns="http://www.w3.org/2000/svg">
<g clip-path="url(#clip0_9148_51863)">
<path d="M0.920234 8.0863L8.77357 15.833C9.0224 16.0728 9.35463 16.2067 9.70023 16.2063C9.87812 16.2117 10.0553 16.1815 10.2213 16.1174C10.3873 16.0533 10.5388 15.9566 10.6669 15.833L15.3736 11.1196C15.5053 10.9921 15.6094 10.8388 15.6792 10.6692C15.749 10.4997 15.7831 10.3176 15.7793 10.1343C15.7756 9.95093 15.7341 9.77035 15.6574 9.60381C15.5807 9.43726 15.4704 9.28832 15.3336 9.1663L7.53357 1.49964L7.50023 1.45964C7.06424 1.05666 6.49996 0.820561 5.9069 0.792969H1.57357C1.21995 0.792969 0.880807 0.933445 0.630759 1.18349C0.38071 1.43354 0.240234 1.77268 0.240234 2.1263V6.49964C0.273034 7.09209 0.513838 7.65396 0.920234 8.0863ZM3.24023 4.8063C3.24548 4.60974 3.30855 4.41909 3.42157 4.25818C3.53459 4.09728 3.69254 3.97327 3.87567 3.90165C4.05879 3.83004 4.25897 3.814 4.45116 3.85554C4.64335 3.89709 4.81903 3.99437 4.95623 4.13523C5.09342 4.27608 5.18605 4.45426 5.22252 4.64748C5.259 4.8407 5.2377 5.04038 5.16129 5.22156C5.08488 5.40274 4.95675 5.55737 4.79293 5.66611C4.62911 5.77486 4.43686 5.8329 4.24023 5.83297C4.10664 5.83302 3.97439 5.80629 3.85129 5.75438C3.72819 5.70247 3.61675 5.62641 3.52353 5.53071C3.43031 5.43501 3.35722 5.3216 3.30856 5.19718C3.2599 5.07276 3.23667 4.93985 3.24023 4.8063Z" fill="white"/>
</g>
<defs>
<clipPath id="clip0_9148_51863">
<rect width="16" height="16" fill="white" transform="translate(0 0.5)"/>
</clipPath>
</defs>
</svg>
