<svg width="40" height="40" viewBox="0 0 40 40" fill="none" xmlns="http://www.w3.org/2000/svg">
<circle cx="20" cy="20" r="20" fill="#303030"/>
<path d="M20.277 11.0145C18.4757 11.0846 16.7363 11.6912 15.2819 12.7563C13.8274 13.8214 12.7242 15.2965 12.1135 16.9927C12.0968 17.0375 12.0653 17.0752 12.0241 17.0995C11.983 17.1239 11.9348 17.1335 11.8875 17.1266L10.4724 16.9173C10.3946 16.9069 10.3153 16.9177 10.2431 16.9487C10.1708 16.9796 10.1083 17.0295 10.0622 17.0931C10.0215 17.16 10 17.2368 10 17.315C10 17.3933 10.0215 17.47 10.0622 17.5369L12.2642 21.4721C12.2991 21.5314 12.3477 21.5814 12.406 21.6178C12.4643 21.6543 12.5306 21.6761 12.5991 21.6815C12.6627 21.6884 12.7271 21.6816 12.7878 21.6613C12.8485 21.6411 12.9041 21.608 12.9508 21.5642L16.1074 18.4244C16.1627 18.3696 16.2016 18.3005 16.2198 18.2249C16.238 18.1492 16.2347 18.07 16.2103 17.996C16.186 17.9221 16.1415 17.8565 16.0819 17.8064C16.0223 17.7564 15.9499 17.7239 15.8729 17.7127L14.4328 17.495C14.4012 17.4891 14.3713 17.4763 14.3452 17.4575C14.3192 17.4387 14.2976 17.4143 14.2821 17.3862C14.2674 17.3577 14.2597 17.3261 14.2597 17.2941C14.2597 17.262 14.2674 17.2305 14.2821 17.202C14.7807 16.0726 15.5724 15.0973 16.5752 14.3773C17.578 13.6573 18.7552 13.2188 19.9847 13.1074C21.2141 12.996 22.451 13.2156 23.5669 13.7436C24.6828 14.2716 25.637 15.0887 26.3305 16.11C27.024 17.1313 27.4315 18.3196 27.5107 19.5516C27.5898 20.7835 27.3378 22.0142 26.7808 23.1159C26.2237 24.2175 25.3819 25.15 24.3428 25.8165C23.3037 26.483 22.1051 26.8592 20.8715 26.9061C20.5939 26.9161 20.3317 27.036 20.1425 27.2393C19.9533 27.4426 19.8526 27.7128 19.8626 27.9904C19.8726 28.268 19.9924 28.5302 20.1958 28.7194C20.3991 28.9086 20.6693 29.0093 20.9469 28.9993C23.3329 28.9116 25.5864 27.8796 27.2116 26.1304C28.8367 24.3812 29.7005 22.058 29.6128 19.672C29.525 17.2859 28.4931 15.0324 26.7439 13.4073C24.9946 11.7821 22.6715 10.9184 20.2854 11.0061L20.277 11.0145Z" fill="white"/>
</svg>
