<svg width="24" height="24" viewBox="0 0 24 24" fill="none" xmlns="http://www.w3.org/2000/svg">
  <path
    d="M11.5776 11.7743C14.0005 11.7743 15.9647 9.81009 15.9647 7.38714C15.9647 4.96419 14.0005 3 11.5776 3C9.15462 3 7.19043 4.96419 7.19043 7.38714C7.19043 9.81009 9.15462 11.7743 11.5776 11.7743Z"
    fill="white" />
  <path
    d="M11.5778 12.9707C9.56868 12.9728 7.64247 13.7719 6.22181 15.1925C4.80116 16.6132 4.00211 18.5394 4 20.5485C4 20.6543 4.04202 20.7557 4.11681 20.8305C4.19161 20.9053 4.29305 20.9473 4.39883 20.9473H18.7567C18.8625 20.9473 18.964 20.9053 19.0388 20.8305C19.1135 20.7557 19.1556 20.6543 19.1556 20.5485C19.1535 18.5394 18.3544 16.6132 16.9338 15.1925C15.5131 13.7719 13.5869 12.9728 11.5778 12.9707Z"
    fill="white" />
</svg>