<svg width="16" height="16" viewBox="0 0 16 16" fill="none" xmlns="http://www.w3.org/2000/svg">
<path d="M15.7744 5.39968C15.7079 5.21441 15.5862 5.054 15.4256 4.94012C15.2651 4.82625 15.0734 4.7644 14.8766 4.76293H10.9987C10.9333 4.7629 10.8695 4.74272 10.8159 4.70512C10.7624 4.66752 10.7217 4.61433 10.6995 4.5528L9.31133 0.604918C9.239 0.426099 9.11488 0.272973 8.95491 0.16519C8.79494 0.057407 8.60641 -0.00011685 8.41351 1.7821e-07C8.21732 0.000939102 8.02624 0.0626769 7.86659 0.176713C7.70694 0.290748 7.58657 0.451473 7.52205 0.636755L6.12756 4.56554C6.10531 4.62707 6.06465 4.68025 6.0111 4.71785C5.95755 4.75545 5.89371 4.77564 5.82828 4.77566H1.95044C1.75339 4.77622 1.56132 4.83771 1.40059 4.95171C1.23985 5.06571 1.11831 5.22663 1.05262 5.41242C0.989453 5.59608 0.983002 5.79449 1.0341 5.98187C1.08521 6.16924 1.1915 6.33691 1.33916 6.46307L4.63755 9.20111C4.68711 9.24156 4.72334 9.296 4.74151 9.35733C4.75968 9.41866 4.75896 9.48405 4.73943 9.54496L3.35131 13.703C3.28593 13.8955 3.2837 14.1039 3.34493 14.2977C3.40616 14.4916 3.52766 14.6609 3.69175 14.7809C3.85585 14.901 4.05397 14.9656 4.25729 14.9652C4.46061 14.9649 4.65851 14.8997 4.82221 14.7791L8.22248 12.283C8.27661 12.2422 8.34254 12.2201 8.41033 12.2201C8.47811 12.2201 8.54405 12.2422 8.59817 12.283L12.0048 14.7791C12.1672 14.9142 12.3699 14.9917 12.5811 14.9994C12.7923 15.007 13 14.9444 13.1718 14.8214C13.3436 14.6984 13.4698 14.5219 13.5305 14.3195C13.5913 14.1171 13.5832 13.9003 13.5076 13.703L12.1194 9.54496C12.0999 9.48405 12.0992 9.41866 12.1173 9.35733C12.1355 9.296 12.1717 9.24156 12.2213 9.20111L15.5261 6.4567C15.6691 6.32605 15.7694 6.15522 15.8137 5.9666C15.858 5.77798 15.8443 5.58038 15.7744 5.39968Z" fill="white"/>
</svg>
