<svg width="16" height="16" viewBox="0 0 16 16" fill="none" xmlns="http://www.w3.org/2000/svg">
<path d="M15.3931 6.44033C15.3331 6.36033 12.1331 2.66699 7.99975 2.66699C5.33308 2.66699 2.66642 4.14699 0.606415 6.44033C0.217583 6.86551 0.00195312 7.42082 0.00195312 7.99699C0.00195313 8.57316 0.217583 9.12847 0.606415 9.55366C3.57975 12.8337 6.52642 13.3337 7.99975 13.3337C9.47308 13.3337 12.4464 12.807 15.3931 9.55366C15.7819 9.12847 15.9975 8.57316 15.9975 7.99699C15.9975 7.42082 15.7819 6.86551 15.3931 6.44033ZM14.4064 8.66699C14.3397 8.74699 11.4731 12.087 7.99975 12.0003C4.71308 11.9203 2.31975 9.46699 1.58642 8.66699C1.41964 8.48503 1.32712 8.24716 1.32712 8.00033C1.32712 7.75349 1.41964 7.51562 1.58642 7.33366C3.16642 5.60033 5.55308 3.94699 7.99975 4.00033C10.9531 3.93366 13.6131 6.46699 14.4064 7.33366C14.5746 7.51491 14.6681 7.75305 14.6681 8.00033C14.6681 8.24761 14.5746 8.48575 14.4064 8.66699Z" fill="white"/>
<path d="M8.00065 5.33398H7.74065C7.7123 5.33685 7.68516 5.34693 7.66182 5.36327C7.63847 5.37961 7.61971 5.40166 7.60732 5.42732C7.59269 5.45265 7.58499 5.4814 7.58499 5.51065C7.58499 5.53991 7.59269 5.56865 7.60732 5.59398C7.74116 5.7946 7.81809 6.02776 7.82992 6.26863C7.84174 6.5095 7.78801 6.74908 7.67445 6.96183C7.56089 7.17458 7.39175 7.35256 7.18505 7.47679C6.97834 7.60102 6.74182 7.66687 6.50065 7.66732C6.1968 7.66519 5.9028 7.55935 5.66732 7.36732C5.64299 7.35327 5.6154 7.34588 5.58732 7.34588C5.55923 7.34588 5.53164 7.35327 5.50732 7.36732C5.48018 7.37551 5.45585 7.39106 5.43702 7.41224C5.41819 7.43342 5.4056 7.45941 5.40065 7.48732C5.35994 7.65551 5.33758 7.82763 5.33398 8.00065C5.33398 8.52807 5.49038 9.04364 5.7834 9.48217C6.07642 9.9207 6.49289 10.2625 6.98016 10.4643C7.46743 10.6662 8.00361 10.719 8.52089 10.6161C9.03817 10.5132 9.51333 10.2592 9.88627 9.88627C10.2592 9.51333 10.5132 9.03817 10.6161 8.52089C10.719 8.00361 10.6662 7.46743 10.4643 6.98016C10.2625 6.49289 9.9207 6.07642 9.48217 5.7834C9.04364 5.49038 8.52807 5.33398 8.00065 5.33398Z" fill="white"/>
</svg>
