<svg width="16" height="16" viewBox="0 0 16 16" fill="none" xmlns="http://www.w3.org/2000/svg">
<g clip-path="url(#clip0_8824_55298)">
<path d="M15.1466 6.89987L13.9199 5.9132C13.8216 5.83469 13.7453 5.73197 13.6985 5.61511C13.6518 5.49824 13.6362 5.37124 13.6533 5.24654L13.8199 3.68654C13.8431 3.47925 13.8194 3.26941 13.7506 3.0725C13.6819 2.87559 13.5698 2.69663 13.4226 2.54883C13.2754 2.40102 13.097 2.28814 12.9003 2.21852C12.7037 2.14889 12.494 2.12429 12.2866 2.14654L10.7199 2.3132C10.5952 2.3303 10.4682 2.31471 10.3514 2.26796C10.2345 2.22122 10.1318 2.14492 10.0533 2.04654L9.08661 0.839869C8.95144 0.68441 8.78449 0.559764 8.59702 0.474346C8.40956 0.388928 8.20595 0.344727 7.99994 0.344727C7.79394 0.344727 7.59033 0.388928 7.40287 0.474346C7.2154 0.559764 7.04845 0.68441 6.91328 0.839869L5.92661 2.06654C5.8481 2.16492 5.74538 2.24122 5.62852 2.28796C5.51165 2.33471 5.38465 2.3503 5.25995 2.3332L3.71328 2.16654C3.50589 2.14429 3.29616 2.16889 3.09955 2.23852C2.90294 2.30814 2.72447 2.42102 2.5773 2.56883C2.43014 2.71663 2.31804 2.89559 2.24926 3.0925C2.18049 3.28941 2.1568 3.49925 2.17995 3.70654L2.34661 5.26654C2.36371 5.39124 2.34812 5.51824 2.30137 5.63511C2.25463 5.75197 2.17833 5.85469 2.07995 5.9332L0.853279 6.89987C0.690594 7.03043 0.5593 7.19585 0.469084 7.38393C0.378867 7.57201 0.332031 7.77794 0.332031 7.98654C0.332031 8.19513 0.378867 8.40107 0.469084 8.58914C0.5593 8.77722 0.690594 8.94264 0.853279 9.0732L2.07995 10.0599C2.17782 10.1388 2.25375 10.2416 2.30045 10.3583C2.34715 10.4751 2.36305 10.6019 2.34661 10.7265L2.17995 12.2932C2.15684 12.5 2.18082 12.7094 2.25009 12.9057C2.31936 13.102 2.43212 13.28 2.57995 13.4265C2.72435 13.5773 2.90214 13.692 3.09899 13.7615C3.29583 13.8309 3.50625 13.8532 3.71328 13.8265L5.27995 13.6599C5.40465 13.6428 5.53165 13.6584 5.64852 13.7051C5.76538 13.7519 5.8681 13.8282 5.94661 13.9265L6.93328 15.1532C7.06384 15.3159 7.22926 15.4472 7.41734 15.5374C7.60541 15.6276 7.81135 15.6744 8.01994 15.6744C8.22854 15.6744 8.43447 15.6276 8.62255 15.5374C8.81063 15.4472 8.97605 15.3159 9.10661 15.1532L10.0933 13.9265C10.1718 13.8282 10.2745 13.7519 10.3914 13.7051C10.5082 13.6584 10.6352 13.6428 10.7599 13.6599L12.3266 13.8265C12.5336 13.8532 12.7441 13.8309 12.9409 13.7615C13.1378 13.692 13.3155 13.5773 13.4599 13.4265C13.6078 13.28 13.7205 13.102 13.7898 12.9057C13.8591 12.7094 13.8831 12.5 13.8599 12.2932L13.6933 10.7265C13.6768 10.6019 13.6927 10.4751 13.7394 10.3583C13.7861 10.2416 13.8621 10.1388 13.9599 10.0599L15.1866 9.0732C15.3493 8.94264 15.4806 8.77722 15.5708 8.58914C15.661 8.40107 15.7079 8.19513 15.7079 7.98654C15.7079 7.77794 15.661 7.57201 15.5708 7.38393C15.4806 7.19585 15.3493 7.03043 15.1866 6.89987H15.1466ZM8.26661 10.0332C8.16388 10.1669 8.03399 10.2773 7.88548 10.3572C7.73698 10.437 7.57325 10.4845 7.40507 10.4964C7.23689 10.5084 7.06808 10.4846 6.90977 10.4266C6.75146 10.3686 6.60724 10.2777 6.48661 10.1599L4.85995 8.5332C4.79779 8.47104 4.74848 8.39725 4.71484 8.31604C4.6812 8.23482 4.66388 8.14778 4.66388 8.05987C4.66388 7.97196 4.6812 7.88492 4.71484 7.8037C4.74848 7.72249 4.79779 7.64869 4.85995 7.58654C4.9221 7.52438 4.9959 7.47507 5.07711 7.44143C5.15833 7.40779 5.24537 7.39047 5.33328 7.39047C5.42119 7.39047 5.50823 7.40779 5.58945 7.44143C5.67066 7.47507 5.74445 7.52438 5.80661 7.58654L7.33328 9.08654L9.93994 5.6132C10.046 5.47175 10.204 5.37824 10.379 5.35324C10.4657 5.34086 10.5539 5.34567 10.6387 5.36739C10.7235 5.38912 10.8032 5.42734 10.8733 5.47987C10.9433 5.5324 11.0023 5.59821 11.0469 5.67354C11.0915 5.74887 11.1209 5.83225 11.1332 5.91892C11.1456 6.00559 11.1408 6.09385 11.1191 6.17866C11.0974 6.26347 11.0591 6.34316 11.0066 6.4132L8.26661 10.0332Z" fill="#1A73E8"/>
</g>
<defs>
<clipPath id="clip0_8824_55298">
<rect width="16" height="16" fill="white"/>
</clipPath>
</defs>
</svg>
