<svg width="142" height="28" viewBox="0 0 142 28" fill="none" xmlns="http://www.w3.org/2000/svg">
<path d="M105.046 8.90283C103.782 8.7811 102.514 9.08025 101.438 9.75375V8.87753H98.7115V22.4044H101.438V14.7424C101.431 13.9829 101.702 13.2471 102.2 12.6734C102.697 12.0997 103.387 11.7275 104.14 11.6269C104.568 11.5785 105.001 11.6207 105.411 11.7508C105.821 11.8809 106.199 12.096 106.52 12.3821C106.841 12.6682 107.099 13.0188 107.276 13.411C107.452 13.8033 107.544 14.2284 107.546 14.6586V22.4044H110.272V14.7774C110.272 11.7768 108.035 9.18127 105.046 8.90283Z" fill="white"/>
<path d="M47.6531 8.90283C46.3895 8.7811 45.1211 9.08025 44.045 9.75375V8.87753H41.319V22.4044H44.045V14.7424C44.0384 13.9829 44.3093 13.2471 44.807 12.6734C45.3047 12.0997 45.9949 11.7275 46.7477 11.6269C47.176 11.5775 47.6098 11.6192 48.0209 11.7492C48.4319 11.8791 48.8109 12.0944 49.133 12.381C49.455 12.6676 49.7129 13.019 49.8898 13.4121C50.0666 13.8053 50.1584 14.2314 50.1591 14.6625V22.4044H52.8851V14.7774C52.8851 11.7768 50.644 9.18127 47.6531 8.90283Z" fill="white"/>
<path d="M60.7555 19.6648C59.9849 19.6669 59.2286 19.4566 58.5697 19.057C57.9108 18.6574 57.3748 18.0839 57.0206 17.3995C56.6664 16.7151 56.5077 15.9463 56.5619 15.1776C56.6161 14.4089 56.8812 13.67 57.328 13.0421C57.7747 12.4142 58.3859 11.9216 59.0944 11.6184C59.8028 11.3152 60.5811 11.2132 61.3438 11.3235C62.1065 11.4338 62.824 11.7522 63.4175 12.2437C64.0111 12.7352 64.4576 13.3808 64.7082 14.1095H67.5316C67.1934 12.4269 66.242 10.93 64.8619 9.9097C63.4819 8.88936 61.7719 8.41839 60.064 8.58829C58.3562 8.75819 56.7725 9.55683 55.6206 10.8291C54.4686 12.1013 53.8307 13.7563 53.8307 15.4726C53.8307 17.1888 54.4686 18.8438 55.6206 20.116C56.7725 21.3883 58.3562 22.1869 60.064 22.3568C61.7719 22.5267 63.4819 22.0557 64.8619 21.0354C66.242 20.015 67.1934 18.5182 67.5316 16.8356H64.7082C64.4245 17.6591 63.8915 18.3738 63.1832 18.8808C62.475 19.3878 61.6265 19.6618 60.7555 19.6648V19.6648Z" fill="white"/>
<path d="M82.1946 14.1095C81.8447 12.352 80.8323 10.7964 79.3671 9.76473C77.9018 8.73308 76.0959 8.30446 74.3233 8.56761C72.5507 8.83077 70.9473 9.76555 69.8449 11.1784C68.7426 12.5912 68.2258 14.3739 68.4015 16.1572C68.5773 17.9406 69.4322 19.5881 70.7892 20.7585C72.1462 21.9289 73.9014 22.5326 75.6912 22.4446C77.481 22.3566 79.1685 21.5836 80.4041 20.2858C81.6398 18.9879 82.329 17.2645 82.329 15.4725C82.3288 15.0149 82.2838 14.5584 82.1946 14.1095V14.1095ZM75.4185 19.6647C74.5921 19.6628 73.7848 19.4161 73.0985 18.9558C72.4122 18.4955 71.8776 17.8422 71.5623 17.0783C71.2469 16.3145 71.1649 15.4743 71.3266 14.6639C71.4883 13.8535 71.8865 13.1092 72.4708 12.5248C73.0552 11.9405 73.7995 11.5423 74.6099 11.3806C75.4203 11.2189 76.2605 11.3009 77.0243 11.6163C77.7882 11.9317 78.4415 12.4662 78.9018 13.1525C79.3621 13.8389 79.6088 14.6461 79.6107 15.4725C79.6072 16.5833 79.1643 17.6475 78.3789 18.4329C77.5935 19.2183 76.5293 19.6612 75.4185 19.6647Z" fill="white"/>
<path d="M39.4147 22.4083V3.27557H36.6887V22.4083H39.4147Z" fill="white"/>
<path d="M114.91 8.87756H112.184V22.4083H114.91V8.87756Z" fill="white"/>
<path d="M114.91 3.27942H112.184V6.00543H114.91V3.27942Z" fill="white"/>
<path d="M94.08 8.87754V10.2172C93.0745 9.4676 91.8803 9.01245 90.6309 8.90257C89.3816 8.79268 88.1263 9.0324 87.0053 9.59493C85.8844 10.1575 84.9419 11.0206 84.2834 12.088C83.6248 13.1554 83.276 14.3848 83.276 15.639C83.276 16.8932 83.6248 18.1227 84.2834 19.19C84.9419 20.2574 85.8844 21.1206 87.0053 21.6831C88.1263 22.2456 89.3816 22.4854 90.6309 22.3755C91.8803 22.2656 93.0745 21.8104 94.08 21.0609V21.2361C94.0801 22.0913 93.8083 22.9244 93.3039 23.6149C92.7994 24.3055 92.0885 24.8178 91.2738 25.0779C90.4592 25.338 89.5829 25.3323 88.7716 25.0618C87.9604 24.7912 87.2562 24.2697 86.7607 23.5727L84.8135 25.5198C85.6965 26.5996 86.8918 27.3797 88.2356 27.7532C89.5794 28.1267 91.0059 28.0753 92.3194 27.6061C93.6328 27.1368 94.7689 26.2727 95.5718 25.1323C96.3748 23.9918 96.8052 22.6309 96.8041 21.2361V8.87754H94.08ZM90.4583 19.655C89.6291 19.7403 88.7938 19.5668 88.0672 19.1583C87.3405 18.7497 86.7582 18.1263 86.4001 17.3735C86.0421 16.6207 85.9259 15.7755 86.0675 14.954C86.2092 14.1325 86.6017 13.375 87.1911 12.7856C87.7806 12.1961 88.5381 11.8036 89.3595 11.662C90.181 11.5204 91.0262 11.6366 91.779 11.9946C92.5318 12.3526 93.1553 12.935 93.5638 13.6616C93.9723 14.3883 94.1459 15.2236 94.0606 16.0528C93.9646 16.9754 93.5542 17.8369 92.8983 18.4928C92.2424 19.1487 91.3809 19.559 90.4583 19.655Z" fill="white"/>
<path d="M123.97 19.6511C123.247 19.522 122.594 19.1409 122.126 18.5754C121.659 18.0099 121.407 17.2967 121.415 16.5629V11.6035H124.141V8.87748H121.415V3.27942H118.689V8.87748H115.862V11.6035H118.689V16.5629C118.689 19.7406 121.289 22.4043 124.466 22.4141C125.872 22.4141 126.867 22.1356 127.765 21.4016C127.071 20.7834 126.536 20.0064 126.207 19.137C125.558 19.5948 124.754 19.7794 123.97 19.6511V19.6511Z" fill="white"/>
<path d="M141.37 14.1095C141.02 12.352 140.008 10.7964 138.543 9.76473C137.078 8.73308 135.272 8.30446 133.499 8.56761C131.727 8.83077 130.123 9.76555 129.021 11.1784C127.918 12.5912 127.402 14.3739 127.577 16.1572C127.753 17.9406 128.608 19.5881 129.965 20.7585C131.322 21.9289 133.077 22.5326 134.867 22.4446C136.657 22.3566 138.344 21.5836 139.58 20.2858C140.816 18.9879 141.505 17.2645 141.505 15.4725C141.505 15.0149 141.46 14.5584 141.37 14.1095V14.1095ZM134.587 19.6647C133.76 19.6628 132.953 19.4161 132.267 18.9558C131.58 18.4955 131.046 17.8422 130.73 17.0783C130.415 16.3145 130.333 15.4743 130.495 14.6639C130.656 13.8535 131.054 13.1092 131.639 12.5248C132.223 11.9405 132.967 11.5423 133.778 11.3806C134.588 11.2189 135.428 11.3009 136.192 11.6163C136.956 11.9317 137.609 12.4662 138.07 13.1525C138.53 13.8389 138.777 14.6461 138.779 15.4725C138.775 16.5833 138.332 17.6475 137.547 18.4329C136.761 19.2183 135.697 19.6612 134.587 19.6647V19.6647Z" fill="white"/>
<path fill-rule="evenodd" clip-rule="evenodd" d="M13.1022 24.0206C19.1323 24.0206 24.0206 19.1323 24.0206 13.1022C24.0206 7.07205 19.1323 2.18369 13.1022 2.18369C7.07205 2.18369 2.18369 7.07205 2.18369 13.1022C2.18369 19.1323 7.07205 24.0206 13.1022 24.0206ZM13.1022 26.2043C20.3383 26.2043 26.2043 20.3383 26.2043 13.1022C26.2043 5.86603 20.3383 0 13.1022 0C5.86603 0 0 5.86603 0 13.1022C0 20.3383 5.86603 26.2043 13.1022 26.2043Z" fill="white"/>
</svg>
