<svg width="24" height="24" viewBox="0 0 24 24" fill="none" xmlns="http://www.w3.org/2000/svg">
<rect width="24" height="24" rx="4" fill="#345D9D"/>
<path d="M11.7775 12.8888L10.5035 17.1849H17.318C17.4092 17.1817 17.4979 17.2149 17.5646 17.2771C17.6313 17.3394 17.6705 17.4256 17.6736 17.5167V17.6293L17.081 19.6737C17.0272 19.8728 16.8427 20.0081 16.6366 19.9996H6.2074L7.95547 14.0443L6 14.6369L6.44443 13.2739L8.3999 12.6814L10.8591 4.32613C10.9148 4.12831 11.0981 3.99388 11.3035 4.00021H13.9404C14.0316 3.99702 14.1203 4.03019 14.187 4.09244C14.2537 4.15468 14.2929 4.24088 14.296 4.33205V4.44464L12.222 11.4962L14.1774 10.9037L13.7626 12.3258L11.7775 12.8888Z" fill="white"/>
</svg>
