<svg width="50" height="50" viewBox="0 0 50 50" fill="none" xmlns="http://www.w3.org/2000/svg">
<circle cx="25" cy="25" r="25" fill="#303030"/>
<path d="M36 27.1064C36.0014 26.234 35.7375 25.3827 35.2448 24.67C34.752 23.9574 34.0547 23.4184 33.2491 23.1276V22.4255C33.2491 20.1909 32.3797 18.0479 30.832 16.4678C29.2844 14.8877 27.1853 14 24.9966 14C22.8079 14 20.7088 14.8877 19.1611 16.4678C17.6135 18.0479 16.744 20.1909 16.744 22.4255V23.1276C15.9412 23.4191 15.2464 23.9571 14.7551 24.6678C14.2638 25.3785 14 26.2271 14 27.097C14 27.9669 14.2638 28.8155 14.7551 29.5262C15.2464 30.2369 15.9412 30.7749 16.744 31.0664C16.9518 31.1401 17.1736 31.1633 17.3917 31.134C17.6098 31.1048 17.8182 31.0239 18.0002 30.8978C18.177 30.7666 18.3213 30.595 18.4216 30.3967C18.5219 30.1984 18.5754 29.9789 18.5779 29.7557V22.4255C18.5779 20.6875 19.2542 19.0207 20.4579 17.7917C21.6616 16.5628 23.2942 15.8723 24.9966 15.8723C26.6989 15.8723 28.3315 16.5628 29.5353 17.7917C30.739 19.0207 31.4152 20.6875 31.4152 22.4255V29.7557C31.417 29.9505 31.4587 30.1428 31.5376 30.3202C31.6166 30.4976 31.7311 30.6561 31.8737 30.7855V31.3191C31.8737 32.7047 30.6908 33.1915 29.5813 33.1915H27.9492C27.788 32.9064 27.556 32.6698 27.2767 32.5055C26.9974 32.3411 26.6806 32.2548 26.3582 32.2553C26.0358 32.2558 25.7193 32.3431 25.4404 32.5083C25.1616 32.6735 24.9304 32.9109 24.77 33.1964C24.6097 33.4819 24.5259 33.8056 24.5271 34.1347C24.5283 34.4639 24.6145 34.7868 24.7769 35.0711C24.9394 35.3554 25.1724 35.591 25.4524 35.7541C25.7324 35.9171 26.0496 36.0019 26.372 36C26.692 35.998 27.006 35.9105 27.2827 35.7463C27.5594 35.5821 27.7891 35.3468 27.9492 35.0638H29.5813C32.0113 35.0638 33.7076 33.5285 33.7076 31.3191V30.8698C34.3945 30.5219 34.9728 29.9854 35.3777 29.3207C35.7826 28.6559 35.9981 27.8892 36 27.1064V27.1064Z" fill="white"/>
</svg>
