<svg width="104" height="260" viewBox="0 0 104 260" fill="none" xmlns="http://www.w3.org/2000/svg">
<path d="M100.693 50.706C97.8055 45.3928 88.8398 40.4595 88.8398 40.4595L22.3081 2.04594C20.0404 0.710905 17.4577 0.00468417 14.8261 2.3221e-05C12.1946 -0.00463773 9.60934 0.692447 7.33685 2.01944C5.06437 3.34644 3.18681 5.25536 1.89762 7.5495C0.608437 9.84365 -0.0457482 12.44 0.00248697 15.0712V15.9395C-0.00566761 14.683 0.415549 13.4614 1.19644 12.477C1.48846 12.1051 1.82781 11.7731 2.20588 11.4892C3.15762 10.7686 4.31219 10.3661 5.50565 10.3387C5.74677 10.338 5.98772 10.3506 6.22744 10.3766C6.72553 10.4334 7.21329 10.5595 7.67651 10.7511C7.92123 10.8504 8.15875 10.9664 8.38744 11.0984L24.1262 20.1889L29.586 23.3422L59.202 40.4432L81.5891 53.3707C83.7922 54.6432 85.6215 56.4732 86.8933 58.6767C88.1651 60.8802 88.8345 63.3796 88.8344 65.9237V252.211C88.835 253.279 88.5543 254.328 88.0206 255.253C87.4868 256.178 86.7189 256.946 85.794 257.48C84.8691 258.013 83.8199 258.294 82.7521 258.293C81.6843 258.293 80.6355 258.011 79.7113 257.476L76.455 255.614L79.923 257.617C82.6226 259.178 85.6861 260 88.8046 260C91.9231 260 94.9865 259.178 97.6861 257.617C99.4834 256.577 100.976 255.083 102.013 253.285C103.05 251.486 103.596 249.447 103.596 247.37C103.596 247.37 103.596 111.431 103.596 66.1029C103.651 61.8263 103.428 55.737 100.693 50.706Z" fill="#404040"/>
<path d="M59.213 40.4379L29.5969 23.3369V33.3826C29.5987 35.5274 30.1648 37.6339 31.2385 39.4906C32.3121 41.3473 33.8553 42.8887 35.7133 43.9602L40.0225 46.4512L52.5864 53.7019C53.5925 54.2824 54.7865 54.4439 55.9106 54.1514C57.0347 53.859 57.9986 53.1361 58.5943 52.139C58.7989 51.8009 58.9542 51.4354 59.0556 51.0535C59.1631 50.6591 59.2179 50.252 59.2184 49.8432L59.213 40.4379Z" fill="#757575"/>
<path d="M81.6 53.3546L59.2129 40.4379V49.8812C59.2123 50.29 59.1576 50.697 59.05 51.0914C58.9476 51.4729 58.7923 51.8383 58.5887 52.1768C57.9922 53.1731 57.0279 53.8948 55.9038 54.1863C54.7798 54.4777 53.5863 54.3154 52.5809 53.7344L40.017 46.4837L35.7078 43.9981C33.8502 42.9263 32.3072 41.3847 31.2337 39.5281C30.1601 37.6715 29.5937 35.5651 29.5914 33.4205V23.3586L24.1316 20.2054L8.39284 11.1148C8.16423 10.9811 7.92672 10.8632 7.68191 10.7621C7.21764 10.5746 6.73022 10.4505 6.23283 10.3931C5.99359 10.3616 5.75227 10.3489 5.51104 10.355C4.67997 10.371 3.86268 10.5705 3.11771 10.9392C2.37274 11.3079 1.7185 11.8368 1.20184 12.4879C0.42249 13.4732 0.00146632 14.6942 0.00788481 15.9505V200.16C0.00759086 203.589 0.910195 206.959 2.62501 209.929C4.33983 212.9 6.80642 215.366 9.77679 217.081L74.0453 254.187L76.4984 255.603L79.7547 257.465C80.6789 258 81.7277 258.282 82.7955 258.282C83.8633 258.283 84.9125 258.003 85.8373 257.469C86.7622 256.935 87.5302 256.167 88.0639 255.242C88.5977 254.318 88.8784 253.268 88.8778 252.201V65.9076C88.8735 63.3605 88.1987 60.8593 86.9211 58.6557C85.6436 56.4521 83.8083 54.6238 81.6 53.3546Z" fill="#303030"/>
<path d="M37.7812 108.163C40.3274 108.17 42.8261 108.854 45.021 110.144C51.2741 113.768 56.4667 118.969 60.08 125.228C63.6933 131.487 65.6008 138.585 65.6117 145.812C65.6117 154.848 58.0137 160.465 50.9584 160.465C48.4039 160.458 45.8974 159.771 43.6968 158.473C37.4448 154.849 32.253 149.647 28.6399 143.388C25.0268 137.13 23.1187 130.033 23.1061 122.806C23.1061 113.77 30.7041 108.153 37.7594 108.153L37.7812 108.163ZM37.7594 99.3389C25.532 99.3389 14.3141 109.108 14.3141 122.784C14.3123 131.557 16.6181 140.176 21 147.775C25.382 155.375 31.6859 161.689 39.2791 166.082C42.8229 168.149 46.8503 169.243 50.9529 169.252C63.1749 169.252 74.3928 159.483 74.3928 145.812C74.3961 137.04 72.0908 128.422 67.7086 120.824C63.3264 113.226 57.0217 106.915 49.4279 102.525C45.8867 100.455 41.8609 99.3598 37.7594 99.3497V99.3389Z" fill="#757575"/>
<path d="M62.246 118.885L21.3983 142.458L25.8038 150.092L66.6516 126.518L62.246 118.885Z" fill="#757575"/>
<path d="M59.0394 231.708C58.8018 231.706 58.5685 231.644 58.361 231.529L29.1302 214.65C28.9747 214.562 28.8382 214.443 28.7286 214.302C28.6189 214.16 28.5383 213.999 28.4915 213.826C28.4446 213.653 28.4324 213.473 28.4554 213.296C28.4785 213.118 28.5364 212.947 28.6259 212.792C28.7153 212.637 28.8346 212.501 28.9767 212.393C29.1189 212.284 29.2811 212.205 29.4541 212.159C29.6271 212.113 29.8074 212.102 29.9847 212.126C30.1619 212.151 30.3327 212.21 30.487 212.3L59.7178 229.184C59.9751 229.334 60.1759 229.564 60.2893 229.84C60.4027 230.115 60.4223 230.42 60.3452 230.708C60.268 230.995 60.0984 231.25 59.8624 231.431C59.6264 231.613 59.3372 231.712 59.0394 231.713V231.708Z" fill="#757575"/>
</svg>
