<svg width="16" height="16" viewBox="0 0 16 16" fill="none" xmlns="http://www.w3.org/2000/svg">
<path d="M15.6065 13.7267L12.5132 10.6667C13.3589 9.3996 13.7569 7.88622 13.644 6.36701C13.5311 4.84779 12.9138 3.40987 11.8901 2.28165C10.8664 1.15344 9.49513 0.399647 7.99401 0.140018C6.4929 -0.119611 4.94807 0.129816 3.60494 0.848675C2.26181 1.56753 1.19741 2.7146 0.580821 4.10764C-0.0357647 5.50069 -0.169171 7.05983 0.201793 8.53737C0.572758 10.0149 1.42682 11.3261 2.6283 12.2627C3.82979 13.1993 5.30978 13.7076 6.83319 13.7067C8.18518 13.7081 9.50652 13.304 10.6265 12.5467L13.7265 15.6467C13.9763 15.8951 14.3143 16.0344 14.6665 16.0344C15.0188 16.0344 15.3567 15.8951 15.6065 15.6467C15.7356 15.5223 15.8382 15.3732 15.9083 15.2083C15.9784 15.0433 16.0146 14.8659 16.0146 14.6867C16.0146 14.5075 15.9784 14.3301 15.9083 14.1652C15.8382 14.0002 15.7356 13.8511 15.6065 13.7267ZM6.83319 2.00005C7.78885 2.00005 8.72306 2.28335 9.51775 2.81415C10.3124 3.34495 10.9319 4.09942 11.298 4.98221C11.664 5.865 11.7601 6.83648 11.5741 7.77387C11.3882 8.71126 10.9285 9.57249 10.2532 10.2487C9.57793 10.9249 8.71734 11.3858 7.7802 11.573C6.84307 11.7603 5.87146 11.6655 4.98816 11.3007C4.10487 10.9359 3.34955 10.3174 2.81766 9.52349C2.28576 8.72953 2.00117 7.79571 1.99985 6.84005C1.99985 5.55755 2.50886 4.32749 3.4151 3.42001C4.32133 2.51252 5.55069 2.00181 6.83319 2.00005Z" fill="white"/>
</svg>
