<svg width="27" height="16" viewBox="0 0 27 16" fill="none" xmlns="http://www.w3.org/2000/svg">
<path d="M27 7.79845C27 7.95033 27 8.10155 27 8.25342C26.8566 9.06037 26.3743 9.65808 25.7987 10.1991C25.4676 10.5107 25.1437 10.83 24.806 11.1344C22.9523 12.8083 20.9147 14.1947 18.5714 15.1046C16.0978 16.0654 13.5772 16.2799 10.9934 15.617C8.80071 15.0545 6.84852 14.007 5.03256 12.6825C3.83974 11.8123 2.73296 10.8437 1.72591 9.76302C0.729283 8.69404 0.696041 7.37999 1.68941 6.29993C2.25974 5.68005 2.87766 5.09929 3.51253 4.54459C5.22029 3.05259 7.12033 1.86172 9.22699 1.00784C12.6216 -0.368788 15.9902 -0.355749 19.3399 1.17406C21.7438 2.27172 23.8237 3.81912 25.6918 5.67028C26.3052 6.27647 26.8996 6.88331 27 7.79845ZM9.00277 7.99269C9.00016 10.7147 11.2574 12.9713 13.9937 12.9823C16.6955 12.9934 18.9625 10.7401 18.9827 8.02398C19.0029 5.29483 16.7229 3.00045 13.9918 3.0024C11.2665 3.0037 9.00538 5.26615 9.00277 7.99269Z" fill="#9C9C9C"/>
<path d="M13.9847 10.1463C12.7684 10.1424 11.8259 9.17773 11.835 7.94775C11.8442 6.78101 12.8284 5.83261 14.0167 5.84435C15.2049 5.85608 16.1637 6.82272 16.1507 7.99599C16.1377 9.20836 15.1893 10.1502 13.9847 10.1463Z" fill="#9C9C9C"/>
</svg>
