<svg width="121" height="120" viewBox="0 0 121 120" fill="none" xmlns="http://www.w3.org/2000/svg">
<path d="M96.3652 111.96H23.6536C20.5487 111.96 17.4742 111.348 14.6057 110.16C11.7372 108.972 9.13083 107.23 6.93545 105.034C4.74007 102.839 2.99866 100.232 1.81069 97.3635C0.622707 94.4949 0.0114146 91.4203 0.0117189 88.3154V96.3559C0.0114146 99.4608 0.622707 102.535 1.81069 105.404C2.99866 108.273 4.74007 110.879 6.93545 113.075C9.13083 115.27 11.7372 117.012 14.6057 118.2C17.4742 119.389 20.5487 120 23.6536 120H96.3652C99.4701 120 102.545 119.389 105.413 118.2C108.282 117.012 110.888 115.27 113.083 113.075C115.279 110.879 117.02 108.273 118.208 105.404C119.396 102.535 120.007 99.4608 120.007 96.3559V88.3154C120.007 91.4203 119.396 94.4949 118.208 97.3635C117.02 100.232 115.279 102.839 113.083 105.034C110.888 107.23 108.282 108.972 105.413 110.16C102.545 111.348 99.4701 111.96 96.3652 111.96Z" fill="#9C9C9C"/>
<path d="M96.3512 0H23.6442C10.5859 0 0 10.5859 0 23.6442V88.313C0 101.371 10.5859 111.957 23.6442 111.957H96.3512C109.409 111.957 119.995 101.371 119.995 88.313V23.6442C119.995 10.5859 109.409 0 96.3512 0Z" fill="white"/>
<path d="M91.5931 41.2285L60.0011 22.9863L28.3999 41.2262L91.5931 41.2285Z" fill="#1A73E8"/>
<path d="M47.3602 41.2263H28.3999V48.5301H47.3602V41.2263Z" fill="#1C55B8"/>
<path d="M73 82H47V89H73V82Z" fill="#1C55B8"/>
<path d="M91.5977 41.2263H72.6375V48.5301H91.5977V41.2263Z" fill="#1C55B8"/>
<path d="M73 41H47V82H73V41Z" fill="#1A73E8"/>
</svg>
