<svg width="50" height="50" viewBox="0 0 50 50" fill="none" xmlns="http://www.w3.org/2000/svg">
<circle cx="25" cy="25" r="25" fill="#303030"/>
<path d="M24.7852 15C18.8373 15 14 18.9809 14 23.8841C14.0182 25.0606 14.2939 26.2187 14.8077 27.2772C15.3215 28.3356 16.0609 29.2687 16.9739 30.0108L14.8282 34.3117C14.7839 34.398 14.7674 34.4958 14.7809 34.5918C14.7944 34.6878 14.8372 34.7774 14.9035 34.8481C14.9932 34.9382 15.1151 34.989 15.2423 34.9893C15.3074 35.0036 15.3748 35.0036 15.4399 34.9893L21.2089 32.2695C22.3719 32.6017 23.5757 32.7696 24.7852 32.7683C30.733 32.7683 35.5704 28.7779 35.5704 23.8841C35.5704 18.9903 30.733 15 24.7852 15ZM20.0796 25.3523C19.8004 25.3523 19.5275 25.2695 19.2953 25.1144C19.0632 24.9592 18.8822 24.7388 18.7754 24.4808C18.6685 24.2229 18.6406 23.939 18.6951 23.6652C18.7495 23.3914 18.884 23.1398 19.0814 22.9424C19.2788 22.745 19.5304 22.6105 19.8042 22.556C20.078 22.5016 20.3619 22.5295 20.6198 22.6364C20.8778 22.7432 21.0983 22.9242 21.2534 23.1563C21.4085 23.3885 21.4913 23.6614 21.4913 23.9406C21.4913 24.126 21.4548 24.3095 21.3838 24.4808C21.3129 24.6521 21.2089 24.8077 21.0778 24.9388C20.9467 25.0699 20.7911 25.1739 20.6198 25.2448C20.4486 25.3158 20.265 25.3523 20.0796 25.3523V25.3523ZM24.7852 22.5289C25.0644 22.5289 25.3373 22.6117 25.5695 22.7668C25.8016 22.9219 25.9826 23.1424 26.0894 23.4004C26.1962 23.6583 26.2242 23.9422 26.1697 24.216C26.1153 24.4898 25.9808 24.7414 25.7834 24.9388C25.586 25.1362 25.3344 25.2707 25.0606 25.3251C24.7867 25.3796 24.5029 25.3517 24.245 25.2448C23.987 25.138 23.7665 24.957 23.6114 24.7249C23.4563 24.4927 23.3735 24.2198 23.3735 23.9406C23.3735 23.5662 23.5222 23.2071 23.787 22.9424C24.0517 22.6777 24.4108 22.5289 24.7852 22.5289V22.5289ZM29.4908 25.3523C29.2116 25.3523 28.9386 25.2695 28.7065 25.1144C28.4743 24.9592 28.2934 24.7388 28.1865 24.4808C28.0797 24.2229 28.0517 23.939 28.1062 23.6652C28.1607 23.3914 28.2951 23.1398 28.4926 22.9424C28.69 22.745 28.9415 22.6105 29.2154 22.556C29.4892 22.5016 29.773 22.5295 30.031 22.6364C30.2889 22.7432 30.5094 22.9242 30.6645 23.1563C30.8196 23.3885 30.9024 23.6614 30.9024 23.9406C30.9024 24.126 30.8659 24.3095 30.795 24.4808C30.724 24.6521 30.62 24.8077 30.489 24.9388C30.3579 25.0699 30.2023 25.1739 30.031 25.2448C29.8597 25.3158 29.6761 25.3523 29.4908 25.3523V25.3523Z" fill="white"/>
</svg>
