<svg xmlns="http://www.w3.org/2000/svg" width="16" height="16" viewBox="0 0 16 16" fill="none">
<path d="M6.32617 4.98697L6.32617 14.9206C6.32617 15.1755 6.225 15.4201 6.04493 15.6003C5.86485 15.7806 5.62061 15.8819 5.36594 15.8819C5.11127 15.8819 4.86703 15.7806 4.68695 15.6003C4.50687 15.4201 4.40571 15.1755 4.40571 14.9206L4.40571 4.98697C4.40333 4.96587 4.39679 4.94545 4.38646 4.9269C4.37614 4.90835 4.36223 4.89204 4.34555 4.87892C4.32887 4.86581 4.30976 4.85614 4.28931 4.85048C4.26887 4.84482 4.2475 4.84329 4.22646 4.84597L2.306 4.84597C2.13622 4.84597 1.97339 4.77845 1.85334 4.65826C1.73329 4.53807 1.66584 4.37506 1.66584 4.20509C1.6662 4.1203 1.68335 4.03642 1.71632 3.95831C1.74928 3.8802 1.7974 3.80942 1.85789 3.75007L5.4093 0.189571C5.46881 0.129502 5.53961 0.0818246 5.61762 0.049288C5.69563 0.0167514 5.75331 -2.50406e-08 5.86381 -2.02106e-08C5.9743 -1.53806e-08 6.01873 0.0134448 6.11 0.049288C6.15547 0.0671491 6.32584 0.189568 6.32584 0.389475C6.32584 0.569398 6.32617 0.832751 6.32617 1.26634L6.32617 1.42019L6.32617 4.98697Z" fill="white"/>
<path d="M9.00781 11.013L9.00781 1.07942C9.00781 0.82446 9.10898 0.579945 9.28906 0.399663C9.46914 0.21938 9.71338 0.118099 9.96805 0.118099C10.2227 0.118099 10.467 0.219381 10.647 0.399663C10.8271 0.579945 10.9283 0.82446 10.9283 1.07942L10.9283 11.013C10.9307 11.0341 10.9372 11.0546 10.9475 11.0731C10.9578 11.0916 10.9718 11.108 10.9884 11.1211C11.0051 11.1342 11.0242 11.1439 11.0447 11.1495C11.0651 11.1552 11.0865 11.1567 11.1075 11.154L13.028 11.154C13.1978 11.154 13.3606 11.2216 13.4806 11.3417C13.6007 11.4619 13.6681 11.6249 13.6681 11.7949C13.6678 11.8797 13.6506 11.9636 13.6177 12.0417C13.5847 12.1198 13.5366 12.1906 13.4761 12.2499L9.92469 15.8104C9.86518 15.8705 9.79437 15.9182 9.71637 15.9507C9.63836 15.9832 9.58067 16 9.47018 16C9.35968 16 9.31525 15.9866 9.22399 15.9507C9.17851 15.9329 9.00814 15.8104 9.00814 15.6105C9.00814 15.4306 9.00781 15.1672 9.00781 14.7337L9.00781 14.5798L9.00781 11.013Z" fill="white"/>
</svg>