<svg xmlns="http://www.w3.org/2000/svg" width="44" height="44" viewBox="0 0 44 44" fill="none">
<circle cx="22" cy="22" r="20" fill="#252525" stroke="#303030" stroke-width="4"/>
<path d="M20.3262 18.987L20.3262 28.9206C20.3262 29.1755 20.225 29.4201 20.0449 29.6003C19.8648 29.7806 19.6206 29.8819 19.3659 29.8819C19.1113 29.8819 18.867 29.7806 18.687 29.6003C18.5069 29.4201 18.4057 29.1755 18.4057 28.9206L18.4057 18.987C18.4033 18.9659 18.3968 18.9454 18.3865 18.9269C18.3761 18.9084 18.3622 18.892 18.3456 18.8789C18.3289 18.8658 18.3098 18.8561 18.2893 18.8505C18.2689 18.8448 18.2475 18.8433 18.2265 18.846L16.306 18.846C16.1362 18.846 15.9734 18.7785 15.8533 18.6583C15.7333 18.5381 15.6658 18.3751 15.6658 18.2051C15.6662 18.1203 15.6834 18.0364 15.7163 17.9583C15.7493 17.8802 15.7974 17.8094 15.8579 17.7501L19.4093 14.1896C19.4688 14.1295 19.5396 14.0818 19.6176 14.0493C19.6956 14.0168 19.7533 14 19.8638 14C19.9743 14 20.0187 14.0134 20.11 14.0493C20.1555 14.0671 20.3258 14.1896 20.3258 14.3895C20.3258 14.5694 20.3262 14.8328 20.3262 15.2663L20.3262 15.4202L20.3262 18.987Z" fill="white"/>
<path d="M23.0078 25.0133L23.0078 15.0797C23.0078 14.8247 23.109 14.5802 23.2891 14.3999C23.4691 14.2196 23.7134 14.1183 23.968 14.1183C24.2227 14.1183 24.467 14.2196 24.647 14.3999C24.8271 14.5802 24.9283 14.8247 24.9283 15.0797L24.9283 25.0133C24.9307 25.0344 24.9372 25.0548 24.9475 25.0733C24.9578 25.0919 24.9718 25.1082 24.9884 25.1213C25.0051 25.1344 25.0242 25.1441 25.0447 25.1498C25.0651 25.1554 25.0865 25.157 25.1075 25.1543L27.028 25.1543C27.1978 25.1543 27.3606 25.2218 27.4806 25.342C27.6007 25.4622 27.6681 25.6252 27.6681 25.7952C27.6678 25.8799 27.6506 25.9638 27.6177 26.0419C27.5847 26.12 27.5366 26.1908 27.4761 26.2502L23.9247 29.8107C23.8652 29.8707 23.7944 29.9184 23.7164 29.951C23.6384 29.9835 23.5807 30.0002 23.4702 30.0002C23.3597 30.0002 23.3153 29.9868 23.224 29.951C23.1785 29.9331 23.0081 29.8107 23.0081 29.6108C23.0081 29.4308 23.0078 29.1675 23.0078 28.7339L23.0078 28.5801L23.0078 25.0133Z" fill="white"/>
</svg>