<svg width="40" height="40" viewBox="0 0 40 40" fill="none" xmlns="http://www.w3.org/2000/svg"><circle cx="20" cy="20" r="19.5" fill="#252525" stroke="#363636"/><path d="M18.328 16.987v9.933a.961.961 0 1 1-1.92 0v-9.933a.16.16 0 0 0-.18-.141h-1.92a.64.64 0 0 1-.448-1.096l3.551-3.56a.639.639 0 0 1 .701-.14c.045.017.216.14.216.34v4.597Zm2.68 6.026V13.08a.961.961 0 1 1 1.92 0v9.933a.16.16 0 0 0 .18.141h1.92a.64.64 0 0 1 .448 1.096l-3.551 3.56a.639.639 0 0 1-.701.14.403.403 0 0 1-.216-.34v-4.597Z" fill="#fff"/></svg>