<svg width="24" height="24" viewBox="0 0 24 24" fill="none" xmlns="http://www.w3.org/2000/svg">
<rect width="24" height="24" rx="4" fill="#F2F4F5"/>
<path d="M11.9998 2C6.47806 2 1.99298 6.25945 2.00001 11.4996C2.00139 12.548 2.17739 13.5565 2.50772 14.4998H5.49987V6.50828L11.9998 12.6824L18.4993 6.50828V14.5H21.4921C21.8229 13.5567 21.998 12.5482 22 11.4998C22.0094 6.25414 17.522 2.00126 11.9998 2.00126V2Z" fill="#F26822"/>
<path d="M10.5423 14.8085L7.7765 12V17.2412H5.66196L3.66663 17.2416C5.37815 20.0928 8.47128 22 11.9997 22C15.5282 22 18.6215 20.0923 20.3333 17.2412H16.2223V12L13.4564 14.8085L11.9994 16.2879L10.5424 14.8085H10.5423Z" fill="#4D4D4D"/>
</svg>
