<svg width="24" height="24" viewBox="0 0 24 24" fill="none" xmlns="http://www.w3.org/2000/svg">
<rect width="24" height="24" rx="4" fill="#EDF0F4"/>
<path fill-rule="evenodd" clip-rule="evenodd" d="M8.1088 21.2142C9.3418 21.7352 10.6511 22 12.0011 22C13.3514 22 14.66 21.7352 15.8934 21.21C18.2902 20.1939 20.1982 18.2858 21.2142 15.889C21.7352 14.656 22 13.3467 22 11.9967C22.0035 7.97678 19.5972 4.34636 15.8934 2.7837C14.66 2.2627 13.347 2 11.9989 2C7.97894 1.99647 4.34847 4.4028 2.7858 8.1066C2.2648 9.34 2 10.6486 2 11.9989C2 13.3492 2.2648 14.6582 2.788 15.8934C3.80408 18.2902 5.71203 20.1981 8.1088 21.2142ZM6.50025 6.49802C7.96985 5.03082 9.92365 4.22082 12.0012 4.22082L12.0009 4.22102C14.0784 4.22102 16.0318 5.03072 17.5018 6.49822C18.969 7.96782 19.779 9.92162 19.779 11.9991C19.779 14.0766 18.9693 16.03 17.5018 17.5C16.0322 18.9672 14.0784 19.7772 12.0009 19.7772C9.92345 19.7772 7.97005 18.9675 6.50005 17.5C5.03275 16.03 4.22305 14.0764 4.22305 11.9989C4.22305 9.92142 5.03025 7.96802 6.50025 6.49802Z" fill="black"/>
<path d="M11.4 14.4889H15.733V16.6663H13.065C13.1084 17.2893 13.1323 17.8663 13.1757 18.4876H10.9309V16.6876H8.26291C8.26291 15.9756 8.17391 15.2657 8.30631 14.5992C8.37361 14.2432 8.77301 13.9328 9.01831 13.6223C9.86281 12.6215 10.7072 11.6447 11.5734 10.6439C11.9077 10.2662 12.2398 9.91016 12.6176 9.48896H8.46261V7.31206H10.9287V5.49066H13.0843V7.26856H15.7743C15.7743 8.00226 15.8633 8.71216 15.7309 9.38076C15.6636 9.73676 15.2642 10.0472 14.9972 10.3577C14.1527 11.3585 13.3083 12.3353 12.4421 13.3361C12.1121 13.7334 11.78 14.0872 11.4001 14.4888" fill="black"/>
</svg>
