<svg width="24" height="24" viewBox="0 0 24 24" fill="none" xmlns="http://www.w3.org/2000/svg">
<rect width="24" height="24" rx="4" fill="#E7EFF3"/>
<path d="M17.305 10.612L15.0007 11.6394L8.8877 14.7509L15.0007 17.69V12.8319L17.305 11.7935V18.9706L15.0007 19.9979L6 15.6902V13.4006L12.2304 10.3441L6 7.35003V5.02739L8.34098 4L17.305 8.31504V10.612Z" fill="#49C1BF"/>
<path d="M6 5.02739L15.0007 9.34243L17.305 8.31504L8.34098 4L6 5.02739Z" fill="#077A8F"/>
<path d="M15.0007 9.33269L17.305 8.3053V10.6023L15.0007 11.6296V9.33269V9.33269Z" fill="#298E97"/>
<path d="M6 5.02942V7.35206L12.2304 10.3462L6 13.4027V15.6923L15.0007 20V17.6957L8.8877 14.7529L15.0007 11.6414V9.34446L6 5.02942Z" fill="#49C1BF"/>
<path d="M15.0007 19.9829L17.305 18.9555V11.7784L15.0007 12.8168V19.9829Z" fill="#298E97"/>
</svg>
